<svg class="main-svg" xmlns="http://www.w3.org/2000/svg" xmlns:xlink="http://www.w3.org/1999/xlink" width="1550" height="700" viewBox="0 0 1550 700" style=""><rect x="0" y="0" width="1550" height="700" style="fill: rgb(255, 255, 255); fill-opacity: 1;"/><defs id="defs-99dbbe"><g class="clips"><clipPath id="clip99dbbexyplot" class="plotclip"><rect width="1342" height="538"/></clipPath><clipPath id="clip99dbbexy2plot" class="plotclip"><rect width="1342" height="538"/></clipPath><clipPath class="axesclip" id="clip99dbbex"><rect x="104" y="0" width="1342" height="700"/></clipPath><clipPath class="axesclip" id="clip99dbbey"><rect x="0" y="86" width="1550" height="538"/></clipPath><clipPath class="axesclip" id="clip99dbbexy"><rect x="104" y="86" width="1342" height="538"/></clipPath><clipPath class="axesclip" id="clip99dbbey2"><rect x="0" y="86" width="1550" height="538"/></clipPath><clipPath class="axesclip" id="clip99dbbexy2"><rect x="104" y="86" width="1342" height="538"/></clipPath></g><g class="gradients"/><g class="patterns"/></defs><g class="bglayer"/><g class="layer-below"><g class="imagelayer"/><g class="shapelayer"/></g><g class="cartesianlayer"><g class="subplot xy"><g class="layer-subplot"><g class="shapelayer"/><g class="imagelayer"/></g><g class="minor-gridlayer"><g class="x"/><g class="y"/><g class="y2"/></g><g class="gridlayer"><g class="x"/><g class="y"><path class="ygrid crisp" transform="translate(0,594.78)" d="M104,0h1342" style="stroke: rgb(232, 235, 239); stroke-opacity: 1; stroke-width: 1px;"/><path class="ygrid crisp" transform="translate(0,502.95)" d="M104,0h1342" style="stroke: rgb(232, 235, 239); stroke-opacity: 1; stroke-width: 1px;"/><path class="ygrid crisp" transform="translate(0,411.13)" d="M104,0h1342" style="stroke: rgb(232, 235, 239); stroke-opacity: 1; stroke-width: 1px;"/><path class="ygrid crisp" transform="translate(0,319.3)" d="M104,0h1342" style="stroke: rgb(232, 235, 239); stroke-opacity: 1; stroke-width: 1px;"/><path class="ygrid crisp" transform="translate(0,227.47)" d="M104,0h1342" style="stroke: rgb(232, 235, 239); stroke-opacity: 1; stroke-width: 1px;"/><path class="ygrid crisp" transform="translate(0,135.65)" d="M104,0h1342" style="stroke: rgb(232, 235, 239); stroke-opacity: 1; stroke-width: 1px;"/></g><g class="y2"/></g><g class="zerolinelayer"/><g class="layer-between"><g class="shapelayer"/><g class="imagelayer"/></g><path class="xlines-below"/><path class="ylines-below"/><g class="overlines-below"><path class="xy2-x"/><path class="xy2-y"/></g><g class="xaxislayer-below"/><g class="yaxislayer-below"/><g class="overaxes-below"><g class="xy2-x"/><g class="xy2-y"/></g><g class="overplot"><g class="xy" transform="translate(104,86)" clip-path="url(#clip99dbbexyplot)"><g class="scatterlayer mlayer"><g class="trace scatter tracefc5c69" style="stroke-miterlimit: 2; opacity: 1;"><g class="fills"/><g class="errorbars"/><g class="lines"><path class="js-line" d="M9.52,470.17L28.24,470.17L37.76,461.21L47.6,437.52L57.12,436.15L76.79,424L86.31,407.91L96.15,431.3L105.67,423.21L115.51,374.46L125.35,511.1L144.39,511.1L153.91,478.13L163.74,461.56L173.26,459.92L183.1,452.47L192.94,437.46L202.46,447.36L212.3,459.49L231.65,400.24L241.49,491.41L260.21,491.41L269.73,457.79L279.57,436.99L289.09,426.58L298.93,431.42L308.76,420.54L318.28,420.73L328.12,439.17L337.64,387.86L347.48,359.06L357.32,451.28L366.2,451.28L376.04,451.28L385.56,418.9L395.4,395.66L404.92,388.31L414.75,390.5L424.59,385.82L434.11,370.31L443.95,389.85L453.47,372.33L463.31,378.66L473.14,446.6L482.03,446.6L491.87,446.6L501.39,428.69L511.22,391.39L520.74,394.06L530.58,376.97L540.42,389.64L549.94,383.5L559.77,393.12L569.29,377.57L579.13,345.99L588.97,492.53L598.17,492.53L608.01,492.53L617.53,417.9L636.89,393.36L646.72,349.3L656.56,353.82L666.08,346.04L675.92,350.41L685.44,294.07L695.28,266.93L705.11,350.65L723.84,350.65L733.36,301.08L743.19,300.83L752.71,269.47L762.55,267.68L772.39,245.84L781.91,224.67L791.75,234.92L801.27,188.71L811.1,160.46L820.94,287.82L829.83,287.82L839.66,287.82L849.18,290.3L859.02,226.14L868.54,190.31L878.38,182.86L888.21,214.23L897.73,199.8L907.57,245.03L917.09,250.53L926.93,238.99L936.77,297.27L945.65,297.27L955.49,297.27L965.01,255.2L974.85,268.34L984.37,263.83L994.2,268.6L1004.04,262.98L1013.56,239.81L1023.4,280.68L1032.92,246.84L1042.76,227.28L1052.59,290.22L1061.8,290.22L1071.63,290.22L1081.15,248.51L1090.99,230.36L1100.51,220.01L1110.35,232.89L1120.18,218.16L1129.7,227.11L1139.54,217.04L1149.06,211.49L1158.9,167.84L1168.74,262.64L1177.62,262.64L1187.46,262.64L1196.98,205.54L1206.82,204.59L1216.34,188.09L1226.17,194.34L1236.01,194.22L1245.53,181.6L1255.37,224.27L1274.73,128.18L1284.56,185.94L1303.29,185.94L1312.81,124.66L1322.64,92.9L1332.16,26.9L1342,53.59" style="vector-effect: none; fill: none; stroke: rgb(0, 0, 255); stroke-opacity: 1; stroke-width: 5px; opacity: 1;"/></g><g class="points"/><g class="text"/></g></g></g><g class="xy2" transform="translate(104,86)" clip-path="url(#clip99dbbexy2plot)"><g class="scatterlayer mlayer"><g class="trace scatter tracebd56de" style="stroke-miterlimit: 2; opacity: 1;"><g class="fills"/><g class="errorbars"/><g class="lines"><path class="js-line" d="M9.52,366.91L28.24,366.91L37.76,452.61L47.6,428.09L57.12,389.85L66.96,472.21L76.79,446.31L86.31,432.49L96.15,455.64L105.67,455.82L115.51,415.88L125.35,501.66L134.55,501.66L144.39,501.66L153.91,441.67L163.74,454.72L173.26,453.9L183.1,451.17L192.94,430.11L202.46,482.05L212.3,462.84L221.82,413.22L231.65,449.78L241.49,345.85L250.38,345.85L260.21,345.85L269.73,350.2L279.57,342.73L289.09,322.22L298.93,352.51L308.76,363.78L318.28,340.47L328.12,353.16L337.64,312.73L347.48,318.77L357.32,295.85L366.2,295.85L376.04,295.85L385.56,309.64L395.4,309.72L404.92,318.96L414.75,312.04L424.59,327.85L434.11,294.56L443.95,291.31L453.47,371.18L463.31,436.83L473.14,390.51L482.03,390.51L491.87,390.51L501.39,421.97L511.22,392.88L520.74,412.52L530.58,374.88L540.42,408.71L549.94,425.88L559.77,407.73L569.29,411.13L579.13,339.33L588.97,506.07L598.17,506.07L608.01,506.07L617.53,377.97L627.37,428.3L636.89,399.96L646.72,349.04L656.56,331.48L666.08,329.38L675.92,317.29L685.44,243.26L695.28,262.46L705.11,26.9L714,26.9L723.84,26.9L733.36,155.86L743.19,189.5L752.71,157.34L762.55,256.89L772.39,208.2L781.91,188.12L791.75,196.38L801.27,235.88L811.1,242.89L820.94,289.79L829.83,289.79L839.66,289.79L849.18,384.15L859.02,282.39L868.54,282.96L878.38,274.93L888.21,356.14L897.73,367.12L907.57,415.51L917.09,481.26L926.93,498.27L936.77,416.01L945.65,416.01L955.49,416.01L965.01,346.64L974.85,459.56L984.37,496.64L994.2,511.1L1004.04,467.19L1013.56,454.06L1023.4,452.25L1032.92,396.01L1042.76,384.81L1052.59,390.19L1061.8,390.19L1071.63,390.19L1081.15,391.61L1090.99,344.65L1100.51,336.52L1110.35,348.03L1120.18,335.15L1129.7,383.37L1139.54,304.03L1149.06,350.7L1158.9,319.17L1168.74,358.36L1177.62,358.36L1187.46,358.36L1196.98,339.59L1206.82,365.53L1216.34,357.79L1226.17,347.51L1236.01,368.78L1245.53,338.47L1255.37,411.16L1264.89,356.63L1274.73,351.82L1284.56,288.14L1293.45,288.14L1303.29,288.14L1312.81,293.75L1322.64,253L1332.16,193.18L1342,217.67" style="vector-effect: none; fill: none; stroke: rgb(255, 0, 0); stroke-opacity: 1; stroke-width: 5px; opacity: 1;"/></g><g class="points"/><g class="text"/></g></g></g></g><path class="xlines-above crisp" d="M0,0" style="fill: none;"/><path class="ylines-above crisp" d="M103.5,86V624" style="fill: none; stroke-width: 1px; stroke: rgb(170, 178, 187); stroke-opacity: 1;"/><g class="overlines-above"><path class="xy2-x crisp" d="M0,0" style="fill: none;"/><path class="xy2-y crisp" d="M1446.5,86V624" style="fill: none; stroke-width: 1px; stroke: rgb(170, 178, 187); stroke-opacity: 1;"/></g><g class="xaxislayer-above"><g class="xtick"><text text-anchor="middle" x="0" y="643" transform="translate(104,0)" style="font-family: 'Open Sans', verdana, arial, sans-serif; font-size: 18px; fill: rgb(68, 68, 68); fill-opacity: 1; white-space: pre; opacity: 1;">15-01</text></g><g class="xtick"><text text-anchor="middle" x="0" y="643" transform="translate(161.44,0)" style="font-family: 'Open Sans', verdana, arial, sans-serif; font-size: 18px; fill: rgb(68, 68, 68); fill-opacity: 1; white-space: pre; opacity: 1;">15-07</text></g><g class="xtick"><text text-anchor="middle" x="0" y="643" transform="translate(219.82999999999998,0)" style="font-family: 'Open Sans', verdana, arial, sans-serif; font-size: 18px; fill: rgb(68, 68, 68); fill-opacity: 1; white-space: pre; opacity: 1;">16-01</text></g><g class="xtick"><text text-anchor="middle" x="0" y="643" transform="translate(277.58000000000004,0)" style="font-family: 'Open Sans', verdana, arial, sans-serif; font-size: 18px; fill: rgb(68, 68, 68); fill-opacity: 1; white-space: pre; opacity: 1;">16-07</text></g><g class="xtick"><text text-anchor="middle" x="0" y="643" transform="translate(335.97,0)" style="font-family: 'Open Sans', verdana, arial, sans-serif; font-size: 18px; fill: rgb(68, 68, 68); fill-opacity: 1; white-space: pre; opacity: 1;">17-01</text></g><g class="xtick"><text text-anchor="middle" x="0" y="643" transform="translate(393.41,0)" style="font-family: 'Open Sans', verdana, arial, sans-serif; font-size: 18px; fill: rgb(68, 68, 68); fill-opacity: 1; white-space: pre; opacity: 1;">17-07</text></g><g class="xtick"><text text-anchor="middle" x="0" y="643" transform="translate(451.8,0)" style="font-family: 'Open Sans', verdana, arial, sans-serif; font-size: 18px; fill: rgb(68, 68, 68); fill-opacity: 1; white-space: pre; opacity: 1;">18-01</text></g><g class="xtick"><text text-anchor="middle" x="0" y="643" transform="translate(509.23,0)" style="font-family: 'Open Sans', verdana, arial, sans-serif; font-size: 18px; fill: rgb(68, 68, 68); fill-opacity: 1; white-space: pre; opacity: 1;">18-07</text></g><g class="xtick"><text text-anchor="middle" x="0" y="643" transform="translate(567.62,0)" style="font-family: 'Open Sans', verdana, arial, sans-serif; font-size: 18px; fill: rgb(68, 68, 68); fill-opacity: 1; white-space: pre; opacity: 1;">19-01</text></g><g class="xtick"><text text-anchor="middle" x="0" y="643" transform="translate(625.06,0)" style="font-family: 'Open Sans', verdana, arial, sans-serif; font-size: 18px; fill: rgb(68, 68, 68); fill-opacity: 1; white-space: pre; opacity: 1;">19-07</text></g><g class="xtick"><text text-anchor="middle" x="0" y="643" transform="translate(683.45,0)" style="font-family: 'Open Sans', verdana, arial, sans-serif; font-size: 18px; fill: rgb(68, 68, 68); fill-opacity: 1; white-space: pre; opacity: 1;">20-01</text></g><g class="xtick"><text text-anchor="middle" x="0" y="643" transform="translate(741.2,0)" style="font-family: 'Open Sans', verdana, arial, sans-serif; font-size: 18px; fill: rgb(68, 68, 68); fill-opacity: 1; white-space: pre; opacity: 1;">20-07</text></g><g class="xtick"><text text-anchor="middle" x="0" y="643" transform="translate(799.59,0)" style="font-family: 'Open Sans', verdana, arial, sans-serif; font-size: 18px; fill: rgb(68, 68, 68); fill-opacity: 1; white-space: pre; opacity: 1;">21-01</text></g><g class="xtick"><text text-anchor="middle" x="0" y="643" transform="translate(857.03,0)" style="font-family: 'Open Sans', verdana, arial, sans-serif; font-size: 18px; fill: rgb(68, 68, 68); fill-opacity: 1; white-space: pre; opacity: 1;">21-07</text></g><g class="xtick"><text text-anchor="middle" x="0" y="643" transform="translate(915.42,0)" style="font-family: 'Open Sans', verdana, arial, sans-serif; font-size: 18px; fill: rgb(68, 68, 68); fill-opacity: 1; white-space: pre; opacity: 1;">22-01</text></g><g class="xtick"><text text-anchor="middle" x="0" y="643" transform="translate(972.86,0)" style="font-family: 'Open Sans', verdana, arial, sans-serif; font-size: 18px; fill: rgb(68, 68, 68); fill-opacity: 1; white-space: pre; opacity: 1;">22-07</text></g><g class="xtick"><text text-anchor="middle" x="0" y="643" transform="translate(1031.25,0)" style="font-family: 'Open Sans', verdana, arial, sans-serif; font-size: 18px; fill: rgb(68, 68, 68); fill-opacity: 1; white-space: pre; opacity: 1;">23-01</text></g><g class="xtick"><text text-anchor="middle" x="0" y="643" transform="translate(1088.6799999999998,0)" style="font-family: 'Open Sans', verdana, arial, sans-serif; font-size: 18px; fill: rgb(68, 68, 68); fill-opacity: 1; white-space: pre; opacity: 1;">23-07</text></g><g class="xtick"><text text-anchor="middle" x="0" y="643" transform="translate(1147.07,0)" style="font-family: 'Open Sans', verdana, arial, sans-serif; font-size: 18px; fill: rgb(68, 68, 68); fill-opacity: 1; white-space: pre; opacity: 1;">24-01</text></g><g class="xtick"><text text-anchor="middle" x="0" y="643" transform="translate(1204.83,0)" style="font-family: 'Open Sans', verdana, arial, sans-serif; font-size: 18px; fill: rgb(68, 68, 68); fill-opacity: 1; white-space: pre; opacity: 1;">24-07</text></g><g class="xtick"><text text-anchor="middle" x="0" y="643" transform="translate(1263.22,0)" style="font-family: 'Open Sans', verdana, arial, sans-serif; font-size: 18px; fill: rgb(68, 68, 68); fill-opacity: 1; white-space: pre; opacity: 1;">25-01</text></g><g class="xtick"><text text-anchor="middle" x="0" y="643" transform="translate(1320.65,0)" style="font-family: 'Open Sans', verdana, arial, sans-serif; font-size: 18px; fill: rgb(68, 68, 68); fill-opacity: 1; white-space: pre; opacity: 1;">25-07</text></g><g class="xtick"><text text-anchor="middle" x="0" y="643" transform="translate(1379.04,0)" style="font-family: 'Open Sans', verdana, arial, sans-serif; font-size: 18px; fill: rgb(68, 68, 68); fill-opacity: 1; white-space: pre; opacity: 1;">26-01</text></g><g class="xtick"><text text-anchor="middle" x="0" y="643" transform="translate(1436.48,0)" style="font-family: 'Open Sans', verdana, arial, sans-serif; font-size: 18px; fill: rgb(68, 68, 68); fill-opacity: 1; white-space: pre; opacity: 1;">26-07</text></g></g><g class="yaxislayer-above"><path class="ytick ticks crisp" d="M103,0h-5" transform="translate(0,594.78)" style="stroke: rgb(170, 178, 187); stroke-opacity: 1; stroke-width: 1px;"/><path class="ytick ticks crisp" d="M103,0h-5" transform="translate(0,502.95)" style="stroke: rgb(170, 178, 187); stroke-opacity: 1; stroke-width: 1px;"/><path class="ytick ticks crisp" d="M103,0h-5" transform="translate(0,411.13)" style="stroke: rgb(170, 178, 187); stroke-opacity: 1; stroke-width: 1px;"/><path class="ytick ticks crisp" d="M103,0h-5" transform="translate(0,319.3)" style="stroke: rgb(170, 178, 187); stroke-opacity: 1; stroke-width: 1px;"/><path class="ytick ticks crisp" d="M103,0h-5" transform="translate(0,227.47)" style="stroke: rgb(170, 178, 187); stroke-opacity: 1; stroke-width: 1px;"/><path class="ytick ticks crisp" d="M103,0h-5" transform="translate(0,135.65)" style="stroke: rgb(170, 178, 187); stroke-opacity: 1; stroke-width: 1px;"/><g class="ytick"><text text-anchor="end" x="94" y="7" transform="translate(0,594.78)" style="font-family: 'Open Sans', verdana, arial, sans-serif; font-size: 20px; fill: rgb(0, 0, 255); fill-opacity: 1; white-space: pre; opacity: 1;">1,500</text></g><g class="ytick"><text text-anchor="end" x="94" y="7" style="font-family: 'Open Sans', verdana, arial, sans-serif; font-size: 20px; fill: rgb(0, 0, 255); fill-opacity: 1; white-space: pre; opacity: 1;" transform="translate(0,502.95)">2,000</text></g><g class="ytick"><text text-anchor="end" x="94" y="7" style="font-family: 'Open Sans', verdana, arial, sans-serif; font-size: 20px; fill: rgb(0, 0, 255); fill-opacity: 1; white-space: pre; opacity: 1;" transform="translate(0,411.13)">2,500</text></g><g class="ytick"><text text-anchor="end" x="94" y="7" style="font-family: 'Open Sans', verdana, arial, sans-serif; font-size: 20px; fill: rgb(0, 0, 255); fill-opacity: 1; white-space: pre; opacity: 1;" transform="translate(0,319.3)">3,000</text></g><g class="ytick"><text text-anchor="end" x="94" y="7" style="font-family: 'Open Sans', verdana, arial, sans-serif; font-size: 20px; fill: rgb(0, 0, 255); fill-opacity: 1; white-space: pre; opacity: 1;" transform="translate(0,227.47)">3,500</text></g><g class="ytick"><text text-anchor="end" x="94" y="7" style="font-family: 'Open Sans', verdana, arial, sans-serif; font-size: 20px; fill: rgb(0, 0, 255); fill-opacity: 1; white-space: pre; opacity: 1;" transform="translate(0,135.65)">4,000</text></g></g><g class="overaxes-above"><g class="xy2-x"/><g class="xy2-y"><path class="y2tick ticks crisp" d="M1447,0h5" transform="translate(0,564.3299999999999)" style="stroke: rgb(170, 178, 187); stroke-opacity: 1; stroke-width: 1px;"/><path class="y2tick ticks crisp" d="M1447,0h5" transform="translate(0,487.34)" style="stroke: rgb(170, 178, 187); stroke-opacity: 1; stroke-width: 1px;"/><path class="y2tick ticks crisp" d="M1447,0h5" transform="translate(0,410.35)" style="stroke: rgb(170, 178, 187); stroke-opacity: 1; stroke-width: 1px;"/><path class="y2tick ticks crisp" d="M1447,0h5" transform="translate(0,333.37)" style="stroke: rgb(170, 178, 187); stroke-opacity: 1; stroke-width: 1px;"/><path class="y2tick ticks crisp" d="M1447,0h5" transform="translate(0,256.38)" style="stroke: rgb(170, 178, 187); stroke-opacity: 1; stroke-width: 1px;"/><path class="y2tick ticks crisp" d="M1447,0h5" transform="translate(0,179.39)" style="stroke: rgb(170, 178, 187); stroke-opacity: 1; stroke-width: 1px;"/><path class="y2tick ticks crisp" d="M1447,0h5" transform="translate(0,102.4)" style="stroke: rgb(170, 178, 187); stroke-opacity: 1; stroke-width: 1px;"/><g class="y2tick"><text text-anchor="start" x="1456" y="7" transform="translate(0,564.3299999999999)" style="font-family: 'Open Sans', verdana, arial, sans-serif; font-size: 20px; fill: rgb(255, 0, 0); fill-opacity: 1; white-space: pre; opacity: 1;">−10</text></g><g class="y2tick"><text text-anchor="start" x="1456" y="7" style="font-family: 'Open Sans', verdana, arial, sans-serif; font-size: 20px; fill: rgb(255, 0, 0); fill-opacity: 1; white-space: pre; opacity: 1;" transform="translate(0,487.34)">0</text></g><g class="y2tick"><text text-anchor="start" x="1456" y="7" style="font-family: 'Open Sans', verdana, arial, sans-serif; font-size: 20px; fill: rgb(255, 0, 0); fill-opacity: 1; white-space: pre; opacity: 1;" transform="translate(0,410.35)">10</text></g><g class="y2tick"><text text-anchor="start" x="1456" y="7" style="font-family: 'Open Sans', verdana, arial, sans-serif; font-size: 20px; fill: rgb(255, 0, 0); fill-opacity: 1; white-space: pre; opacity: 1;" transform="translate(0,333.37)">20</text></g><g class="y2tick"><text text-anchor="start" x="1456" y="7" style="font-family: 'Open Sans', verdana, arial, sans-serif; font-size: 20px; fill: rgb(255, 0, 0); fill-opacity: 1; white-space: pre; opacity: 1;" transform="translate(0,256.38)">30</text></g><g class="y2tick"><text text-anchor="start" x="1456" y="7" style="font-family: 'Open Sans', verdana, arial, sans-serif; font-size: 20px; fill: rgb(255, 0, 0); fill-opacity: 1; white-space: pre; opacity: 1;" transform="translate(0,179.39)">40</text></g><g class="y2tick"><text text-anchor="start" x="1456" y="7" style="font-family: 'Open Sans', verdana, arial, sans-serif; font-size: 20px; fill: rgb(255, 0, 0); fill-opacity: 1; white-space: pre; opacity: 1;" transform="translate(0,102.4)">50</text></g></g></g></g><g class="subplot xy2"/></g><g class="polarlayer"/><g class="smithlayer"/><g class="ternarylayer"/><g class="geolayer"/><g class="funnelarealayer"/><g class="pielayer"/><g class="iciclelayer"/><g class="treemaplayer"/><g class="sunburstlayer"/><g class="glimages"/><defs id="topdefs-99dbbe"><g class="clips"/><clipPath id="legend99dbbe"><rect width="940" height="39" x="0" y="0"/></clipPath></defs><g class="layer-above"><g class="imagelayer"/><g class="shapelayer"/></g><g class="infolayer"><g class="legend" pointer-events="all" transform="translate(305,36.239999999999995)"><rect class="bg" shape-rendering="crispEdges" width="940" height="39" x="0" y="0" style="stroke: rgb(68, 68, 68); stroke-opacity: 1; fill: rgb(255, 255, 255); fill-opacity: 1; stroke-width: 0px;"/><g class="scrollbox" transform="" clip-path="url(#legend99dbbe)"><g class="groups"><g class="traces" transform="translate(0,19.5)" style="opacity: 1;"><text class="legendtext" text-anchor="start" x="40" y="7.8" style="font-family: 'Open Sans', verdana, arial, sans-serif; font-size: 20px; fill: rgb(68, 68, 68); fill-opacity: 1; white-space: pre;">出口总值(美元计价):当月值（春节平滑处理）</text><g class="layers" style="opacity: 1;"><g class="legendfill"/><g class="legendlines"><path class="js-line" d="M5,0h30" style="fill: none; stroke: rgb(0, 0, 255); stroke-opacity: 1; stroke-width: 5px;"/></g><g class="legendsymbols"><g class="legendpoints"/></g></g><rect class="legendtoggle" x="0" y="-14.5" width="456.96875" height="29" style="fill: rgb(0, 0, 0); fill-opacity: 0;"/></g><g class="traces" transform="translate(459.46875,19.5)" style="opacity: 1;"><text class="legendtext" text-anchor="start" x="40" y="7.8" style="font-family: 'Open Sans', verdana, arial, sans-serif; font-size: 20px; fill: rgb(68, 68, 68); fill-opacity: 1; white-space: pre;">出口总值(美元计价):当月同比（春节平滑处理）</text><g class="layers" style="opacity: 1;"><g class="legendfill"/><g class="legendlines"><path class="js-line" d="M5,0h30" style="fill: none; stroke: rgb(255, 0, 0); stroke-opacity: 1; stroke-width: 5px;"/></g><g class="legendsymbols"><g class="legendpoints"/></g></g><rect class="legendtoggle" x="0" y="-14.5" width="477.359375" height="29" style="fill: rgb(0, 0, 0); fill-opacity: 0;"/></g></g></g><rect class="scrollbar" rx="20" ry="3" width="0" height="0" x="0" y="0" style="fill: rgb(128, 139, 164); fill-opacity: 1;"/></g><g class="g-gtitle"/><g class="g-xtitle"/><g class="g-ytitle"><text class="ytitle" transform="rotate(-90,21.359375,355)" x="21.359375" y="355" text-anchor="middle" style="opacity: 1; font-family: 'Open Sans', verdana, arial, sans-serif; font-size: 20px; fill: rgb(0, 0, 255); fill-opacity: 1; white-space: pre;">亿美元</text></g><g class="g-y2title"><text class="y2title" transform="rotate(-90,1519.296875,355)" x="1519.296875" y="355" text-anchor="middle" style="opacity: 1; font-family: 'Open Sans', verdana, arial, sans-serif; font-size: 20px; fill: rgb(255, 0, 0); fill-opacity: 1; white-space: pre;">%</text></g></g></svg>