<svg class="main-svg" xmlns="http://www.w3.org/2000/svg" xmlns:xlink="http://www.w3.org/1999/xlink" width="1550" height="700" style="" viewBox="0 0 1550 700"><rect x="0" y="0" width="1550" height="700" style="fill: rgb(255, 255, 255); fill-opacity: 1;"/><defs id="defs-12c9f6"><g class="clips"><clipPath id="clip12c9f6xyplot" class="plotclip"><rect width="1347" height="528"/></clipPath><clipPath class="axesclip" id="clip12c9f6x"><rect x="115" y="0" width="1347" height="700"/></clipPath><clipPath class="axesclip" id="clip12c9f6y"><rect x="0" y="86" width="1550" height="528"/></clipPath><clipPath class="axesclip" id="clip12c9f6xy"><rect x="115" y="86" width="1347" height="528"/></clipPath></g><g class="gradients"/><g class="patterns"/></defs><g class="bglayer"/><g class="layer-below"><g class="imagelayer"/><g class="shapelayer"/></g><g class="cartesianlayer"><g class="subplot xy"><g class="layer-subplot"><g class="shapelayer"/><g class="imagelayer"/></g><g class="minor-gridlayer"><g class="x"/><g class="y"/></g><g class="gridlayer"><g class="x"/><g class="y"><path class="ygrid crisp" transform="translate(0,558.46)" d="M115,0h1347" style="stroke: rgb(232, 235, 239); stroke-opacity: 1; stroke-width: 1px;"/><path class="ygrid crisp" transform="translate(0,465.97)" d="M115,0h1347" style="stroke: rgb(232, 235, 239); stroke-opacity: 1; stroke-width: 1px;"/><path class="ygrid crisp" transform="translate(0,373.47)" d="M115,0h1347" style="stroke: rgb(232, 235, 239); stroke-opacity: 1; stroke-width: 1px;"/><path class="ygrid crisp" transform="translate(0,280.97)" d="M115,0h1347" style="stroke: rgb(232, 235, 239); stroke-opacity: 1; stroke-width: 1px;"/><path class="ygrid crisp" transform="translate(0,188.48000000000002)" d="M115,0h1347" style="stroke: rgb(232, 235, 239); stroke-opacity: 1; stroke-width: 1px;"/><path class="ygrid crisp" transform="translate(0,95.98)" d="M115,0h1347" style="stroke: rgb(232, 235, 239); stroke-opacity: 1; stroke-width: 1px;"/></g></g><g class="zerolinelayer"/><g class="layer-between"><g class="shapelayer"/><g class="imagelayer"/></g><path class="xlines-below"/><path class="ylines-below"/><g class="overlines-below"/><g class="xaxislayer-below"/><g class="yaxislayer-below"/><g class="overaxes-below"/><g class="overplot"><g class="xy" transform="translate(115,86)" clip-path="url(#clip12c9f6xyplot)"><g class="scatterlayer mlayer"><g class="trace scatter trace37e2bb" style="stroke-miterlimit: 2; opacity: 1;"><g class="fills"/><g class="errorbars"/><g class="lines"><path class="js-line" d="M14.76,204.69L18.45,192.66L22.14,186.65L29.52,193.59L40.59,188.96L44.28,196.13L47.98,187.57L55.36,202.61L66.43,206.77L70.12,212.55L73.81,206.77L77.5,201.91L81.19,180.41L95.95,185.49L99.64,178.33L103.33,163.06L107.02,178.33L118.09,195.9L121.78,186.65L125.47,177.17L129.16,186.88L132.85,191.27L143.93,183.64L147.62,179.48L151.31,168.38L158.69,180.41L199.28,147.34L202.97,137.63L206.66,142.95L210.35,141.56L225.12,137.4L228.81,156.36L232.5,160.75L236.19,169.31L239.88,156.36L250.95,153.58L254.64,143.41L258.33,140.4L262.02,145.26L265.71,159.59L276.78,154.74L280.47,157.98L284.16,176.48L287.85,190.81L291.54,194.97L302.61,188.27L306.3,184.57L309.99,175.09L313.68,173.7L317.38,171.39L328.45,170L332.14,179.02L335.83,175.78L339.52,162.6L343.21,155.89L357.97,152.2L361.66,149.42L365.35,142.25L369.04,157.28L380.11,158.21L383.8,160.75L387.49,157.98L391.18,157.74L394.87,165.84L405.95,145.03L409.64,145.72L413.33,138.55L420.71,145.95L431.78,138.32L435.47,130.46L439.16,119.36L442.85,121.44L464.99,113.12L468.68,105.02L472.37,110.34L483.44,108.72L487.13,114.04L490.82,87.45L494.52,113.35L498.21,121.67L509.28,116.82L512.97,114.5L516.66,123.75L520.35,132.77L524.04,129.3L535.11,127.45L538.8,131.85L542.49,130.46L546.18,109.42L549.87,109.42L560.94,99.47L564.63,94.62L568.32,94.85L572.01,105.95L575.7,108.95L586.78,122.6L590.47,121.44L594.16,133.46L597.85,126.99L601.54,122.6L612.61,113.58L616.3,96.23L619.99,107.57L623.68,112.42L638.44,109.65L642.13,117.51L645.82,120.75L649.51,163.29L653.2,170.46L664.27,164.45L667.96,160.29L675.35,168.61L679.04,160.06L693.8,150.11L697.49,149.65L701.18,152.43L704.87,153.12L715.94,152.89L719.63,145.72L723.32,139.94L727.01,153.12L730.7,157.74L741.77,149.42L745.46,157.28L749.15,151.96L752.84,147.34L756.53,159.59L767.61,159.83L771.3,162.14L774.99,177.86L778.68,177.17L782.37,177.63L793.44,181.33L797.13,163.29L800.82,160.52L804.51,153.58L808.2,153.35L819.27,153.12L822.96,150.58L826.65,147.11L830.34,108.26L834.03,112.19L845.1,101.09L848.79,100.86L852.48,92.53L856.18,81.2L859.87,79.35L870.94,74.27" style="vector-effect: none; fill: none; stroke: rgb(255, 0, 0); stroke-opacity: 1; stroke-width: 5px; opacity: 1;"/></g><g class="points"/><g class="text"/></g><g class="trace scatter trace0f4bb9" style="stroke-miterlimit: 2; opacity: 1;"><g class="fills"/><g class="errorbars"/><g class="lines"><path class="js-line" d="M3.69,122.13L7.38,156.13L18.45,160.29L22.14,165.84L25.83,158.21L29.52,152.89L33.21,149.65L44.28,147.8L47.98,132.08L51.67,129.07L55.36,122.83L59.05,126.76L70.12,129.53L73.81,130.69L77.5,128.61L81.19,134.39L84.88,128.84L95.95,127.91L129.16,145.72L136.55,125.6L147.62,124.68L151.31,130.92L155,110.57L158.69,120.75L162.38,105.48L173.45,111.5L177.14,108.49L180.83,112.65L184.52,104.79L188.21,109.65L199.28,107.33L202.97,118.67L206.66,120.98L210.35,117.05L214.04,115.89L228.81,113.81L232.5,117.97L236.19,131.38L239.88,122.6L243.57,131.15L254.64,144.1L258.33,142.02L262.02,137.4L265.71,145.26L269.4,140.4L280.47,152.43L284.16,150.35L287.85,154.97L291.54,146.65L295.23,151.5L306.3,144.33L309.99,144.33L313.68,153.12L317.38,149.88L321.07,163.99L332.14,169.08L335.83,167.92L339.52,161.44L343.21,181.33L357.97,214.4L361.66,244.46L365.35,272.21L369.04,242.38L372.73,241.45L383.8,237.52L387.49,254.63L391.18,258.1L394.87,257.87L398.56,260.18L409.64,250.7L413.33,262.73L417.02,255.33L420.71,253.48L424.4,254.17L435.47,253.71L442.85,261.8L464.99,249.78L468.68,250.01L472.37,254.63L476.06,258.8L487.13,240.07L490.82,241.45L494.52,230.35L501.9,245.62L512.97,240.99L516.66,244L520.35,249.55L524.04,250.01L527.73,262.73L538.8,268.97L542.49,264.58L546.18,296.49L549.87,293.02L553.56,314.99L568.32,312.91L572.01,303.43L575.7,308.51L579.39,303.66L590.47,300.19L597.85,292.56L601.54,306.66L605.23,293.25L616.3,291.63L619.99,293.48L623.68,287.01L627.37,286.08L631.06,292.1L642.13,289.78L645.82,302.96L649.51,298.11L653.2,285.62L656.89,285.39L667.96,288.16L671.65,283.08L675.35,281.69L679.04,286.78L682.73,287.24L693.8,288.86L697.49,288.16L701.18,285.39L704.87,268.74L708.56,270.82L719.63,270.82L723.32,269.2L727.01,264.35L734.39,250.01L745.46,246.08L749.15,238.45L752.84,240.99L756.53,229.89L760.22,214.17L771.3,238.22L774.99,240.76L778.68,243.77L782.37,261.57L786.06,273.13L797.13,270.59L800.82,262.27L804.51,218.33L811.89,215.79L822.96,206.31L826.65,201.45L830.34,204.22L834.03,211.86L837.72,199.37L848.79,203.3L852.48,200.76L856.18,210.01L859.87,207.92L863.56,212.32L874.63,199.37L878.32,200.29L882.01,206.07L885.7,197.52L889.39,201.45L904.15,200.99L907.84,200.29L911.53,196.82L915.22,179.94L926.29,182.95L929.98,197.75L933.67,195.9L937.36,199.37L941.05,203.3L952.13,195.21L955.82,193.12L959.51,200.52L963.2,214.86L966.89,216.48L977.96,212.78L981.65,216.94L985.34,212.55L989.03,214.86L992.72,219.49L1003.79,223.88L1007.48,239.84L1040.7,222.03L1044.39,226.65L1055.46,244L1059.15,248.39L1062.84,246.08L1066.53,245.85L1070.22,255.33L1081.29,250.01L1084.98,234.29L1088.67,234.29L1092.36,229.89L1096.05,225.73L1107.12,223.65L1110.81,224.57L1114.5,212.32L1118.19,222.72L1121.88,237.29L1132.96,236.83L1136.65,247L1140.34,248.16L1144.03,239.14L1147.72,241.45L1158.79,236.14L1162.48,236.83L1166.17,231.05L1169.86,223.19L1173.55,231.28L1184.62,226.65L1188.31,227.58L1192,220.87L1195.69,229.66L1199.38,230.12L1210.45,226.42L1214.15,235.44L1217.84,232.2L1221.53,228.27L1225.22,222.26L1236.29,229.66L1239.98,224.57L1247.36,239.37L1251.05,238.22L1262.12,238.22L1265.81,241.92L1269.5,231.28L1273.19,232.67L1276.88,230.59L1287.95,231.97L1291.64,233.36L1295.33,223.19L1299.02,226.42L1302.72,232.44L1313.79,231.74L1317.48,227.81L1321.17,211.16L1324.86,207.46L1328.55,205.15L1339.62,210.47L1343.31,210.24L1347,213.24" style="vector-effect: none; fill: none; stroke: rgb(0, 0, 255); stroke-opacity: 1; stroke-width: 4px; opacity: 1;"/></g><g class="points"/><g class="text"/></g><g class="trace scatter trace2a20f4" style="stroke-miterlimit: 2; opacity: 1;"><g class="fills"/><g class="errorbars"/><g class="lines"><path class="js-line" d="M3.69,277.99L7.38,282.15L11.07,293.25L14.76,294.41L25.83,311.98L29.52,313.14L33.21,311.98L36.9,301.58L40.59,298.11L51.67,297.41L55.36,293.25L59.05,297.88L62.74,293.95L66.43,293.25L77.5,308.51L81.19,308.98L84.88,304.58L88.57,298.57L92.26,302.96L107.02,310.13L110.71,309.44L114.4,315.91L118.09,320.31L129.16,315.91L132.85,317.3L136.55,322.62L140.24,316.84L180.83,312.21L184.52,308.05L188.21,308.28L191.9,298.57L195.59,296.26L206.66,299.03L210.35,289.09L214.04,289.09L217.73,289.32L221.42,291.4L232.5,294.41L236.19,297.65L239.88,296.49L243.57,300.19L247.26,275.91L258.33,283.77L265.71,278.22L269.4,269.9L273.09,250.93L284.16,218.1L287.85,222.95L291.54,223.19L298.92,263.88L309.99,267.12L313.68,262.73L317.38,274.52L321.07,257.18L324.76,256.72L335.83,251.4L339.52,259.03L343.21,263.88L361.66,248.16L365.35,234.75L369.04,237.99L372.73,245.15L376.42,255.33L387.49,254.63L391.18,263.65L398.56,260.18L402.25,261.34L413.33,268.28L417.02,274.52L420.71,277.53L424.4,285.39L428.09,278.45L439.16,277.53L442.85,285.39L464.99,280.53L468.68,274.29L472.37,275.68L476.06,276.37L479.75,281.46L490.82,268.74L494.52,273.13L498.21,267.58L501.9,254.63L505.59,255.79L516.66,247.47L520.35,253.94L524.04,248.85L527.73,247.47L531.42,240.07L542.49,242.84L546.18,233.13L553.56,210.24L557.25,225.04L568.32,234.52L572.01,240.99L575.7,238.91L579.39,215.32L583.08,194.05L597.85,216.48L601.54,203.99L605.23,218.79L608.92,230.35L619.99,246.54L623.68,245.15L627.37,240.53L631.06,237.29L634.75,245.85L645.82,245.62L649.51,227.81L656.89,244.69L660.58,243.3L671.65,240.76L675.35,234.52L679.04,236.37L682.73,245.39L686.42,260.65L697.49,259.26L701.18,254.4L704.87,258.57L708.56,255.79L712.25,260.18L723.32,270.13L727.01,265.97L730.7,263.42L734.39,259.03L749.15,262.03L752.84,270.36L756.53,262.27L760.22,275.91L763.92,270.59L774.99,271.52L778.68,281.23L782.37,273.6L786.06,275.45L789.75,269.67L800.82,271.05L804.51,212.78L811.89,203.76L815.58,198.44L826.65,197.06L830.34,194.74L834.03,203.99L837.72,193.82L852.48,187.81L856.18,184.11L859.87,181.56L863.56,185.26L867.25,178.79L878.32,174.63L882.01,171.85L885.7,160.06L889.39,165.38L893.08,165.38L907.84,181.79L911.53,191.51L915.22,186.65L918.91,169.77L929.98,154.28L933.67,158.9L937.36,160.52L941.05,146.65L944.75,147.57L963.2,115.66L966.89,101.55L970.58,108.26L981.65,127.45L985.34,92.53L989.03,88.6L992.72,82.13L996.41,76.81L1007.48,26.4L1037.01,61.32L1040.7,59.93L1044.39,100.4L1048.08,97.85L1059.15,94.15L1062.84,85.14L1066.53,113.58L1070.22,114.5L1073.91,88.84L1084.98,94.62L1088.67,84.9L1092.36,100.4L1096.05,94.62L1099.74,113.58L1110.81,106.64L1114.5,114.04L1118.19,109.65L1121.88,110.11L1136.65,118.2L1140.34,108.03L1144.03,96.7L1147.72,89.3L1151.41,86.06L1162.48,92.3L1166.17,106.87L1169.86,111.03L1173.55,120.05L1177.24,118.67L1188.31,129.76L1192,127.45L1195.69,113.35L1199.38,115.43L1203.07,133.7L1214.15,127.45L1217.84,126.99L1221.53,116.58L1225.22,96.7L1228.91,90.45L1239.98,92.77L1243.67,67.1L1247.36,70.8L1251.05,72.88L1254.74,54.84L1265.81,68.25L1269.5,77.97L1273.19,64.09L1276.88,67.79L1280.57,78.2L1291.64,80.28L1295.33,87.68L1299.02,110.57L1302.72,121.21L1306.41,118.2L1317.48,125.83L1321.17,119.82L1324.86,116.12L1328.55,125.37L1332.24,118.9L1343.31,107.8L1347,110.8" style="vector-effect: none; fill: none; stroke: rgb(0, 128, 0); stroke-opacity: 1; stroke-width: 4px; opacity: 1;"/></g><g class="points"/><g class="text"/></g><g class="trace scatter trace65cd40" style="stroke-miterlimit: 2; opacity: 1;"><g class="fills"/><g class="errorbars"/><g class="lines"><path class="js-line" d="M7.38,330.48L11.07,330.02L14.76,333.26L18.45,338.58L29.52,338.81L33.21,337.42L36.9,329.33L40.59,335.11L44.28,333.72L55.36,333.26L59.05,319.15L62.74,313.83L66.43,319.61L70.12,315.68L107.02,317.76L110.71,323.54L114.4,325.39L118.09,344.59L121.78,348.29L132.85,345.97L136.55,346.9L140.24,349.91L143.93,350.14L147.62,354.76L158.69,354.99L162.38,352.91L166.07,355.46L169.76,353.84L173.45,357.31L188.21,353.14L191.9,355.46L195.59,353.61L199.28,352.68L214.04,359.16L221.42,354.07L225.12,350.83L228.81,351.99L239.88,360.08L243.57,359.39L247.26,366.56L250.95,371.18L254.64,380.43L265.71,381.35L273.09,382.74L276.78,399.85L280.47,395L291.54,395.92L295.23,393.38L298.92,393.84L302.61,395L306.3,392.92L321.07,383.2L324.76,386.21L332.14,383.2L343.21,385.98L354.28,395.69L357.97,397.31L369.04,394.77L372.73,392.45L376.42,392.22L380.11,394.77L383.8,396.62L394.87,384.36L398.56,384.36L402.25,380.89L405.95,378.12L409.64,386.44L420.71,394.07L424.4,380.43L428.09,379.74L431.78,391.99L435.47,390.6L457.61,389.22L461.3,392.45L472.37,376.73L476.06,379.5L479.75,374.19L483.44,372.57L487.13,379.27L498.21,365.86L501.9,370.72L505.59,368.17L509.28,370.95L512.97,370.02L524.04,371.87L531.42,389.22L535.11,391.53L538.8,385.75L549.87,383.9L553.56,384.82L557.25,387.83L560.94,386.9L564.63,379.97L575.7,381.35L579.39,388.06L583.08,376.04L586.78,373.96L590.47,377.19L601.54,384.82L605.23,381.82L608.92,376.04L612.61,372.8L616.3,373.96L631.06,377.42L634.75,378.35L653.2,386.44L656.89,382.28L660.58,382.97L664.27,385.29L667.96,376.27L679.04,375.57L682.73,376.96L686.42,371.87L690.11,357.54L693.8,358.69L704.87,364.24L708.56,364.24L715.94,360.08L719.63,357.77L730.7,374.19L734.39,372.57L738.08,370.72L741.77,367.94L745.46,374.65L756.53,377.65L760.22,373.49L763.92,370.72L767.61,371.87L771.3,370.49L782.37,366.09L786.06,371.41L789.75,370.26L793.44,381.12L797.13,380.43L808.2,381.82L811.89,381.82L815.58,334.64L819.27,334.41L822.96,333.26L834.03,341.58L837.72,342.74L841.41,345.05L845.1,342.04L848.79,343.2L859.87,333.72L863.56,331.41L867.25,323.31L870.94,324.01L874.63,321.23L889.39,325.39L893.08,319.61L896.77,318.46L900.46,280.07L911.53,282.85L915.22,281.46L918.91,276.83L922.6,268.05L926.29,275.68L937.36,271.05L941.05,270.36L944.75,273.83L948.44,267.12L952.13,266.43L966.89,276.6L970.58,277.76L974.27,287.47L977.96,275.22L989.03,281.92L992.72,295.1L996.41,296.72L1000.1,290.71L1040.7,287.01L1044.39,289.32L1051.77,256.72L1055.46,248.62L1066.53,252.78L1070.22,251.63L1073.91,256.72L1077.6,259.26L1081.29,266.43L1092.36,265.27L1096.05,263.19L1099.74,253.02L1107.12,266.2L1118.19,277.99L1121.88,279.38L1125.58,279.15L1129.27,278.22L1132.96,276.14L1144.03,279.84L1147.72,285.39L1151.41,279.61L1155.1,278.22L1158.79,271.05L1169.86,272.9L1173.55,266.66L1177.24,264.58L1180.93,260.42L1184.62,278.22L1195.69,270.36L1199.38,283.31L1203.07,290.94L1206.76,291.86L1210.45,289.09L1221.53,290.48L1225.22,289.78L1228.91,304.81L1232.6,305.05L1236.29,315.45L1251.05,321.69L1254.74,318.46L1258.43,317.3L1262.12,305.28L1273.19,307.59L1276.88,306.43L1280.57,314.99L1284.26,311.98L1287.95,309.67L1299.02,305.74L1302.72,306.9L1306.41,300.65L1310.1,296.95L1313.79,291.63L1324.86,291.86L1328.55,294.87L1332.24,290.48L1335.93,290.71L1339.62,279.61" style="vector-effect: none; fill: none; stroke: rgb(148, 103, 189); stroke-opacity: 1; stroke-width: 3.2px; opacity: 1;"/></g><g class="points"/><g class="text"/></g><g class="trace scatter trace6f7e85" style="stroke-miterlimit: 2; opacity: 1;"><g class="fills"/><g class="errorbars"/><g class="lines"><path class="js-line" d="M11.07,255.33L14.76,252.78L18.45,262.27L22.14,245.39L33.21,238.91L36.9,240.3L40.59,237.06L44.28,244.69L47.98,232.67L62.74,248.62L66.43,245.85L70.12,244L73.81,259.03L84.88,271.75L88.57,273.13L92.26,270.82L95.95,282.61L99.64,280.53L136.55,265.73L140.24,257.41L143.93,257.18L147.62,251.63L151.31,265.04L162.38,259.03L166.07,271.05L169.76,274.29L173.45,285.16L177.14,273.13L188.21,274.75L191.9,287.93L195.59,286.78L199.28,284.23L202.97,289.55L214.04,293.48L221.42,300.19L225.12,290.25L228.81,288.4L232.5,300.19L243.57,297.41L247.26,304.12L250.95,278.68L254.64,285.39L258.33,295.56L273.09,317.53L276.78,318.23L280.47,320.31L284.16,312.91L295.23,310.83L298.92,314.76L302.61,317.07L306.3,312.21L309.99,310.13L321.07,314.76L324.76,317.07L328.45,306.66L335.83,295.33L354.28,294.64L357.97,308.05L361.66,308.51L376.42,308.51L380.11,317.76L383.8,312.44L387.49,317.99L398.56,311.75L402.25,310.83L405.95,315.22L409.64,321.23L413.33,333.03L424.4,349.21L428.09,350.6L431.78,347.59L435.47,351.76L439.16,337.65L461.3,338.11L464.99,345.51L476.06,359.85L479.75,344.59L483.44,343.89L487.13,346.21L490.82,341.35L501.9,330.48L505.59,330.48L509.28,334.64L512.97,330.48L516.66,329.79L531.42,332.79L535.11,327.01L538.8,321.93L542.49,323.54L553.56,327.01L557.25,323.08L560.94,318.92L564.63,316.14L579.39,317.53L583.08,324.7L586.78,321.23L590.47,315.45L594.16,316.14L605.23,334.64L608.92,339.5L612.61,342.04L616.3,341.12L619.99,344.36L631.06,342.51L634.75,348.52L638.44,356.84L642.13,345.05L645.82,342.97L656.89,340.66L660.58,336.96L664.27,339.04L667.96,339.5L671.65,333.95L682.73,330.02L686.42,338.34L690.11,349.67L693.8,348.98L697.49,348.75L708.56,350.14L712.25,348.29L715.94,371.18L719.63,377.42L723.32,393.61L734.39,381.59L738.08,382.74L741.77,385.05L745.46,391.07L749.15,395.46L760.22,374.19L763.92,373.03L767.61,374.19L771.3,373.26L774.99,369.33L789.75,376.5L793.44,376.73L797.13,381.82L800.82,376.27L811.89,368.17L815.58,369.56L819.27,337.42L822.96,334.41L826.65,333.26L837.72,341.35L841.41,342.51L845.1,338.81L848.79,340.43L852.48,347.59L863.56,339.5L867.25,339.73L870.94,347.36L874.63,349.44L878.32,348.98L889.39,344.36L893.08,350.6L896.77,353.84L900.46,364.01L904.15,367.02L915.22,361.24L918.91,365.63L922.6,367.94L926.29,364.24L929.98,362.39L944.75,347.59L948.44,346.21L952.13,338.11L955.82,335.11L966.89,339.04L970.58,327.48L974.27,323.08L977.96,324.24L981.65,329.79L992.72,333.49L996.41,316.14L1000.1,323.31L1003.79,320.54L1007.48,327.48L1044.39,331.64L1048.08,339.5L1051.77,341.58L1055.46,342.28L1059.15,341.58L1070.22,341.12L1073.91,347.59L1077.6,349.67L1081.29,362.62L1084.98,364.24L1096.05,365.86L1099.74,362.86L1103.43,371.41L1107.12,377.42L1110.81,387.6L1121.88,391.53L1125.58,371.18L1129.27,370.49L1132.96,371.64L1136.65,366.79L1147.72,367.02L1151.41,352.68L1155.1,351.52L1158.79,355.69L1162.48,352.68L1173.55,353.14L1177.24,349.91L1180.93,348.29L1184.62,342.51L1188.31,345.05L1199.38,363.55L1203.07,343.66L1206.76,343.43L1214.15,345.97L1225.22,340.43L1228.91,341.12L1232.6,344.82L1236.29,339.73L1239.98,336.03L1251.05,337.88L1254.74,336.73L1258.43,336.49L1262.12,326.09L1265.81,323.78L1276.88,335.11L1280.57,334.41L1284.26,327.24L1287.95,332.79L1291.64,329.56L1302.72,343.89L1306.41,346.67L1310.1,343.2L1313.79,347.82L1317.48,353.37L1328.55,350.14L1332.24,342.97L1335.93,342.28L1339.62,348.29L1343.31,347.82" style="vector-effect: none; fill: none; stroke: rgb(23, 190, 207); stroke-opacity: 1; stroke-width: 3.2px; opacity: 1;"/></g><g class="points"/><g class="text"/></g><g class="trace scatter trace2efeb2" style="stroke-miterlimit: 2; opacity: 1;"><g class="fills"/><g class="errorbars"/><g class="lines"><path class="js-line" d="M11.07,276.14L14.76,268.28L18.45,270.13L22.14,247L25.83,249.55L36.9,283.54L40.59,280.3L44.28,272.44L47.98,275.22L51.67,260.88L62.74,251.86L66.43,256.72L70.12,256.72L73.81,253.02L77.5,269.9L88.57,275.45L92.26,284.7L95.95,273.13L99.64,280.53L103.33,268.74L114.4,257.18L118.09,261.11L121.78,273.6L125.47,259.03L129.16,253.71L140.24,252.09L143.93,247.93L147.62,256.02L177.14,231.74L180.83,211.16L191.9,202.37L199.28,187.57L202.97,150.81L206.66,195.44L221.42,199.83L225.12,220.64L228.81,216.25L232.5,231.97L236.19,224.57L247.26,233.82L250.95,240.3L254.64,226.42L258.33,223.42L262.02,228.97L273.09,235.9L276.78,234.29L280.47,227.35L284.16,233.13L287.85,270.59L298.92,262.96L302.61,264.81L306.3,271.52L309.99,281.69L313.68,281.92L324.76,280.07L328.45,286.78L332.14,301.58L335.83,294.41L339.52,280.53L354.28,272.9L357.97,272.9L361.66,288.86L365.35,297.88L376.42,312.44L380.11,309.21L387.49,299.96L391.18,297.88L402.25,303.43L405.95,291.4L409.64,291.63L413.33,287.93L417.02,282.61L428.09,296.26L431.78,296.26L435.47,289.32L439.16,286.08L442.85,292.56L468.68,266.89L479.75,259.95L483.44,279.84L487.13,274.06L490.82,300.65L494.52,320.77L509.28,315.68L512.97,320.31L516.66,314.99L520.35,302.5L531.42,301.58L535.11,299.73L538.8,298.8L542.49,302.96L546.18,303.2L557.25,315.22L560.94,317.76L564.63,326.09L568.32,316.38L572.01,316.84L583.08,330.48L586.78,331.64L590.47,333.49L594.16,342.97L597.85,345.74L612.61,345.97L623.68,343.2L634.75,351.99L638.44,348.98L642.13,336.73L645.82,333.26L649.51,323.08L660.58,326.78L664.27,340.89L667.96,342.97L671.65,347.36L675.35,347.36L686.42,326.32L690.11,316.14L693.8,314.53L697.49,315.45L701.18,319.15L715.94,319.15L719.63,322.16L723.32,316.61L727.01,307.36L738.08,310.6L741.77,337.42L745.46,335.8L749.15,328.17L752.84,320.54L763.92,325.16L767.61,325.39L771.3,324.24L774.99,316.61L778.68,314.29L789.75,310.13L793.44,318.69L797.13,310.36L800.82,315.91L804.51,303.89L815.58,305.05L819.27,245.39L822.96,249.55L826.65,258.57L830.34,252.55L841.41,255.56L845.1,245.15L848.79,242.15L852.48,264.81L856.18,276.37L867.25,270.82L870.94,268.97L874.63,265.5L878.32,284.93L882.01,296.26L893.08,293.25L896.77,294.64L900.46,294.64L904.15,300.65L907.84,296.26L918.91,295.8L922.6,300.42L926.29,319.15L929.98,318.92L933.67,313.6L944.75,309.44L948.44,297.65L952.13,297.88L955.82,295.33L977.96,319.84L981.65,317.99L985.34,316.84L996.41,301.11L1000.1,294.87L1003.79,296.03L1007.48,278.68L1037.01,269.2L1048.08,251.63L1051.77,251.17L1055.46,267.35L1059.15,263.65L1062.84,252.78L1073.91,255.56L1077.6,229.43L1081.29,228.97L1084.98,230.35L1088.67,252.78L1099.74,259.49L1103.43,248.16L1107.12,247.47L1110.81,233.36L1114.5,246.77L1125.58,259.72L1129.27,269.43L1132.96,260.65L1136.65,293.25L1140.34,290.48L1151.41,288.16L1155.1,290.94L1158.79,283.77L1162.48,280.76L1166.17,269.2L1177.24,262.5L1180.93,255.33L1184.62,259.03L1188.31,269.43L1192,241.45L1203.07,219.49L1206.76,226.65L1210.45,219.49L1214.15,206.31L1217.84,230.12L1228.91,221.1L1232.6,244.23L1236.29,231.05L1239.98,253.02L1243.67,254.17L1254.74,258.33L1258.43,263.88L1262.12,258.8L1265.81,270.13L1269.5,264.81L1280.57,252.32L1284.26,252.78L1287.95,259.49L1291.64,253.02L1295.33,259.49L1306.41,277.76L1310.1,274.98L1317.48,263.65L1321.17,272.21L1332.24,266.43L1335.93,253.02L1339.62,249.55L1343.31,249.55L1347,247.93" style="vector-effect: none; fill: none; stroke: rgb(227, 119, 194); stroke-opacity: 1; stroke-width: 3.2px; opacity: 1;"/></g><g class="points"/><g class="text"/></g><g class="trace scatter trace84d112" style="stroke-miterlimit: 2; opacity: 1;"><g class="fills"/><g class="errorbars"/><g class="lines"><path class="js-line" d="M3.69,342.74L7.38,342.51L18.45,329.33L22.14,325.16L25.83,324.93L29.52,335.34L33.21,329.09L44.28,316.84L47.98,322.16L59.05,330.25L70.12,338.58L73.81,351.29L77.5,360.54L81.19,376.04L121.78,419.51L125.47,424.37L129.16,416.27L132.85,410.49L136.55,410.95L147.62,410.26L151.31,403.09L155,405.4L158.69,406.33L162.38,403.79L173.45,394.54L180.83,398.47L184.52,394.3L188.21,392.92L199.28,407.72L202.97,401.01L206.66,411.18L210.35,415.35L214.04,447.03L225.12,426.68L228.81,425.06L232.5,423.44L236.19,420.67L250.95,459.05L254.64,440.09L258.33,448.18L262.02,451.19L265.71,447.49L276.78,458.13L280.47,456.97L284.16,474.08L287.85,487.26L291.54,481.02L302.61,501.6L306.3,483.56L309.99,476.39L313.68,479.17L317.38,486.34L328.45,496.74L332.14,487.26L335.83,496.51L339.52,484.26L343.21,487.73L357.97,478.71L361.66,469.23L369.04,465.99L380.11,475.24L383.8,469.69L387.49,470.84L391.18,478.01L394.87,470.15L405.95,465.99L409.64,481.71L413.33,485.64L417.02,471.31L420.71,474.31L431.78,475.47L439.16,479.4L442.85,474.08L464.99,458.59L468.68,454.89L472.37,456.51L483.44,456.97L487.13,461.6L490.82,461.13L494.52,465.99L498.21,458.82L509.28,461.13L512.97,457.2L516.66,453.04L520.35,452.35L524.04,463.68L535.11,461.36L538.8,457.43L542.49,460.9L546.18,459.98L549.87,464.83L560.94,457.9L564.63,458.59L568.32,452.58L572.01,459.05L575.7,442.63L586.78,444.71L590.47,442.86L594.16,445.41L597.85,447.26L601.54,455.12L612.61,462.75L616.3,456.97L623.68,457.9L627.37,450.5L638.44,456.28L642.13,453.96L645.82,457.43L664.27,469.69L667.96,464.14L671.65,462.06L675.35,455.12L679.04,450.03L690.11,444.25L693.8,447.49L697.49,442.4L701.18,440.55L704.87,449.57L715.94,444.71L719.63,444.71L723.32,442.86L727.01,447.72L730.7,444.25L741.77,449.11L745.46,441.01L749.15,441.94L752.84,444.02L756.53,447.72L767.61,441.48L771.3,440.55L774.99,432.92L778.68,431.53L782.37,433.62L793.44,432.69L797.13,434.31L800.82,431.07L804.51,359.16L808.2,355.22L819.27,360.77L830.34,367.25L834.03,359.85L845.1,358L848.79,359.62L852.48,361.01L856.18,363.32L859.87,362.39L870.94,348.75L874.63,354.76L878.32,353.37L885.7,349.44L896.77,342.51L904.15,341.58L907.84,352.45L911.53,353.14L922.6,358.46L926.29,356.38L929.98,374.42L933.67,370.72L937.36,370.26L952.13,363.32L955.82,358L959.51,363.32L963.2,354.53L974.27,351.52L977.96,361.47L981.65,365.17L985.34,361.93L989.03,350.6L1000.1,348.75L1003.79,351.06L1007.48,363.78L1040.7,338.34L1051.77,326.09L1055.46,324.24L1059.15,317.07L1062.84,318.92L1066.53,295.56L1077.6,284L1081.29,255.56L1084.98,252.78L1088.67,247.7L1092.36,248.62L1103.43,225.04L1107.12,207.69L1110.81,170.23L1114.5,205.61L1118.19,209.77L1132.96,236.83L1136.65,248.39L1140.34,240.76L1144.03,253.02L1155.1,276.37L1158.79,291.17L1162.48,280.76L1166.17,264.81L1169.86,269.67L1180.93,257.18L1188.31,281.23L1192,271.98L1195.69,276.83L1206.76,259.26L1214.15,253.48L1217.84,260.88L1221.53,230.59L1232.6,234.29L1236.29,232.9L1239.98,205.38L1243.67,212.32L1247.36,246.77L1258.43,244L1262.12,259.49L1265.81,275.45L1269.5,277.76L1273.19,264.58L1284.26,257.18L1287.95,259.26L1291.64,269.9L1299.02,248.62L1310.1,242.84L1313.79,291.86L1317.48,282.61L1321.17,277.3L1324.86,279.15L1335.93,286.78L1339.62,300.65L1343.31,298.8L1347,292.1" style="vector-effect: none; fill: none; stroke: rgb(188, 189, 34); stroke-opacity: 1; stroke-width: 3.2px; opacity: 1;"/></g><g class="points"/><g class="text"/></g></g></g></g><path class="xlines-above crisp" d="M0,0" style="fill: none;"/><path class="ylines-above crisp" d="M114.5,86V614" style="fill: none; stroke-width: 1px; stroke: rgb(170, 178, 187); stroke-opacity: 1;"/><g class="overlines-above"/><g class="xaxislayer-above"><g class="xtick"><text text-anchor="end" x="0" y="630" transform="translate(115,0) rotate(-45,0,622.5)" style="font-family: 'Open Sans', verdana, arial, sans-serif; font-size: 15px; fill: rgb(68, 68, 68); fill-opacity: 1; white-space: pre; opacity: 1;">01-01</text></g><g class="xtick"><text text-anchor="end" x="0" y="630" style="font-family: 'Open Sans', verdana, arial, sans-serif; font-size: 15px; fill: rgb(68, 68, 68); fill-opacity: 1; white-space: pre; opacity: 1;" transform="translate(229.4,0) rotate(-45,0,622.5)">02-01</text></g><g class="xtick"><text text-anchor="end" x="0" y="630" style="font-family: 'Open Sans', verdana, arial, sans-serif; font-size: 15px; fill: rgb(68, 68, 68); fill-opacity: 1; white-space: pre; opacity: 1;" transform="translate(336.41999999999996,0) rotate(-45,0,622.5)">03-01</text></g><g class="xtick"><text text-anchor="end" x="0" y="630" style="font-family: 'Open Sans', verdana, arial, sans-serif; font-size: 15px; fill: rgb(68, 68, 68); fill-opacity: 1; white-space: pre; opacity: 1;" transform="translate(450.83,0) rotate(-45,0,622.5)">04-01</text></g><g class="xtick"><text text-anchor="end" x="0" y="630" style="font-family: 'Open Sans', verdana, arial, sans-serif; font-size: 15px; fill: rgb(68, 68, 68); fill-opacity: 1; white-space: pre; opacity: 1;" transform="translate(561.54,0) rotate(-45,0,622.5)">05-01</text></g><g class="xtick"><text text-anchor="end" x="0" y="630" style="font-family: 'Open Sans', verdana, arial, sans-serif; font-size: 15px; fill: rgb(68, 68, 68); fill-opacity: 1; white-space: pre; opacity: 1;" transform="translate(675.94,0) rotate(-45,0,622.5)">06-01</text></g><g class="xtick"><text text-anchor="end" x="0" y="630" style="font-family: 'Open Sans', verdana, arial, sans-serif; font-size: 15px; fill: rgb(68, 68, 68); fill-opacity: 1; white-space: pre; opacity: 1;" transform="translate(786.65,0) rotate(-45,0,622.5)">07-01</text></g><g class="xtick"><text text-anchor="end" x="0" y="630" style="font-family: 'Open Sans', verdana, arial, sans-serif; font-size: 15px; fill: rgb(68, 68, 68); fill-opacity: 1; white-space: pre; opacity: 1;" transform="translate(901.06,0) rotate(-45,0,622.5)">08-01</text></g><g class="xtick"><text text-anchor="end" x="0" y="630" style="font-family: 'Open Sans', verdana, arial, sans-serif; font-size: 15px; fill: rgb(68, 68, 68); fill-opacity: 1; white-space: pre; opacity: 1;" transform="translate(1015.46,0) rotate(-45,0,622.5)">09-01</text></g><g class="xtick"><text text-anchor="end" x="0" y="630" style="font-family: 'Open Sans', verdana, arial, sans-serif; font-size: 15px; fill: rgb(68, 68, 68); fill-opacity: 1; white-space: pre; opacity: 1;" transform="translate(1126.17,0) rotate(-45,0,622.5)">10-01</text></g><g class="xtick"><text text-anchor="end" x="0" y="630" style="font-family: 'Open Sans', verdana, arial, sans-serif; font-size: 15px; fill: rgb(68, 68, 68); fill-opacity: 1; white-space: pre; opacity: 1;" transform="translate(1240.58,0) rotate(-45,0,622.5)">11-01</text></g><g class="xtick"><text text-anchor="end" x="0" y="630" style="font-family: 'Open Sans', verdana, arial, sans-serif; font-size: 15px; fill: rgb(68, 68, 68); fill-opacity: 1; white-space: pre; opacity: 1;" transform="translate(1351.29,0) rotate(-45,0,622.5)">12-01</text></g></g><g class="yaxislayer-above"><path class="ytick ticks crisp" d="M114,0h-5" transform="translate(0,558.46)" style="stroke: rgb(170, 178, 187); stroke-opacity: 1; stroke-width: 1px;"/><path class="ytick ticks crisp" d="M114,0h-5" transform="translate(0,465.97)" style="stroke: rgb(170, 178, 187); stroke-opacity: 1; stroke-width: 1px;"/><path class="ytick ticks crisp" d="M114,0h-5" transform="translate(0,373.47)" style="stroke: rgb(170, 178, 187); stroke-opacity: 1; stroke-width: 1px;"/><path class="ytick ticks crisp" d="M114,0h-5" transform="translate(0,280.97)" style="stroke: rgb(170, 178, 187); stroke-opacity: 1; stroke-width: 1px;"/><path class="ytick ticks crisp" d="M114,0h-5" transform="translate(0,188.48000000000002)" style="stroke: rgb(170, 178, 187); stroke-opacity: 1; stroke-width: 1px;"/><path class="ytick ticks crisp" d="M114,0h-5" transform="translate(0,95.98)" style="stroke: rgb(170, 178, 187); stroke-opacity: 1; stroke-width: 1px;"/><g class="ytick"><text text-anchor="end" x="105" y="7" transform="translate(0,558.46)" style="font-family: 'Open Sans', verdana, arial, sans-serif; font-size: 20px; fill: rgb(0, 0, 255); fill-opacity: 1; white-space: pre; opacity: 1;">10,000</text></g><g class="ytick"><text text-anchor="end" x="105" y="7" style="font-family: 'Open Sans', verdana, arial, sans-serif; font-size: 20px; fill: rgb(0, 0, 255); fill-opacity: 1; white-space: pre; opacity: 1;" transform="translate(0,465.97)">12,000</text></g><g class="ytick"><text text-anchor="end" x="105" y="7" style="font-family: 'Open Sans', verdana, arial, sans-serif; font-size: 20px; fill: rgb(0, 0, 255); fill-opacity: 1; white-space: pre; opacity: 1;" transform="translate(0,373.47)">14,000</text></g><g class="ytick"><text text-anchor="end" x="105" y="7" style="font-family: 'Open Sans', verdana, arial, sans-serif; font-size: 20px; fill: rgb(0, 0, 255); fill-opacity: 1; white-space: pre; opacity: 1;" transform="translate(0,280.97)">16,000</text></g><g class="ytick"><text text-anchor="end" x="105" y="7" style="font-family: 'Open Sans', verdana, arial, sans-serif; font-size: 20px; fill: rgb(0, 0, 255); fill-opacity: 1; white-space: pre; opacity: 1;" transform="translate(0,188.48000000000002)">18,000</text></g><g class="ytick"><text text-anchor="end" x="105" y="7" style="font-family: 'Open Sans', verdana, arial, sans-serif; font-size: 20px; fill: rgb(0, 0, 255); fill-opacity: 1; white-space: pre; opacity: 1;" transform="translate(0,95.98)">20,000</text></g></g><g class="overaxes-above"/></g></g><g class="polarlayer"/><g class="smithlayer"/><g class="ternarylayer"/><g class="geolayer"/><g class="funnelarealayer"/><g class="pielayer"/><g class="iciclelayer"/><g class="treemaplayer"/><g class="sunburstlayer"/><g class="glimages"/><defs id="topdefs-12c9f6"><g class="clips"/><clipPath id="legend12c9f6"><rect width="910" height="41" x="0" y="0"/></clipPath></defs><g class="layer-above"><g class="imagelayer"/><g class="shapelayer"/></g><g class="infolayer"><g class="legend" pointer-events="all" transform="translate(333.5,34.44)"><rect class="bg" shape-rendering="crispEdges" width="910" height="41" x="0" y="0" style="stroke: rgb(68, 68, 68); stroke-opacity: 1; fill: rgb(255, 255, 255); fill-opacity: 1; stroke-width: 0px;"/><g class="scrollbox" transform="" clip-path="url(#legend12c9f6)"><g class="groups"><g class="traces" transform="translate(0,20.15)" style="opacity: 1;"><text class="legendtext" text-anchor="start" x="5" y="8.19" style="font-family: 'Open Sans', verdana, arial, sans-serif; font-size: 21px; fill: rgb(68, 68, 68); fill-opacity: 1; white-space: pre;">期货收盘价(活跃):天然橡胶(RU)</text><g class="layers"><g class="legendfill"/><g class="legendlines"/><g class="legendsymbols"><g class="legendpoints"/></g></g><rect class="legendtoggle" x="0" y="-15.15" width="324.859375" height="30.3" style="fill: rgb(0, 0, 0); fill-opacity: 0;"/></g><g class="traces" transform="translate(327.359375,16.25)" style="opacity: 1;"><text class="legendtext" text-anchor="start" x="40" y="5.85" style="font-family: 'Open Sans', verdana, arial, sans-serif; font-size: 15px; fill: rgb(68, 68, 68); fill-opacity: 1; white-space: pre;">2026</text><g class="layers" style="opacity: 1;"><g class="legendfill"/><g class="legendlines"><path class="js-line" d="M5,0h30" style="fill: none; stroke: rgb(255, 0, 0); stroke-opacity: 1; stroke-width: 5px;"/></g><g class="legendsymbols"><g class="legendpoints"/></g></g><rect class="legendtoggle" x="0" y="-11.25" width="80.65625" height="22.5" style="fill: rgb(0, 0, 0); fill-opacity: 0;"/></g><g class="traces" transform="translate(410.515625,16.25)" style="opacity: 1;"><text class="legendtext" text-anchor="start" x="40" y="5.85" style="font-family: 'Open Sans', verdana, arial, sans-serif; font-size: 15px; fill: rgb(68, 68, 68); fill-opacity: 1; white-space: pre;">2025</text><g class="layers" style="opacity: 1;"><g class="legendfill"/><g class="legendlines"><path class="js-line" d="M5,0h30" style="fill: none; stroke: rgb(0, 0, 255); stroke-opacity: 1; stroke-width: 4px;"/></g><g class="legendsymbols"><g class="legendpoints"/></g></g><rect class="legendtoggle" x="0" y="-11.25" width="80.65625" height="22.5" style="fill: rgb(0, 0, 0); fill-opacity: 0;"/></g><g class="traces" transform="translate(493.671875,16.25)" style="opacity: 1;"><text class="legendtext" text-anchor="start" x="40" y="5.85" style="font-family: 'Open Sans', verdana, arial, sans-serif; font-size: 15px; fill: rgb(68, 68, 68); fill-opacity: 1; white-space: pre;">2024</text><g class="layers" style="opacity: 1;"><g class="legendfill"/><g class="legendlines"><path class="js-line" d="M5,0h30" style="fill: none; stroke: rgb(0, 128, 0); stroke-opacity: 1; stroke-width: 4px;"/></g><g class="legendsymbols"><g class="legendpoints"/></g></g><rect class="legendtoggle" x="0" y="-11.25" width="80.65625" height="22.5" style="fill: rgb(0, 0, 0); fill-opacity: 0;"/></g><g class="traces" transform="translate(576.828125,16.25)" style="opacity: 1;"><text class="legendtext" text-anchor="start" x="40" y="5.85" style="font-family: 'Open Sans', verdana, arial, sans-serif; font-size: 15px; fill: rgb(68, 68, 68); fill-opacity: 1; white-space: pre;">2023</text><g class="layers" style="opacity: 1;"><g class="legendfill"/><g class="legendlines"><path class="js-line" d="M5,0h30" style="fill: none; stroke: rgb(148, 103, 189); stroke-opacity: 1; stroke-width: 3.2px;"/></g><g class="legendsymbols"><g class="legendpoints"/></g></g><rect class="legendtoggle" x="0" y="-11.25" width="80.65625" height="22.5" style="fill: rgb(0, 0, 0); fill-opacity: 0;"/></g><g class="traces" transform="translate(659.984375,16.25)" style="opacity: 1;"><text class="legendtext" text-anchor="start" x="40" y="5.85" style="font-family: 'Open Sans', verdana, arial, sans-serif; font-size: 15px; fill: rgb(68, 68, 68); fill-opacity: 1; white-space: pre;">2022</text><g class="layers" style="opacity: 1;"><g class="legendfill"/><g class="legendlines"><path class="js-line" d="M5,0h30" style="fill: none; stroke: rgb(23, 190, 207); stroke-opacity: 1; stroke-width: 3.2px;"/></g><g class="legendsymbols"><g class="legendpoints"/></g></g><rect class="legendtoggle" x="0" y="-11.25" width="80.65625" height="22.5" style="fill: rgb(0, 0, 0); fill-opacity: 0;"/></g><g class="traces" transform="translate(743.140625,16.25)" style="opacity: 1;"><text class="legendtext" text-anchor="start" x="40" y="5.85" style="font-family: 'Open Sans', verdana, arial, sans-serif; font-size: 15px; fill: rgb(68, 68, 68); fill-opacity: 1; white-space: pre;">2021</text><g class="layers" style="opacity: 1;"><g class="legendfill"/><g class="legendlines"><path class="js-line" d="M5,0h30" style="fill: none; stroke: rgb(227, 119, 194); stroke-opacity: 1; stroke-width: 3.2px;"/></g><g class="legendsymbols"><g class="legendpoints"/></g></g><rect class="legendtoggle" x="0" y="-11.25" width="80.65625" height="22.5" style="fill: rgb(0, 0, 0); fill-opacity: 0;"/></g><g class="traces" transform="translate(826.296875,16.25)" style="opacity: 1;"><text class="legendtext" text-anchor="start" x="40" y="5.85" style="font-family: 'Open Sans', verdana, arial, sans-serif; font-size: 15px; fill: rgb(68, 68, 68); fill-opacity: 1; white-space: pre;">2020</text><g class="layers" style="opacity: 1;"><g class="legendfill"/><g class="legendlines"><path class="js-line" d="M5,0h30" style="fill: none; stroke: rgb(188, 189, 34); stroke-opacity: 1; stroke-width: 3.2px;"/></g><g class="legendsymbols"><g class="legendpoints"/></g></g><rect class="legendtoggle" x="0" y="-11.25" width="80.65625" height="22.5" style="fill: rgb(0, 0, 0); fill-opacity: 0;"/></g></g></g><rect class="scrollbar" rx="20" ry="3" width="0" height="0" x="0" y="0" style="fill: rgb(128, 139, 164); fill-opacity: 1;"/></g><g class="g-gtitle"/><g class="g-xtitle"/><g class="g-ytitle" transform="translate(0.359375,0)"><text class="ytitle" transform="rotate(-90,19.640625,350)" x="19.640625" y="350" text-anchor="middle" style="opacity: 1; font-family: 'Open Sans', verdana, arial, sans-serif; font-size: 20px; fill: rgb(0, 0, 255); fill-opacity: 1; white-space: pre;">元/吨</text></g></g></svg>