<svg class="main-svg" xmlns="http://www.w3.org/2000/svg" xmlns:xlink="http://www.w3.org/1999/xlink" width="1550" height="700" style="" viewBox="0 0 1550 700"><rect x="0" y="0" width="1550" height="700" style="fill: rgb(255, 255, 255); fill-opacity: 1;"/><defs id="defs-cf9391"><g class="clips"><clipPath id="clipcf9391xyplot" class="plotclip"><rect width="1358" height="470"/></clipPath><clipPath class="axesclip" id="clipcf9391x"><rect x="104" y="0" width="1358" height="700"/></clipPath><clipPath class="axesclip" id="clipcf9391y"><rect x="0" y="144" width="1550" height="470"/></clipPath><clipPath class="axesclip" id="clipcf9391xy"><rect x="104" y="144" width="1358" height="470"/></clipPath></g><g class="gradients"/><g class="patterns"/></defs><g class="bglayer"/><g class="layer-below"><g class="imagelayer"/><g class="shapelayer"/></g><g class="cartesianlayer"><g class="subplot xy"><g class="layer-subplot"><g class="shapelayer"/><g class="imagelayer"/></g><g class="minor-gridlayer"><g class="x"/><g class="y"/></g><g class="gridlayer"><g class="x"/><g class="y"><path class="ygrid crisp" transform="translate(0,554.35)" d="M104,0h1358" style="stroke: rgb(232, 235, 239); stroke-opacity: 1; stroke-width: 1px;"/><path class="ygrid crisp" transform="translate(0,461.04)" d="M104,0h1358" style="stroke: rgb(232, 235, 239); stroke-opacity: 1; stroke-width: 1px;"/><path class="ygrid crisp" transform="translate(0,367.72)" d="M104,0h1358" style="stroke: rgb(232, 235, 239); stroke-opacity: 1; stroke-width: 1px;"/><path class="ygrid crisp" transform="translate(0,274.40999999999997)" d="M104,0h1358" style="stroke: rgb(232, 235, 239); stroke-opacity: 1; stroke-width: 1px;"/><path class="ygrid crisp" transform="translate(0,181.1)" d="M104,0h1358" style="stroke: rgb(232, 235, 239); stroke-opacity: 1; stroke-width: 1px;"/></g></g><g class="zerolinelayer"/><g class="layer-between"><g class="shapelayer"/><g class="imagelayer"/></g><path class="xlines-below"/><path class="ylines-below"/><g class="overlines-below"/><g class="xaxislayer-below"/><g class="yaxislayer-below"/><g class="overaxes-below"/><g class="overplot"><g class="xy" transform="translate(104,144)" clip-path="url(#clipcf9391xyplot)"><g class="scatterlayer mlayer"><g class="trace scatter traced2c786" style="stroke-miterlimit: 2; opacity: 1;"><g class="fills"/><g class="errorbars"/><g class="lines"><path class="js-line" d="M3.72,306.12L14.88,304.21L18.6,309.66L22.32,310.63L26.04,303.55L29.76,305.26L40.93,302.06L44.65,295.15L48.37,293.33L52.09,297.69L55.81,295.4L70.69,287.81L74.41,279.21L78.13,281.5L81.85,274.36L93.01,263.74L96.73,257.57L104.18,259.57L107.9,245.46L119.06,282.76L122.78,276.12L126.5,275.98L130.22,280.65L133.94,278.82L145.1,277.84L148.82,279.56L152.54,275.25L156.26,280.08L159.98,281.19L174.87,280.57L178.59,268.65L182.31,259.13L186.03,262.88L200.91,250.03L204.63,254.26L208.35,258.02L212.07,257.74L226.95,230.16L230.67,206.06L234.39,190.44L238.12,181.44L241.84,163.07L253,193.93L256.72,186.54L260.44,150.85L264.16,135.06L267.88,131.32L279.04,144.57L282.76,130.8L286.48,95.08L290.2,96.82L293.92,67.75L305.08,118.13L308.81,115.12L312.53,128.64L316.25,107.16L319.97,75.56L331.13,88.98L334.85,114.31L338.57,126.09L342.29,90.14L346.01,90.14L357.17,96.39L360.89,102.29L364.61,142.06L368.33,135.65L372.05,154.48L383.22,150.27L386.94,163.38L390.66,152.11L394.38,146.75L398.1,182.89L409.26,174.12L412.98,149.06L416.7,136.66L420.42,129.2L424.14,134.91L435.3,135.98L439.02,133.06L442.75,110.35L446.47,116.01L450.19,132.74L461.35,126.14L465.07,123.25L468.79,150.88L472.51,136.84L476.23,141.24L487.39,131.71L491.11,118.19L494.83,134.24L498.55,137.02L502.27,126.42L513.44,126.14L517.16,116.29L520.88,134.64L524.6,140.75L528.32,137.65L543.2,158.26L546.92,166.62L550.64,166.06L554.36,174.01L569.24,160.68L572.96,145.41L576.68,161.05L580.41,167.23L591.57,168.55L595.29,172.44L599.01,162L602.73,180.23L606.45,186.69L617.61,199.08L625.05,208.34L628.77,211.83L643.65,213.88L647.38,208.74L651.1,209.17L654.82,197.1L658.54,201.41L669.7,195.03L673.42,197.31L677.14,203.27L680.86,206.68L695.74,195.67L699.46,188.67L703.18,155.42L706.9,172.21L710.62,173.9L721.79,146.1L725.51,130.46L729.23,131.81L732.95,123.66L736.67,123.13L747.83,120.21L751.55,117.01L755.27,118.33L758.99,97.1L762.71,109.37L773.87,120.98L777.59,116.09L781.32,96.31L785.04,112.33L788.76,118.85L799.92,143.62L803.64,155.58L807.36,150.68L811.08,136.96L814.8,141.42L829.68,104.73L833.4,103.82L837.12,108.55L840.84,103.94L855.73,84.59L859.45,89.01L863.17,85.52L866.89,87.25L878.05,104.26L881.77,115.48L892.93,98.2L904.09,84.86L907.81,63.7L911.53,68.51L918.98,79.37L933.86,71.63L937.58,55.99L941.3,23.5L945.02,37.69L956.18,38.35" style="vector-effect: none; fill: none; stroke: rgb(255, 0, 0); stroke-opacity: 1; stroke-width: 5px; opacity: 1;"/></g><g class="points"/><g class="text"/></g><g class="trace scatter trace1242a2" style="stroke-miterlimit: 2; opacity: 1;"><g class="fills"/><g class="errorbars"/><g class="lines"><path class="js-line" d="M3.72,283.64L7.44,283.93L18.6,283.71L22.32,282.73L26.04,283.74L29.76,280.54L33.48,270.29L48.37,266.06L52.09,258.11L55.81,259.44L59.53,258.03L74.41,264.22L78.13,272.75L81.85,273.21L85.57,269.51L100.45,274.88L104.18,274.04L107.9,270.85L111.62,275.92L122.78,277.66L126.5,276.29L130.22,281.05L133.94,279.13L137.66,276.35L148.82,274.52L152.54,269.09L156.26,275.56L159.98,274.63L163.7,275.62L178.59,276.17L182.31,273.54L186.03,270.44L189.75,276.66L200.91,274.78L204.63,280.61L208.35,284.35L212.07,280.16L215.79,283.75L230.67,291.03L234.39,292.21L238.12,294.52L241.84,297.37L245.56,297.24L256.72,300.44L260.44,297.47L264.16,297.64L267.88,301.85L271.6,301.49L282.76,298.11L286.48,298.81L290.2,294.84L293.92,293.02L297.64,293.48L308.81,292.7L312.53,290.29L316.25,289.63L319.97,290.46L323.69,293.15L334.85,288.58L338.57,289.85L342.29,289.41L349.73,308.48L360.89,309.95L364.61,315.01L368.33,305.83L372.05,311.98L375.78,310.63L390.66,308.5L394.38,305.87L398.1,303.37L412.98,305.94L416.7,302.96L420.42,305.21L427.86,300.72L439.02,300.61L446.47,314.55L450.19,316.35L453.91,317.42L465.07,319.04L468.79,316.47L472.51,319.47L476.23,311.69L479.95,310.36L491.11,306.68L494.83,300.31L498.55,299.11L502.27,301.31L505.99,303.94L517.16,305.06L524.6,304.83L528.32,306.64L532.04,306.92L546.92,309.36L550.64,309.16L554.36,312.86L558.08,315.64L569.24,311.71L572.96,307.76L576.68,310.73L580.41,308.51L584.13,304.84L595.29,303.26L599.01,304.44L602.73,297.67L606.45,297.53L610.17,281.48L621.33,281.09L625.05,267.92L628.77,266.55L636.21,266.39L647.38,287.19L654.82,288.83L658.54,282.79L662.26,289.63L673.42,283.96L677.14,285.66L680.86,277.91L684.58,282.73L699.46,278.36L703.18,276.35L706.9,278.87L710.62,280.28L714.35,273.55L725.51,281.51L729.23,278.58L732.95,280.22L736.67,273.22L740.39,274.95L751.55,271.07L755.27,275.56L758.99,274.99L762.71,278.87L766.43,280L777.59,277.44L781.32,274.9L788.76,279.75L792.48,290.14L803.64,288.1L807.36,293.75L829.68,290.27L833.4,294.53L840.84,294.74L844.56,295.56L859.45,293.08L863.17,291.29L866.89,286.76L870.61,288.2L881.77,284.42L885.49,290.36L889.21,290.6L892.93,289.52L896.65,291.64L911.53,282.36L915.25,285.12L918.98,286.44L922.7,289.94L933.86,287.16L941.3,285.69L945.02,291.04L959.9,286.34L963.62,280.2L967.34,284.37L971.06,284.9L974.78,288.84L985.95,289.37L997.11,277.09L1000.83,277.6L1019.43,288.91L1023.15,294.05L1026.87,295.12L1038.03,293.56L1041.75,291.26L1045.47,290.27L1049.19,291.24L1052.92,299.03L1064.08,293.6L1067.8,298.3L1071.52,298.5L1075.24,302.67L1078.96,300.27L1090.12,299.99L1093.84,297.86L1097.56,290.37L1101.28,281.27L1105,279.99L1116.16,276.08L1119.88,281.04L1123.61,277.58L1127.33,278.34L1131.05,277.18L1142.21,279.13L1145.93,275.3L1149.65,276.97L1153.37,270.72L1157.09,272.04L1168.25,270.84L1171.97,262.75L1175.69,273.06L1179.41,273.4L1183.13,268L1194.3,266.57L1198.02,252.18L1201.74,255.52L1205.46,268.23L1209.18,276.09L1220.34,277.75L1224.06,283.72L1227.78,286.67L1235.22,286.74L1246.38,284.73L1250.1,289.13L1253.82,289.15L1257.55,287.31L1261.27,282.85L1272.43,289.35L1276.15,291.97L1279.87,290.64L1287.31,297.94L1298.47,300.3L1302.19,305.35L1305.91,300.32L1309.63,304.7L1313.35,305.49L1324.52,302.59L1328.24,299.14L1339.4,306.83L1350.56,304.93L1354.28,302.88L1358,305.83" style="vector-effect: none; fill: none; stroke: rgb(255, 200, 0); stroke-opacity: 1; stroke-width: 4px; opacity: 1;"/></g><g class="points"/><g class="text"/></g><g class="trace scatter trace3d10e4" style="stroke-miterlimit: 2; opacity: 1;"><g class="fills"/><g class="errorbars"/><g class="lines"><path class="js-line" d="M3.72,267.53L7.44,260.73L11.16,261.63L14.88,259.23L26.04,262.12L29.76,256.57L33.48,260.63L37.21,252.62L40.93,253.99L59.53,256.63L63.25,252.65L66.97,254.88L78.13,252.18L85.57,252.91L89.29,242.94L93.01,235.7L104.18,239.03L107.9,241.76L111.62,242.96L119.06,254.3L130.22,249.17L133.94,246.5L137.66,240.35L145.1,228.57L156.26,230.14L159.98,233.23L163.7,242.38L167.42,240.9L171.15,241.48L189.75,249.88L193.47,247.09L197.19,252.36L208.35,245.06L212.07,248.48L215.79,256.32L223.23,251.78L234.39,256.75L238.12,261.08L241.84,255.51L245.56,251.75L249.28,258.27L260.44,256.28L264.16,258.39L267.88,252.65L271.6,251.28L275.32,249.39L286.48,244.85L290.2,246.84L293.92,252.46L297.64,255.27L301.36,255.53L312.53,253.37L316.25,260.05L319.97,261.23L323.69,259.45L338.57,257.72L342.29,249.39L349.73,246.38L353.45,246.69L364.61,248.98L368.33,253.98L372.05,250.26L375.78,254.52L379.5,253.43L390.66,255.47L394.38,256.24L398.1,263.08L401.82,267.27L405.54,265.99L420.42,263.53L424.14,265.21L431.58,265.83L442.75,266.95L446.47,268.99L450.19,274.46L457.63,275.77L468.79,273.45L472.51,273.93L476.23,271.73L479.95,272.03L483.67,276.64L494.83,275.99L498.55,277L502.27,277.11L505.99,274.83L509.72,271.42L520.88,272.26L532.04,278.03L535.76,278.27L550.64,272.31L554.36,276.58L558.08,282.84L561.8,283.14L572.96,290.26L576.68,290.79L580.41,288.15L584.13,283.42L587.85,283.57L599.01,277.57L606.45,276.04L610.17,271.78L613.89,272.83L625.05,271.5L628.77,267.69L636.21,267.92L639.93,271.37L651.1,268.08L654.82,269.35L658.54,267.07L662.26,265.8L665.98,268.92L680.86,257.74L684.58,258.62L692.02,259.18L703.18,263.57L706.9,267.47L710.62,268.12L714.35,268.24L718.07,269.67L729.23,269.23L732.95,273.69L736.67,270.62L740.39,272.44L744.11,277.86L755.27,276.72L758.99,277.41L762.71,275.46L766.43,272.71L770.15,278.57L781.32,281.76L785.04,284.48L788.76,278.27L792.48,277.55L796.2,286.07L807.36,286.91L811.08,289.61L814.8,283.68L818.52,283.52L822.24,285.08L833.4,279.45L837.12,279.86L840.84,282.7L844.56,281.95L848.28,286.13L859.45,292.1L863.17,291.78L866.89,293.76L870.61,291.82L874.33,288.14L885.49,284.81L889.21,290.01L892.93,295.62L896.65,289.41L900.37,293.69L911.53,290.63L915.25,297.8L918.98,302.06L922.7,300.76L926.42,305.44L937.58,302.95L941.3,310.57L948.74,305.49L952.46,308.73L963.62,307.73L967.34,303.62L971.06,304.88L974.78,300.83L978.5,300.76L989.67,302.24L993.39,299.67L997.11,301.57L1000.83,304.42L1004.55,303.27L1015.71,304.63L1019.43,298.67L1023.15,298.19L1026.87,289.15L1041.75,280.29L1045.47,288.09L1049.19,290.61L1052.92,284.61L1056.64,285.32L1067.8,296.39L1075.24,300.02L1078.96,298.94L1082.68,302.7L1093.84,300.27L1097.56,295.65L1101.28,295.73L1105,297.3L1108.72,294.99L1119.88,303.72L1123.61,303.38L1127.33,297.79L1131.05,296.43L1134.77,295.99L1145.93,290.3L1149.65,289.15L1153.37,291.81L1157.09,290.85L1160.81,294.71L1171.97,298.37L1175.69,297.75L1179.41,297.06L1183.13,297.48L1186.85,300.92L1198.02,293.24L1201.74,295.11L1205.46,295.47L1209.18,291.87L1212.9,291.56L1227.78,294.51L1231.5,298.22L1238.94,299.75L1250.1,300.27L1253.82,297.07L1257.55,301.06L1261.27,302.27L1264.99,304.81L1276.15,300.31L1279.87,299.93L1283.59,295.71L1287.31,295.02L1291.03,292.18L1302.19,292.77L1305.91,295.16L1309.63,294.23L1313.35,295.51L1317.07,294.92L1328.24,294.76L1331.96,296.12L1339.4,297.71L1343.12,294.9L1358,287.27" style="vector-effect: none; fill: none; stroke: rgb(0, 128, 0); stroke-opacity: 1; stroke-width: 4px; opacity: 1;"/></g><g class="points"/><g class="text"/></g><g class="trace scatter tracee52e3b" style="stroke-miterlimit: 2; opacity: 1;"><g class="fills"/><g class="errorbars"/><g class="lines"><path class="js-line" d="M7.44,215.54L11.16,223.28L14.88,225.58L18.6,222.68L29.76,220.37L37.21,205.97L40.93,203.28L44.65,198.88L59.53,198.44L63.25,200.6L66.97,187.97L70.69,180.24L81.85,172.64L89.29,190.2L93.01,186.51L96.73,198.95L107.9,212.96L111.62,205.1L115.34,226.77L119.06,232.39L122.78,243.62L133.94,244.94L137.66,232.31L141.38,232.89L145.1,240.45L148.82,235.87L159.98,234.58L163.7,231.47L167.42,238.49L174.87,248.97L189.75,242.63L193.47,251.4L197.19,249.64L200.91,242.7L212.07,240.46L215.79,240.25L223.23,235.73L226.95,237.13L230.67,232.63L241.84,233.62L245.56,243.41L249.28,247.99L253,254.79L256.72,244.12L267.88,244.35L271.6,249.16L275.32,260.5L282.76,253.67L293.92,253.02L297.64,252.31L301.36,250.18L305.08,253.41L308.81,250.87L319.97,245.62L323.69,246.48L327.41,257.17L331.13,257.15L334.85,253.61L346.01,254.75L349.73,252.52L353.45,249.01L357.17,255.39L372.05,253.17L375.78,254.52L379.5,251.62L383.22,253.48L386.94,256.63L398.1,258.98L401.82,261.39L409.26,271.07L412.98,270.46L424.14,268.34L427.86,274.98L431.58,281.79L435.3,283.63L439.02,282.16L450.19,281.53L457.63,297.23L461.35,294.93L465.07,286.71L476.23,283.4L479.95,280.36L483.67,280.17L487.39,283.75L491.11,288.87L502.27,281.41L505.99,283.95L509.72,277.7L513.44,279.06L517.16,282.83L528.32,282.67L532.04,281.64L535.76,278.8L539.48,285.17L543.2,282.02L561.8,293.13L565.52,287.51L569.24,283.22L580.41,282.14L584.13,283.87L587.85,279.24L595.29,283.05L606.45,287.52L610.17,280.36L613.89,283.04L617.61,272.22L621.33,265.71L636.21,273.66L639.93,264.58L643.65,273.46L647.38,277.85L658.54,274.67L662.26,277.85L665.98,279.41L669.7,277.87L673.42,274.74L684.58,280.47L692.02,270.7L695.74,271.65L699.46,264.73L710.62,265.26L718.07,260.39L721.79,259.33L725.51,261.62L736.67,264.29L740.39,260.07L744.11,257.21L747.83,254.4L751.55,248.1L762.71,244.45L766.43,245.02L773.87,232.12L777.59,227.23L788.76,223.34L792.48,218.36L796.2,222.27L799.92,215.49L803.64,217.78L814.8,220.87L818.52,215.7L822.24,204.13L825.96,209.49L829.68,213.05L840.84,216.54L844.56,220.42L848.28,221.62L852.01,214.76L855.73,208.2L866.89,211.78L870.61,210.55L874.33,212.76L878.05,209.7L881.77,194.7L892.93,206.03L896.65,205.25L900.37,214.39L904.09,209.53L907.81,212.51L922.7,202.68L926.42,205.44L930.14,202.88L933.86,196.86L945.02,190.34L948.74,193.15L952.46,182.69L956.18,179.29L959.9,186.57L971.06,195.67L974.78,186L978.5,194.61L982.22,189.13L997.11,199.27L1000.83,199.89L1004.55,194.65L1008.27,192.39L1011.99,190.89L1023.15,202.74L1026.87,206.08L1030.59,221.72L1034.31,234.95L1038.03,232.29L1049.19,225.72L1052.92,221.78L1056.64,223.35L1060.36,219.47L1064.08,204.09L1075.24,209.13L1078.96,207.65L1082.68,210.81L1086.4,207.23L1090.12,207.86L1101.28,213.91L1105,220.09L1108.72,221.69L1112.44,219.87L1116.16,220.22L1127.33,225.93L1131.05,224.73L1134.77,226.4L1138.49,222.26L1142.21,231.38L1153.37,227.79L1157.09,240.57L1160.81,246.98L1164.53,250.31L1179.41,238.59L1183.13,239.24L1186.85,236.24L1190.58,247.06L1194.3,245.86L1205.46,237.84L1209.18,230.27L1212.9,235.38L1220.34,240.24L1231.5,238.78L1235.22,234.64L1238.94,235.18L1242.66,239.14L1246.38,254.53L1257.55,255.15L1261.27,258.17L1264.99,263.23L1268.71,264.65L1272.43,262.46L1283.59,260.4L1287.31,268.92L1291.03,264.22L1294.75,261.94L1298.47,258.62L1309.63,253.42L1313.35,249.2L1317.07,251.89L1320.79,251.19L1324.52,256.08L1339.4,255.22L1343.12,259.21L1346.84,264.62L1350.56,267.22" style="vector-effect: none; fill: none; stroke: rgb(148, 103, 189); stroke-opacity: 1; stroke-width: 3.2px; opacity: 1;"/></g><g class="points"/><g class="text"/></g><g class="trace scatter trace79f57c" style="stroke-miterlimit: 2; opacity: 1;"><g class="fills"/><g class="errorbars"/><g class="lines"><path class="js-line" d="M11.16,367.88L14.88,362.11L18.6,361.29L22.32,359.99L26.04,355.67L37.21,356.94L40.93,354.39L44.65,354.64L48.37,352.45L52.09,355.67L66.97,354.47L70.69,355.24L74.41,354.57L78.13,357.3L89.29,354.5L96.73,353.72L100.45,354.98L104.18,354.44L115.34,349.92L119.06,346.25L122.78,345.53L126.5,343.99L130.22,343.51L145.1,339.81L148.82,339.71L152.54,341.49L156.26,338.13L171.15,334.16L174.87,330.83L178.59,333.26L182.31,334.44L193.47,328.82L197.19,330.08L200.91,325.33L204.63,325.64L208.35,331.14L223.23,335.03L226.95,335.33L230.67,332.93L234.39,326.55L238.12,321.88L249.28,326.14L253,326.54L256.72,324.86L260.44,321L264.16,320.21L275.32,322.21L279.04,323.1L282.76,326.53L286.48,338.16L290.2,333.46L301.36,333.74L305.08,341.99L308.81,333.91L312.53,340.65L316.25,334.9L327.41,334.75L334.85,338.45L338.57,333.16L353.45,338.06L357.17,336.74L364.61,334.92L368.33,334.87L379.5,335.01L383.22,333.55L386.94,328.35L390.66,326.67L394.38,327.18L405.54,326.74L412.98,331.41L416.7,329.75L420.42,329.07L431.58,328.24L439.02,323.04L442.75,321.03L446.47,324.43L457.63,321.25L461.35,316.04L465.07,317.67L468.79,317.65L472.51,316.05L483.67,315.3L487.39,313.01L491.11,310.64L494.83,317.38L498.55,313.56L509.72,311.37L513.44,312.53L517.16,316.48L520.88,321.1L524.6,317.4L535.76,312.86L539.48,313.84L546.92,311.58L550.64,313.42L565.52,309.58L569.24,307.27L572.96,307.37L576.68,306.39L587.85,306.45L591.57,304.78L595.29,305.57L599.01,303.96L602.73,306.26L613.89,306.35L617.61,306.32L621.33,308.41L625.05,310.65L628.77,309.4L639.93,305.38L643.65,302.51L651.1,301.63L654.82,303.31L665.98,305.95L669.7,304.86L673.42,305.28L677.14,303.25L680.86,300.32L695.74,305.25L699.46,308.93L703.18,305.01L706.9,302.79L718.07,302.74L721.79,299.97L725.51,304.07L729.23,307.31L732.95,307.55L744.11,318.19L747.83,317.81L751.55,309.24L755.27,305.06L770.15,302.32L773.87,303.08L777.59,302.7L781.32,299.6L785.04,299.26L796.2,303.68L799.92,305.84L803.64,310.28L807.36,307.67L811.08,310.21L822.24,312.68L825.96,308.78L829.68,306.75L833.4,307.66L837.12,310.71L848.28,312.13L852.01,313.97L855.73,317.19L859.45,320.15L863.17,326.69L874.33,316.72L878.05,310.73L881.77,306.64L885.49,309.68L889.21,306.98L900.37,304.15L904.09,304.23L907.81,306.02L911.53,301.89L915.25,302.84L930.14,305.6L933.86,304.48L937.58,306.94L941.3,303.79L956.18,301.36L959.9,298.07L963.62,297.37L967.34,297.78L978.5,301.59L982.22,300.02L985.95,297.94L989.67,294.17L993.39,292.2L1004.55,289.44L1008.27,292.12L1011.99,287.55L1019.43,281.75L1030.59,276.34L1034.31,271.06L1038.03,276.59L1041.75,273.1L1045.47,272.87L1056.64,269.1L1060.36,269.65L1064.08,267.82L1067.8,264.12L1071.52,263.5L1082.68,267.05L1090.12,261.89L1093.84,265.61L1097.56,266.14L1108.72,264.45L1112.44,264L1116.16,270.03L1119.88,269.79L1123.61,271.56L1134.77,270.25L1138.49,271.7L1142.21,278.02L1145.93,278.27L1149.65,275.84L1160.81,272.98L1164.53,268.95L1168.25,275.57L1171.97,276.4L1175.69,279.8L1186.85,279.61L1190.58,277.02L1194.3,282.48L1198.02,281.44L1201.74,290.59L1212.9,286.94L1216.62,281.07L1220.34,282L1227.78,308.41L1238.94,303.04L1242.66,311.22L1246.38,309.8L1250.1,306.46L1253.82,307.98L1264.99,299.83L1268.71,295.68L1272.43,292.06L1276.15,295.01L1279.87,292.67L1291.03,295.33L1294.75,297.47L1298.47,295.01L1302.19,293.29L1305.91,297.27L1317.07,299.18L1320.79,293.11L1324.52,288.02L1328.24,286.24L1354.28,281.57L1358,286.4" style="vector-effect: none; fill: none; stroke: rgb(23, 190, 207); stroke-opacity: 1; stroke-width: 3.2px; opacity: 1;"/></g><g class="points"/><g class="text"/></g><g class="trace scatter trace0aa153" style="stroke-miterlimit: 2; opacity: 1;"><g class="fills"/><g class="errorbars"/><g class="lines"><path class="js-line" d="M3.72,314.72L7.44,311.48L18.6,314.85L22.32,314.05L26.04,320.02L33.48,322.92L44.65,326.18L48.37,326L52.09,327.67L55.81,329.65L59.53,329.4L74.41,333.13L78.13,336.73L81.85,336.27L85.57,341.65L96.73,347.79L100.45,342.64L107.9,348.17L111.62,352L122.78,356.95L126.5,355.25L130.22,348.95L133.94,347.72L137.66,350.08L148.82,353.07L152.54,351.56L156.26,346.65L159.98,346.82L163.7,344.97L178.59,347.72L182.31,344.09L186.03,346.17L189.75,346.48L200.91,353.48L204.63,357.39L208.35,363.53L212.07,366.26L215.79,365.07L226.95,359.05L230.67,360.68L234.39,359.65L238.12,364.49L241.84,373.8L253,396.61L256.72,385.82L260.44,387.77L264.16,397.6L267.88,394.77L279.04,406.61L282.76,406.59L286.48,410.87L290.2,406.85L293.92,409.62L305.08,406.49L308.81,402.51L312.53,402.1L316.25,403.57L319.97,404.16L331.13,408.11L334.85,410.36L338.57,415.44L342.29,410.98L346.01,400.08L357.17,404.64L360.89,407.26L364.61,407.07L368.33,411.27L383.22,409.8L386.94,415L390.66,417.28L394.38,414.26L398.1,413.46L409.26,420.41L412.98,433.17L416.7,434.09L420.42,436.03L424.14,440.87L435.3,446.5L439.02,444.2L446.47,431.84L450.19,428.5L461.35,426.59L465.07,419.23L468.79,426.21L472.51,425.36L476.23,419.51L487.39,421.84L491.11,426.98L494.83,425.51L498.55,419.4L502.27,417.23L513.44,408.15L517.16,412.89L520.88,411.01L524.6,411.15L528.32,411.58L543.2,411.33L546.92,415.16L550.64,416.81L554.36,410.63L565.52,406.91L569.24,402.3L572.96,404.53L576.68,403.32L580.41,397.78L591.57,399.13L595.29,397L599.01,395.35L602.73,402.65L606.45,399.71L617.61,397.26L621.33,394.04L625.05,393.44L628.77,391.9L632.49,391.32L643.65,390.01L647.38,391.59L651.1,396.46L654.82,395.44L658.54,398.41L669.7,394.61L673.42,393.83L677.14,391.87L680.86,389.39L695.74,387.53L706.9,389.45L710.62,387.67L721.79,390.23L725.51,389.83L729.23,387.62L732.95,389.03L736.67,390.15L747.83,388.42L751.55,384.91L755.27,384.79L758.99,386.51L762.71,386.51L773.87,386.18L777.59,387.88L781.32,386.47L785.04,390.16L788.76,390.27L799.92,388.26L803.64,386.57L807.36,385.78L811.08,386.88L814.8,389.4L829.68,387.77L833.4,386.6L837.12,387.77L840.84,387.83L863.17,387.17L866.89,391.09L881.77,386.08L885.49,387.68L889.21,390.59L892.93,389.66L904.09,392.08L907.81,388.6L911.53,392.83L915.25,395.09L918.98,397.15L933.86,402.62L937.58,400.99L941.3,403.23L945.02,401.77L956.18,401.81L959.9,401.15L963.62,399.5L967.34,395.4L971.06,395.72L985.95,401.14L989.67,400.93L997.11,398.73L1008.27,397.19L1011.99,400.14L1015.71,396.63L1023.15,402.51L1034.31,397.56L1038.03,394.46L1041.75,394.98L1045.47,392.54L1049.19,392.46L1060.36,395.47L1064.08,394.8L1067.8,392.2L1071.52,392.84L1075.24,393.87L1086.4,396.04L1090.12,394.93L1093.84,397.39L1097.56,395.72L1101.28,396.42L1112.44,398.73L1116.16,396.75L1123.61,402.52L1127.33,402.34L1142.21,397.77L1145.93,394.35L1153.37,396.48L1164.53,390.9L1168.25,385.92L1171.97,387.43L1179.41,391.21L1190.58,388.74L1194.3,387.74L1198.02,385.83L1205.46,383.63L1216.62,381.76L1220.34,376.8L1224.06,373.71L1242.66,375.98L1246.38,378.37L1250.1,376.62L1253.82,373.85L1257.55,373.11L1268.71,373.37L1272.43,372.54L1276.15,372.66L1279.87,369.29L1283.59,369.74L1298.47,367.3L1302.19,365.79L1309.63,362.63L1320.79,365.97L1324.52,367.7L1328.24,364.08L1350.56,364.83L1354.28,364.87L1358,365.26" style="vector-effect: none; fill: none; stroke: rgb(227, 119, 194); stroke-opacity: 1; stroke-width: 3.2px; opacity: 1;"/></g><g class="points"/><g class="text"/></g><g class="trace scatter trace0ff955" style="stroke-miterlimit: 2; opacity: 1;"><g class="fills"/><g class="errorbars"/><g class="lines"><path class="js-line" d="M7.44,283.55L11.16,278.44L14.88,277.02L18.6,272.2L22.32,271.57L33.48,271.21L37.21,264.18L40.93,261.32L44.65,261.14L48.37,257.61L52.09,257.61L59.53,257.61L63.25,250.8L66.97,254.98L70.69,257.07L74.41,253.22L78.13,253.22L81.85,253.22L85.57,256.44L89.29,254.81L93.01,247.96L96.73,239.85L100.45,243.1L107.9,243.1L111.62,246.13L115.34,246.76L119.06,245.55L122.78,239.61L126.5,237.46L137.66,236.67L141.38,241.69L145.1,239.25L148.82,240.17L152.54,229.52L156.26,229.52L163.7,229.35L167.42,235.85L171.15,243.24L174.87,243.13L182.31,242.45L186.03,242.45L193.47,242.12L197.19,238.77L200.91,232.99L204.63,236.27L212.07,236.27L215.79,222.49L219.51,222.49L223.23,202.89L226.95,171.52L230.67,178.47L234.39,153.64L238.12,153.64L241.84,153.64L245.56,132.24L249.28,81.19L253,171.14L256.72,195.65L260.44,186.62L267.88,186.62L271.6,202.03L275.32,224.44L279.04,209.92L282.76,177.11L286.48,168.67L293.92,168.67L297.64,146.46L301.36,147.64L305.08,122.7L308.81,116.42L312.53,123.84L319.97,123.84L323.69,158.89L331.13,149.33L334.85,160.96L338.57,178.94L342.29,178.94L346.01,178.94L349.73,171.5L357.17,190.36L360.89,195.87L364.61,193.84L368.33,193.84L372.05,193.84L375.78,196.76L383.22,152L386.94,146.66L398.1,146.66L401.82,139.97L405.54,142.79L409.26,134.32L412.98,136.87L416.7,134.05L424.14,134.05L427.86,120.65L439.02,42.32L442.75,91.29L450.19,91.29L453.91,106.74L457.63,118.59L461.35,111.55L465.07,123.86L468.79,130.36L476.23,130.36L479.95,148.22L483.67,135.83L487.39,134.87L494.83,138.1L498.55,138.1L502.27,138.1L505.99,140.39L509.72,147.98L513.44,161.66L517.16,150.78L520.88,155L528.32,155L532.04,151.54L535.76,149.07L539.48,141.96L543.2,132.41L546.92,130.7L561.8,131.4L565.52,118.69L569.24,104.59L572.96,99.35L580.41,99.35L584.13,94.74L587.85,101.21L591.57,100.4L595.29,91.71L599.01,97.42L606.45,97.42L610.17,104.61L617.61,82.46L621.33,77.99L625.05,93.72L628.77,93.72L636.21,93.72L639.93,96.2L643.65,97.62L647.38,102.42L651.1,97.05L654.82,97.05L658.54,97.05L662.26,105.47L665.98,113.11L669.7,128.03L673.42,138.97L677.14,134.11L688.3,134.11L692.02,170.58L695.74,183.76L699.46,161.09L710.62,161.24L714.35,152.37L718.07,164.69L721.79,159.85L725.51,160.77L729.23,158.4L736.67,158.4L740.39,165.17L744.11,164.15L747.83,166.51L751.55,170.05L755.27,178.85L762.71,178.85L766.43,176.45L770.15,169.37L773.87,156.55L777.59,157.99L781.32,167.33L788.76,167.33L792.48,183.19L796.2,188.34L799.92,184.26L803.64,196.86L807.36,204.83L814.8,204.83L818.52,206.43L822.24,192.75L825.96,186.39L829.68,178.35L833.4,176.11L840.84,176.11L844.56,184.61L848.28,178.91L852.01,167.87L859.45,160.13L863.17,160.13L866.89,160.13L870.61,152.2L874.33,146.08L878.05,126.85L881.77,135.15L885.49,128.92L892.93,128.92L896.65,137.4L904.09,158.18L907.81,172.65L911.53,165.33L915.25,165.33L922.7,165.33L926.42,170.49L933.86,174.12L937.58,168.64L945.02,168.64L948.74,167.34L952.46,172.73L956.18,187.55L959.9,201.96L963.62,206.65L971.06,206.65L974.78,194.88L978.5,189.57L982.22,193.83L985.95,186.71L989.67,200.53L997.11,200.53L1000.83,211.14L1004.55,201.05L1008.27,181.87L1011.99,186.86L1015.71,188.78L1023.15,188.78L1026.87,190.32L1041.75,126.82L1045.47,126.82L1049.19,126.82L1052.92,143.24L1060.36,138.36L1064.08,122.43L1067.8,131.13L1071.52,131.13L1075.24,131.13L1078.96,121.4L1082.68,131.31L1086.4,148.75L1090.12,152.98L1093.84,146.33L1101.28,146.33L1105,135.7L1108.72,134.91L1112.44,115.02L1116.16,97.18L1119.88,69.57L1127.33,69.57L1131.05,84.41L1134.77,164.69L1138.49,159.8L1142.21,143.29L1145.93,140.32L1153.37,140.32L1157.09,151.23L1160.81,150.84L1164.53,163.99L1168.25,170.56L1171.97,168.8L1179.41,168.8L1183.13,173.36L1186.85,165.28L1190.58,165.68L1194.3,174.5L1198.02,175.38L1205.46,175.38L1209.18,178.14L1212.9,179.53L1216.62,191.06L1220.34,191.06L1224.06,198.16L1231.5,198.16L1235.22,207.14L1238.94,194.33L1242.66,188.05L1246.38,199.83L1250.1,207.18L1257.55,207.18L1261.27,223.38L1264.99,231.72L1268.71,244.04L1272.43,235.77L1276.15,241.21L1283.59,241.21L1287.31,227.99L1291.03,215.45L1294.75,198.46L1298.47,196.96L1302.19,211.19L1309.63,211.19L1313.35,215.97L1317.07,217.9L1320.79,206.9L1324.52,210.31L1328.24,198.87L1339.4,198.87L1343.12,187.57L1350.56,193.3L1354.28,190.26" style="vector-effect: none; fill: none; stroke: rgb(28, 60, 186); stroke-opacity: 1; stroke-width: 5px; opacity: 1;"/></g><g class="points"/><g class="text"/></g></g></g></g><path class="xlines-above crisp" d="M0,0" style="fill: none;"/><path class="ylines-above crisp" d="M103.5,144V614" style="fill: none; stroke-width: 1px; stroke: rgb(170, 178, 187); stroke-opacity: 1;"/><g class="overlines-above"/><g class="xaxislayer-above"><g class="xtick"><text text-anchor="end" x="0" y="638" transform="translate(104,0) rotate(-45,0,626.5)" style="font-family: 'Open Sans', verdana, arial, sans-serif; font-size: 23px; fill: rgb(68, 68, 68); fill-opacity: 1; white-space: pre; opacity: 1;">01-01</text></g><g class="xtick"><text text-anchor="end" x="0" y="638" style="font-family: 'Open Sans', verdana, arial, sans-serif; font-size: 23px; fill: rgb(68, 68, 68); fill-opacity: 1; white-space: pre; opacity: 1;" transform="translate(219.34,0) rotate(-45,0,626.5)">02-01</text></g><g class="xtick"><text text-anchor="end" x="0" y="638" style="font-family: 'Open Sans', verdana, arial, sans-serif; font-size: 23px; fill: rgb(68, 68, 68); fill-opacity: 1; white-space: pre; opacity: 1;" transform="translate(327.23,0) rotate(-45,0,626.5)">03-01</text></g><g class="xtick"><text text-anchor="end" x="0" y="638" style="font-family: 'Open Sans', verdana, arial, sans-serif; font-size: 23px; fill: rgb(68, 68, 68); fill-opacity: 1; white-space: pre; opacity: 1;" transform="translate(442.57,0) rotate(-45,0,626.5)">04-01</text></g><g class="xtick"><text text-anchor="end" x="0" y="638" style="font-family: 'Open Sans', verdana, arial, sans-serif; font-size: 23px; fill: rgb(68, 68, 68); fill-opacity: 1; white-space: pre; opacity: 1;" transform="translate(554.19,0) rotate(-45,0,626.5)">05-01</text></g><g class="xtick"><text text-anchor="end" x="0" y="638" style="font-family: 'Open Sans', verdana, arial, sans-serif; font-size: 23px; fill: rgb(68, 68, 68); fill-opacity: 1; white-space: pre; opacity: 1;" transform="translate(669.52,0) rotate(-45,0,626.5)">06-01</text></g><g class="xtick"><text text-anchor="end" x="0" y="638" style="font-family: 'Open Sans', verdana, arial, sans-serif; font-size: 23px; fill: rgb(68, 68, 68); fill-opacity: 1; white-space: pre; opacity: 1;" transform="translate(781.14,0) rotate(-45,0,626.5)">07-01</text></g><g class="xtick"><text text-anchor="end" x="0" y="638" style="font-family: 'Open Sans', verdana, arial, sans-serif; font-size: 23px; fill: rgb(68, 68, 68); fill-opacity: 1; white-space: pre; opacity: 1;" transform="translate(896.48,0) rotate(-45,0,626.5)">08-01</text></g><g class="xtick"><text text-anchor="end" x="0" y="638" style="font-family: 'Open Sans', verdana, arial, sans-serif; font-size: 23px; fill: rgb(68, 68, 68); fill-opacity: 1; white-space: pre; opacity: 1;" transform="translate(1011.81,0) rotate(-45,0,626.5)">09-01</text></g><g class="xtick"><text text-anchor="end" x="0" y="638" style="font-family: 'Open Sans', verdana, arial, sans-serif; font-size: 23px; fill: rgb(68, 68, 68); fill-opacity: 1; white-space: pre; opacity: 1;" transform="translate(1123.4299999999998,0) rotate(-45,0,626.5)">10-01</text></g><g class="xtick"><text text-anchor="end" x="0" y="638" style="font-family: 'Open Sans', verdana, arial, sans-serif; font-size: 23px; fill: rgb(68, 68, 68); fill-opacity: 1; white-space: pre; opacity: 1;" transform="translate(1238.77,0) rotate(-45,0,626.5)">11-01</text></g><g class="xtick"><text text-anchor="end" x="0" y="638" style="font-family: 'Open Sans', verdana, arial, sans-serif; font-size: 23px; fill: rgb(68, 68, 68); fill-opacity: 1; white-space: pre; opacity: 1;" transform="translate(1350.38,0) rotate(-45,0,626.5)">12-01</text></g></g><g class="yaxislayer-above"><path class="ytick ticks crisp" d="M103,0h-5" transform="translate(0,554.35)" style="stroke: rgb(170, 178, 187); stroke-opacity: 1; stroke-width: 1px;"/><path class="ytick ticks crisp" d="M103,0h-5" transform="translate(0,461.04)" style="stroke: rgb(170, 178, 187); stroke-opacity: 1; stroke-width: 1px;"/><path class="ytick ticks crisp" d="M103,0h-5" transform="translate(0,367.72)" style="stroke: rgb(170, 178, 187); stroke-opacity: 1; stroke-width: 1px;"/><path class="ytick ticks crisp" d="M103,0h-5" transform="translate(0,274.40999999999997)" style="stroke: rgb(170, 178, 187); stroke-opacity: 1; stroke-width: 1px;"/><path class="ytick ticks crisp" d="M103,0h-5" transform="translate(0,181.1)" style="stroke: rgb(170, 178, 187); stroke-opacity: 1; stroke-width: 1px;"/><g class="ytick"><text text-anchor="end" x="93.4" y="8.049999999999999" transform="translate(0,554.35)" style="font-family: 'Open Sans', verdana, arial, sans-serif; font-size: 23px; fill: rgb(0, 0, 255); fill-opacity: 1; white-space: pre; opacity: 1;">1</text></g><g class="ytick"><text text-anchor="end" x="93.4" y="8.049999999999999" style="font-family: 'Open Sans', verdana, arial, sans-serif; font-size: 23px; fill: rgb(0, 0, 255); fill-opacity: 1; white-space: pre; opacity: 1;" transform="translate(0,461.04)">2</text></g><g class="ytick"><text text-anchor="end" x="93.4" y="8.049999999999999" style="font-family: 'Open Sans', verdana, arial, sans-serif; font-size: 23px; fill: rgb(0, 0, 255); fill-opacity: 1; white-space: pre; opacity: 1;" transform="translate(0,367.72)">3</text></g><g class="ytick"><text text-anchor="end" x="93.4" y="8.049999999999999" style="font-family: 'Open Sans', verdana, arial, sans-serif; font-size: 23px; fill: rgb(0, 0, 255); fill-opacity: 1; white-space: pre; opacity: 1;" transform="translate(0,274.40999999999997)">4</text></g><g class="ytick"><text text-anchor="end" x="93.4" y="8.049999999999999" style="font-family: 'Open Sans', verdana, arial, sans-serif; font-size: 23px; fill: rgb(0, 0, 255); fill-opacity: 1; white-space: pre; opacity: 1;" transform="translate(0,181.1)">5</text></g></g><g class="overaxes-above"/></g></g><g class="polarlayer"/><g class="smithlayer"/><g class="ternarylayer"/><g class="geolayer"/><g class="funnelarealayer"/><g class="pielayer"/><g class="iciclelayer"/><g class="treemaplayer"/><g class="sunburstlayer"/><g class="glimages"/><defs id="topdefs-cf9391"><g class="clips"/><clipPath id="legendcf9391"><rect width="718" height="42" x="0" y="0"/></clipPath></defs><g class="layer-above"><g class="imagelayer"/><g class="shapelayer"/></g><g class="infolayer"><g class="legend" pointer-events="all" transform="translate(424,69.99999999999996)"><rect class="bg" shape-rendering="crispEdges" width="718" height="42" x="0" y="0" style="stroke: rgb(68, 68, 68); stroke-opacity: 1; fill: rgb(255, 255, 255); fill-opacity: 1; stroke-width: 0px;"/><g class="scrollbox" transform="" clip-path="url(#legendcf9391)"><g class="groups"><g class="traces" transform="translate(0,20.8)" style="opacity: 1;"><text class="legendtext" text-anchor="start" x="40" y="8.58" style="font-family: 'Open Sans', verdana, arial, sans-serif; font-size: 22px; fill: rgb(68, 68, 68); fill-opacity: 1; white-space: pre;">2026</text><g class="layers" style="opacity: 1;"><g class="legendfill"/><g class="legendlines"><path class="js-line" d="M5,0h30" style="fill: none; stroke: rgb(255, 0, 0); stroke-opacity: 1; stroke-width: 5px;"/></g><g class="legendsymbols"><g class="legendpoints"/></g></g><rect class="legendtoggle" x="0" y="-15.8" width="98.453125" height="31.6" style="fill: rgb(0, 0, 0); fill-opacity: 0;"/></g><g class="traces" transform="translate(100.953125,20.8)" style="opacity: 1;"><text class="legendtext" text-anchor="start" x="40" y="8.58" style="font-family: 'Open Sans', verdana, arial, sans-serif; font-size: 22px; fill: rgb(68, 68, 68); fill-opacity: 1; white-space: pre;">2025</text><g class="layers" style="opacity: 1;"><g class="legendfill"/><g class="legendlines"><path class="js-line" d="M5,0h30" style="fill: none; stroke: rgb(255, 200, 0); stroke-opacity: 1; stroke-width: 4px;"/></g><g class="legendsymbols"><g class="legendpoints"/></g></g><rect class="legendtoggle" x="0" y="-15.8" width="98.453125" height="31.6" style="fill: rgb(0, 0, 0); fill-opacity: 0;"/></g><g class="traces" transform="translate(201.90625,20.8)" style="opacity: 1;"><text class="legendtext" text-anchor="start" x="40" y="8.58" style="font-family: 'Open Sans', verdana, arial, sans-serif; font-size: 22px; fill: rgb(68, 68, 68); fill-opacity: 1; white-space: pre;">2024</text><g class="layers" style="opacity: 1;"><g class="legendfill"/><g class="legendlines"><path class="js-line" d="M5,0h30" style="fill: none; stroke: rgb(0, 128, 0); stroke-opacity: 1; stroke-width: 4px;"/></g><g class="legendsymbols"><g class="legendpoints"/></g></g><rect class="legendtoggle" x="0" y="-15.8" width="98.453125" height="31.6" style="fill: rgb(0, 0, 0); fill-opacity: 0;"/></g><g class="traces" transform="translate(302.859375,20.8)" style="opacity: 1;"><text class="legendtext" text-anchor="start" x="40" y="8.58" style="font-family: 'Open Sans', verdana, arial, sans-serif; font-size: 22px; fill: rgb(68, 68, 68); fill-opacity: 1; white-space: pre;">2023</text><g class="layers" style="opacity: 1;"><g class="legendfill"/><g class="legendlines"><path class="js-line" d="M5,0h30" style="fill: none; stroke: rgb(148, 103, 189); stroke-opacity: 1; stroke-width: 3.2px;"/></g><g class="legendsymbols"><g class="legendpoints"/></g></g><rect class="legendtoggle" x="0" y="-15.8" width="98.453125" height="31.6" style="fill: rgb(0, 0, 0); fill-opacity: 0;"/></g><g class="traces" transform="translate(403.8125,20.8)" style="opacity: 1;"><text class="legendtext" text-anchor="start" x="40" y="8.58" style="font-family: 'Open Sans', verdana, arial, sans-serif; font-size: 22px; fill: rgb(68, 68, 68); fill-opacity: 1; white-space: pre;">2021</text><g class="layers" style="opacity: 1;"><g class="legendfill"/><g class="legendlines"><path class="js-line" d="M5,0h30" style="fill: none; stroke: rgb(23, 190, 207); stroke-opacity: 1; stroke-width: 3.2px;"/></g><g class="legendsymbols"><g class="legendpoints"/></g></g><rect class="legendtoggle" x="0" y="-15.8" width="98.453125" height="31.6" style="fill: rgb(0, 0, 0); fill-opacity: 0;"/></g><g class="traces" transform="translate(504.765625,20.8)" style="opacity: 1;"><text class="legendtext" text-anchor="start" x="40" y="8.58" style="font-family: 'Open Sans', verdana, arial, sans-serif; font-size: 22px; fill: rgb(68, 68, 68); fill-opacity: 1; white-space: pre;">2020</text><g class="layers" style="opacity: 1;"><g class="legendfill"/><g class="legendlines"><path class="js-line" d="M5,0h30" style="fill: none; stroke: rgb(227, 119, 194); stroke-opacity: 1; stroke-width: 3.2px;"/></g><g class="legendsymbols"><g class="legendpoints"/></g></g><rect class="legendtoggle" x="0" y="-15.8" width="98.453125" height="31.6" style="fill: rgb(0, 0, 0); fill-opacity: 0;"/></g><g class="traces" transform="translate(605.71875,20.8)" style="opacity: 1;"><text class="legendtext" text-anchor="start" x="40" y="8.58" style="font-family: 'Open Sans', verdana, arial, sans-serif; font-size: 22px; fill: rgb(68, 68, 68); fill-opacity: 1; white-space: pre;">最大值</text><g class="layers" style="opacity: 1;"><g class="legendfill"/><g class="legendlines"><path class="js-line" d="M5,0h30" style="fill: none; stroke: rgb(28, 60, 186); stroke-opacity: 1; stroke-width: 5px;"/></g><g class="legendsymbols"><g class="legendpoints"/></g></g><rect class="legendtoggle" x="0" y="-15.8" width="109.359375" height="31.6" style="fill: rgb(0, 0, 0); fill-opacity: 0;"/></g></g></g><rect class="scrollbar" rx="20" ry="3" width="0" height="0" x="0" y="0" style="fill: rgb(128, 139, 164); fill-opacity: 1;"/></g><g class="g-gtitle"/><g class="g-xtitle"/><g class="g-ytitle"><text class="ytitle" transform="rotate(-90,63.925390625,379)" x="63.925390625" y="379" text-anchor="middle" style="opacity: 1; font-family: 'Open Sans', verdana, arial, sans-serif; font-size: 21px; fill: rgb(0, 0, 255); fill-opacity: 1; white-space: pre;">美元/加仑</text></g><g class="annotation" data-index="0" style="opacity: 1;"><g class="annotation-text-g" transform="rotate(0,783,44)"><g class="cursor-pointer" transform="translate(616,29)"><rect class="bg" x="0.5" y="0.5" width="333" height="30" style="stroke-width: 1px; stroke: rgb(0, 0, 0); stroke-opacity: 0; fill: rgb(0, 0, 0); fill-opacity: 0;"/><text class="annotation-text" text-anchor="middle" x="167.1796875" y="24" style="font-family: 'Open Sans', verdana, arial, sans-serif; font-size: 22px; fill: rgb(23, 33, 43); fill-opacity: 1; white-space: pre;">期货收盘价(连续):NYMEX取暖油</text></g></g></g><g class="annotation" data-index="1" style="opacity: 1;"><g class="annotation-text-g" transform="rotate(0,1399,127.5)"><g class="cursor-pointer" transform="translate(1336,116)"><rect class="bg" x="0.5" y="0.5" width="125" height="22" style="stroke-width: 1px; stroke: rgb(0, 0, 0); stroke-opacity: 0; fill: rgb(0, 0, 0); fill-opacity: 0;"/><text class="annotation-text" text-anchor="middle" x="63.1484375" y="18" style="font-family: 'Open Sans', verdana, arial, sans-serif; font-size: 16px; fill: rgb(105, 117, 134); fill-opacity: 1; white-space: pre;">统计样本：2022</text></g></g></g></g></svg>