<svg class="main-svg" xmlns="http://www.w3.org/2000/svg" xmlns:xlink="http://www.w3.org/1999/xlink" width="1550" height="700" style="" viewBox="0 0 1550 700"><rect x="0" y="0" width="1550" height="700" style="fill: rgb(255, 255, 255); fill-opacity: 1;"/><defs id="defs-10a862"><g class="clips"><clipPath id="clip10a862xyplot" class="plotclip"><rect width="1342" height="538"/></clipPath><clipPath class="axesclip" id="clip10a862x"><rect x="104" y="0" width="1342" height="700"/></clipPath><clipPath class="axesclip" id="clip10a862y"><rect x="0" y="86" width="1550" height="538"/></clipPath><clipPath class="axesclip" id="clip10a862xy"><rect x="104" y="86" width="1342" height="538"/></clipPath></g><g class="gradients"/><g class="patterns"/></defs><g class="bglayer"/><g class="layer-below"><g class="imagelayer"/><g class="shapelayer"/></g><g class="cartesianlayer"><g class="subplot xy"><g class="layer-subplot"><g class="shapelayer"/><g class="imagelayer"/></g><g class="minor-gridlayer"><g class="x"/><g class="y"/></g><g class="gridlayer"><g class="x"/><g class="y"><path class="ygrid crisp" transform="translate(0,589.9300000000001)" d="M104,0h1342" style="stroke: rgb(232, 235, 239); stroke-opacity: 1; stroke-width: 1px;"/><path class="ygrid crisp" transform="translate(0,530.15)" d="M104,0h1342" style="stroke: rgb(232, 235, 239); stroke-opacity: 1; stroke-width: 1px;"/><path class="ygrid crisp" transform="translate(0,470.37)" d="M104,0h1342" style="stroke: rgb(232, 235, 239); stroke-opacity: 1; stroke-width: 1px;"/><path class="ygrid crisp" transform="translate(0,410.59)" d="M104,0h1342" style="stroke: rgb(232, 235, 239); stroke-opacity: 1; stroke-width: 1px;"/><path class="ygrid crisp" transform="translate(0,350.82)" d="M104,0h1342" style="stroke: rgb(232, 235, 239); stroke-opacity: 1; stroke-width: 1px;"/><path class="ygrid crisp" transform="translate(0,291.03999999999996)" d="M104,0h1342" style="stroke: rgb(232, 235, 239); stroke-opacity: 1; stroke-width: 1px;"/><path class="ygrid crisp" transform="translate(0,231.26)" d="M104,0h1342" style="stroke: rgb(232, 235, 239); stroke-opacity: 1; stroke-width: 1px;"/><path class="ygrid crisp" transform="translate(0,171.48000000000002)" d="M104,0h1342" style="stroke: rgb(232, 235, 239); stroke-opacity: 1; stroke-width: 1px;"/><path class="ygrid crisp" transform="translate(0,111.7)" d="M104,0h1342" style="stroke: rgb(232, 235, 239); stroke-opacity: 1; stroke-width: 1px;"/></g></g><g class="zerolinelayer"/><g class="layer-between"><g class="shapelayer"/><g class="imagelayer"/></g><path class="xlines-below"/><path class="ylines-below"/><g class="overlines-below"/><g class="xaxislayer-below"/><g class="yaxislayer-below"/><g class="overaxes-below"/><g class="overplot"><g class="xy" transform="translate(104,86)" clip-path="url(#clip10a862xyplot)"><g class="scatterlayer mlayer"><g class="trace scatter tracefd7c63" style="stroke-miterlimit: 2; opacity: 1;"><g class="fills"/><g class="errorbars"/><g class="lines"><path class="js-line" d="M0,495.56L2,451.32L4.21,484.8L8.56,370.02L10.7,323.4L12.91,298.29L15.13,248.08L17.27,212.21L19.48,199.06L21.62,211.02L23.83,206.23L28.11,127.33L30.32,164.39L32.46,138.09L34.68,159.61L36.82,166.78L39.03,194.28L43.38,221.78L45.59,222.97L47.73,244.49L49.94,185.91L52.16,207.43L54.15,205.04L56.37,164.39L58.51,182.32L60.72,148.85L62.86,183.52L65.07,172.76L67.28,206.23L69.42,218.19L71.63,200.26L73.77,191.89L75.99,147.65L80.2,194.28L82.41,205.04L86.76,142.87L88.9,139.28L91.11,118.96L93.32,141.67L95.46,139.28L97.68,144.06L99.82,129.72L102.03,152.43L106.24,166.78L108.45,172.76L119.37,270.79L121.51,269.6L123.72,276.77L125.86,288.73L128.07,326.98L130.28,310.25L132.35,262.42L134.56,341.33L138.92,511.1L141.06,500.34L143.27,444.15L145.48,318.62L151.97,166.78L154.18,228.95L156.4,274.38L158.39,279.16L160.61,269.6L162.75,245.69L164.96,222.97L167.1,256.45L169.31,304.27L171.52,285.14L173.66,354.48L175.87,384.37L178.02,431L180.23,410.67L182.44,405.89L184.44,404.7L186.65,422.63L188.79,410.67L191,438.17L193.14,404.7L195.35,403.5L197.56,404.7L201.92,391.54L204.06,393.94L208.48,312.64L210.48,212.21L212.69,218.19L214.83,214.6L219.18,175.15L221.4,102.22L225.75,115.37L227.96,92.66L230.1,73.53L232.31,26.9L234.52,139.28L236.59,129.72L238.8,158.41L240.94,133.3L243.16,162L245.3,167.98L249.72,228.95L251.86,264.82L254.07,255.25L256.21,261.23L258.43,257.64L260.64,261.23L262.64,266.01L264.85,291.12L266.99,286.34L269.2,299.49L271.34,291.12L273.55,289.92L275.76,292.31L277.9,266.01L282.26,240.9L284.47,256.45L286.68,250.47L288.68,252.86L290.89,252.86L293.03,268.4L295.24,224.17L297.38,258.84L299.59,288.73L301.81,233.73L303.95,236.12L306.16,250.47L308.3,250.47L310.51,258.84L312.72,206.23L314.72,233.73L316.93,205.04L319.07,199.06L321.28,178.74L323.42,176.34L325.64,175.15L327.85,153.63L332.2,136.89L334.34,159.61L336.55,133.3L338.76,175.15L343.05,209.82L345.19,195.47L347.4,199.06L349.54,153.63L351.75,166.78L353.96,193.08L356.1,211.02L358.31,200.26L360.45,197.86L362.67,193.08L366.88,215.8L369.09,246.88L371.23,238.51L373.44,273.18L377.79,313.83L380,323.4L384.36,303.07L386.5,303.07L388.71,295.9L390.92,298.29L392.92,275.58L395.13,266.01L397.27,264.82L399.48,270.79L401.62,274.38L403.83,305.46L406.05,311.44L408.19,330.57L412.54,368.83L414.75,374.81L416.96,393.94L418.96,391.54L421.17,376L423.31,350.9L425.52,330.57L427.66,261.23L429.88,257.64L432.09,230.14L434.23,206.23L436.44,227.75L440.79,303.07L443,297.1L445.07,232.54L447.29,209.82L449.43,233.73L451.64,196.67L453.78,221.78L455.99,218.19L458.2,224.17L460.34,268.4L462.55,261.23L464.69,221.78L466.91,214.6L469.12,195.47L471.12,202.65L473.33,222.97L475.47,262.42L477.68,250.47L479.82,269.6L482.03,262.42L484.24,256.45L486.38,255.25L488.6,224.17L490.74,219.38L492.95,197.86L495.16,193.08L505.86,159.61L508.07,163.19L510.29,169.17L512.43,157.22L514.64,152.43L516.78,154.82L518.99,191.89L521.2,176.34L525.41,239.71L527.55,246.88L529.77,304.27L531.91,313.83L534.12,256.45L536.33,299.49L538.47,287.53L540.68,304.27L542.82,313.83L545.03,310.25L547.25,318.62L549.31,313.83L551.53,301.88L553.67,273.18L555.88,275.58L558.02,221.78L560.23,268.4L562.44,245.69L566.8,258.84L568.94,228.95L571.15,202.65L573.36,219.38L575.36,227.75L577.57,219.38L579.71,220.58L581.92,191.89L584.06,206.23L586.27,172.76L588.49,189.5L590.63,218.19L592.84,188.3L594.98,196.67L599.4,219.38L601.4,230.14L603.61,230.14L605.75,238.51L610.1,277.97L612.32,274.38L614.53,273.18L616.67,280.36L618.88,280.36L621.02,286.34L623.23,303.07L625.44,257.64L629.65,236.12L631.79,237.32L636.15,195.47L638.36,221.78L640.57,207.43L642.71,181.13L644.92,178.74L647.06,167.98L649.27,171.56L651.49,184.71L655.77,206.23L657.91,208.62L662.26,248.08L664.47,234.93L666.68,266.01L668.82,268.4L671.04,280.36L673.18,282.75L675.39,337.74L677.6,356.87L679.6,359.26L681.81,347.31L683.95,352.09L686.16,368.83L688.3,346.11L690.51,342.53L692.73,309.05L694.87,310.25L697.08,374.81L699.22,335.35L701.43,321.01L703.64,294.7L707.85,236.12L709.99,236.12L714.34,221.78L716.56,262.42L720.91,258.84L723.12,276.77L725.26,282.75L727.47,245.69L729.68,249.27L731.68,279.16L733.89,309.05L736.03,311.44L738.25,276.77L740.39,276.77L744.81,226.56L746.95,236.12L753.51,144.06L755.73,135.7L757.8,146.46L760.01,138.09L762.15,138.09L764.36,128.52L770.92,163.19L773.06,176.34L775.28,189.5L777.42,190.69L779.63,178.74L781.84,183.52L783.84,199.06L786.05,202.65L790.4,255.25L792.54,236.12L794.75,231.34L796.97,236.12L799.11,183.52L801.32,178.74L803.46,184.71L805.67,203.84L807.88,205.04L809.88,195.47L812.09,213.41L814.23,202.65L818.59,240.9L820.8,228.95L823.01,220.58L825.15,238.51L829.5,261.23L831.71,248.08L833.93,270.79L835.92,242.1L838.13,256.45L840.28,233.73L842.49,234.93L844.63,233.73L846.84,236.12L849.05,254.06L853.4,251.66L855.54,258.84L857.76,276.77L859.97,261.23L862.04,293.51L864.25,285.14L866.39,279.16L868.6,279.16L870.74,267.21L872.95,264.82L875.16,274.38L877.31,326.98L881.66,426.22L883.87,466.86L886.08,445.34L888.08,438.17L890.29,432.19L892.43,390.35L894.64,364.05L896.78,315.03L901.21,222.97L903.35,212.21L905.56,193.08L907.7,212.21L909.91,201.45L912.12,178.74L914.12,195.47L916.33,159.61L918.47,167.98L920.69,165.58L922.83,188.3L925.04,188.3L927.25,169.17L929.39,189.5L931.6,172.76L933.74,173.95L935.95,175.15L938.17,157.22L940.16,153.63L942.38,156.02L944.52,158.41L946.73,220.58L948.87,185.91L951.08,230.14L953.29,228.95L955.43,231.34L957.64,243.3L959.78,239.71L962,227.75L964.21,231.34L966.28,236.12L968.49,228.95L970.63,220.58L972.84,226.56L974.98,252.86L977.19,257.64L979.41,251.66L981.55,238.51L983.76,250.47L985.9,270.79L988.11,260.03L990.32,237.32L992.32,227.75L994.53,246.88L996.67,264.82L998.88,264.82L1005.45,189.5L1007.59,193.08L1011.94,181.13L1014.15,187.1L1016.36,249.27L1018.36,226.56L1020.57,220.58L1022.71,206.23L1024.93,200.26L1027.07,201.45L1031.49,157.22L1033.63,185.91L1035.84,157.22L1037.98,160.8L1042.41,222.97L1044.4,230.14L1046.62,246.88L1048.76,246.88L1053.11,222.97L1055.32,232.54L1059.67,262.42L1061.88,263.62L1064.02,281.55L1066.24,288.73L1068.45,286.34L1070.52,270.79L1072.73,243.3L1074.87,255.25L1077.08,249.27L1079.22,226.56L1081.43,233.73L1083.65,271.99L1085.79,246.88L1088,242.1L1096.56,172.76L1098.77,178.74L1100.91,207.43L1103.12,206.23L1105.26,171.56L1107.48,189.5L1111.83,135.7L1114.04,160.8L1116.18,166.78L1118.39,153.63L1120.6,156.02L1122.6,135.7L1126.95,177.54L1129.17,160.8L1131.31,142.87L1133.52,167.98L1135.73,129.72L1137.87,147.65L1140.08,172.76L1142.22,153.63L1144.44,213.41L1146.65,185.91L1148.64,214.6L1150.86,201.45L1153,231.34L1155.21,239.71L1159.56,250.47L1161.77,275.58L1163.91,291.12L1166.13,285.14L1170.48,291.12L1172.69,254.06L1176.97,275.58L1179.11,366.44L1181.32,347.31L1183.46,233.73L1187.89,193.08L1190.03,200.26L1192.24,153.63L1194.38,175.15L1196.59,139.28L1198.8,160.8L1200.8,135.7L1203.01,89.07L1205.15,136.89L1207.36,130.91L1209.51,138.09L1211.72,151.24L1213.93,146.46L1216.07,132.11L1218.28,135.7L1220.42,132.11L1224.85,173.95L1226.84,162L1231.2,200.26L1233.41,191.89L1235.55,228.95L1237.76,231.34L1239.97,231.34L1242.11,254.06L1244.32,262.42L1246.46,276.77L1248.68,283.94L1250.89,295.9L1252.89,292.31L1255.1,309.05L1257.24,299.49L1259.45,301.88L1261.59,312.64L1263.8,307.86L1268.15,276.77L1270.37,304.27L1272.51,304.27L1274.72,299.49L1276.93,275.58L1279,291.12L1281.21,261.23L1283.35,274.38L1287.7,282.75L1289.92,303.07L1292.13,298.29L1294.27,298.29L1296.48,306.66L1298.62,283.94L1300.83,273.18L1303.04,254.06L1305.04,261.23L1307.25,276.77L1311.61,282.75L1313.75,276.77L1315.96,288.73L1318.17,280.36L1320.31,275.58L1322.52,280.36L1326.87,289.92L1329.09,233.73L1331.08,236.12L1333.3,232.54L1335.44,232.54L1337.65,216.99L1339.79,225.36L1342,197.86" style="vector-effect: none; fill: none; stroke: rgb(0, 0, 255); stroke-opacity: 1; stroke-width: 5px; opacity: 1;"/></g><g class="points"/><g class="text"/></g></g></g></g><path class="xlines-above crisp" d="M0,0" style="fill: none;"/><path class="ylines-above crisp" d="M103.5,86V624" style="fill: none; stroke-width: 1px; stroke: rgb(170, 178, 187); stroke-opacity: 1;"/><g class="overlines-above"/><g class="xaxislayer-above"><g class="xtick"><text text-anchor="middle" x="0" y="648" transform="translate(232.14,0)" style="font-family: 'Open Sans', verdana, arial, sans-serif; font-size: 23px; fill: rgb(68, 68, 68); fill-opacity: 1; white-space: pre; opacity: 1;">1980</text></g><g class="xtick"><text text-anchor="middle" x="0" y="648" transform="translate(362.5,0)" style="font-family: 'Open Sans', verdana, arial, sans-serif; font-size: 23px; fill: rgb(68, 68, 68); fill-opacity: 1; white-space: pre; opacity: 1;">1985</text></g><g class="xtick"><text text-anchor="middle" x="0" y="648" transform="translate(492.78,0)" style="font-family: 'Open Sans', verdana, arial, sans-serif; font-size: 23px; fill: rgb(68, 68, 68); fill-opacity: 1; white-space: pre; opacity: 1;">1990</text></g><g class="xtick"><text text-anchor="middle" x="0" y="648" transform="translate(623.06,0)" style="font-family: 'Open Sans', verdana, arial, sans-serif; font-size: 23px; fill: rgb(68, 68, 68); fill-opacity: 1; white-space: pre; opacity: 1;">1995</text></g><g class="xtick"><text text-anchor="middle" x="0" y="648" transform="translate(753.35,0)" style="font-family: 'Open Sans', verdana, arial, sans-serif; font-size: 23px; fill: rgb(68, 68, 68); fill-opacity: 1; white-space: pre; opacity: 1;">2000</text></g><g class="xtick"><text text-anchor="middle" x="0" y="648" transform="translate(883.7,0)" style="font-family: 'Open Sans', verdana, arial, sans-serif; font-size: 23px; fill: rgb(68, 68, 68); fill-opacity: 1; white-space: pre; opacity: 1;">2005</text></g><g class="xtick"><text text-anchor="middle" x="0" y="648" transform="translate(1013.98,0)" style="font-family: 'Open Sans', verdana, arial, sans-serif; font-size: 23px; fill: rgb(68, 68, 68); fill-opacity: 1; white-space: pre; opacity: 1;">2010</text></g><g class="xtick"><text text-anchor="middle" x="0" y="648" transform="translate(1144.27,0)" style="font-family: 'Open Sans', verdana, arial, sans-serif; font-size: 23px; fill: rgb(68, 68, 68); fill-opacity: 1; white-space: pre; opacity: 1;">2015</text></g><g class="xtick"><text text-anchor="middle" x="0" y="648" transform="translate(1274.55,0)" style="font-family: 'Open Sans', verdana, arial, sans-serif; font-size: 23px; fill: rgb(68, 68, 68); fill-opacity: 1; white-space: pre; opacity: 1;">2020</text></g><g class="xtick"><text text-anchor="middle" x="0" y="648" transform="translate(1404.9,0)" style="font-family: 'Open Sans', verdana, arial, sans-serif; font-size: 23px; fill: rgb(68, 68, 68); fill-opacity: 1; white-space: pre; opacity: 1;">2025</text></g></g><g class="yaxislayer-above"><path class="ytick ticks crisp" d="M103,0h-5" transform="translate(0,589.9300000000001)" style="stroke: rgb(170, 178, 187); stroke-opacity: 1; stroke-width: 1px;"/><path class="ytick ticks crisp" d="M103,0h-5" transform="translate(0,530.15)" style="stroke: rgb(170, 178, 187); stroke-opacity: 1; stroke-width: 1px;"/><path class="ytick ticks crisp" d="M103,0h-5" transform="translate(0,470.37)" style="stroke: rgb(170, 178, 187); stroke-opacity: 1; stroke-width: 1px;"/><path class="ytick ticks crisp" d="M103,0h-5" transform="translate(0,410.59)" style="stroke: rgb(170, 178, 187); stroke-opacity: 1; stroke-width: 1px;"/><path class="ytick ticks crisp" d="M103,0h-5" transform="translate(0,350.82)" style="stroke: rgb(170, 178, 187); stroke-opacity: 1; stroke-width: 1px;"/><path class="ytick ticks crisp" d="M103,0h-5" transform="translate(0,291.03999999999996)" style="stroke: rgb(170, 178, 187); stroke-opacity: 1; stroke-width: 1px;"/><path class="ytick ticks crisp" d="M103,0h-5" transform="translate(0,231.26)" style="stroke: rgb(170, 178, 187); stroke-opacity: 1; stroke-width: 1px;"/><path class="ytick ticks crisp" d="M103,0h-5" transform="translate(0,171.48000000000002)" style="stroke: rgb(170, 178, 187); stroke-opacity: 1; stroke-width: 1px;"/><path class="ytick ticks crisp" d="M103,0h-5" transform="translate(0,111.7)" style="stroke: rgb(170, 178, 187); stroke-opacity: 1; stroke-width: 1px;"/><g class="ytick"><text text-anchor="end" x="93.4" y="8.049999999999999" transform="translate(0,589.9300000000001)" style="font-family: 'Open Sans', verdana, arial, sans-serif; font-size: 23px; fill: rgb(0, 0, 255); fill-opacity: 1; white-space: pre; opacity: 1;">30</text></g><g class="ytick"><text text-anchor="end" x="93.4" y="8.049999999999999" style="font-family: 'Open Sans', verdana, arial, sans-serif; font-size: 23px; fill: rgb(0, 0, 255); fill-opacity: 1; white-space: pre; opacity: 1;" transform="translate(0,530.15)">35</text></g><g class="ytick"><text text-anchor="end" x="93.4" y="8.049999999999999" style="font-family: 'Open Sans', verdana, arial, sans-serif; font-size: 23px; fill: rgb(0, 0, 255); fill-opacity: 1; white-space: pre; opacity: 1;" transform="translate(0,470.37)">40</text></g><g class="ytick"><text text-anchor="end" x="93.4" y="8.049999999999999" style="font-family: 'Open Sans', verdana, arial, sans-serif; font-size: 23px; fill: rgb(0, 0, 255); fill-opacity: 1; white-space: pre; opacity: 1;" transform="translate(0,410.59)">45</text></g><g class="ytick"><text text-anchor="end" x="93.4" y="8.049999999999999" style="font-family: 'Open Sans', verdana, arial, sans-serif; font-size: 23px; fill: rgb(0, 0, 255); fill-opacity: 1; white-space: pre; opacity: 1;" transform="translate(0,350.82)">50</text></g><g class="ytick"><text text-anchor="end" x="93.4" y="8.049999999999999" style="font-family: 'Open Sans', verdana, arial, sans-serif; font-size: 23px; fill: rgb(0, 0, 255); fill-opacity: 1; white-space: pre; opacity: 1;" transform="translate(0,291.03999999999996)">55</text></g><g class="ytick"><text text-anchor="end" x="93.4" y="8.049999999999999" style="font-family: 'Open Sans', verdana, arial, sans-serif; font-size: 23px; fill: rgb(0, 0, 255); fill-opacity: 1; white-space: pre; opacity: 1;" transform="translate(0,231.26)">60</text></g><g class="ytick"><text text-anchor="end" x="93.4" y="8.049999999999999" style="font-family: 'Open Sans', verdana, arial, sans-serif; font-size: 23px; fill: rgb(0, 0, 255); fill-opacity: 1; white-space: pre; opacity: 1;" transform="translate(0,171.48000000000002)">65</text></g><g class="ytick"><text text-anchor="end" x="93.4" y="8.049999999999999" style="font-family: 'Open Sans', verdana, arial, sans-serif; font-size: 23px; fill: rgb(0, 0, 255); fill-opacity: 1; white-space: pre; opacity: 1;" transform="translate(0,111.7)">70</text></g></g><g class="overaxes-above"/></g></g><g class="polarlayer"/><g class="smithlayer"/><g class="ternarylayer"/><g class="geolayer"/><g class="funnelarealayer"/><g class="pielayer"/><g class="iciclelayer"/><g class="treemaplayer"/><g class="sunburstlayer"/><g class="glimages"/><defs id="topdefs-10a862"><g class="clips"/><clipPath id="legend10a862"><rect width="300" height="47" x="0" y="0"/></clipPath></defs><g class="layer-above"><g class="imagelayer"/><g class="shapelayer"/></g><g class="infolayer"><g class="legend" pointer-events="all" transform="translate(625,28.239999999999995)"><rect class="bg" shape-rendering="crispEdges" width="300" height="47" x="0" y="0" style="stroke: rgb(68, 68, 68); stroke-opacity: 1; fill: rgb(255, 255, 255); fill-opacity: 1; stroke-width: 0px;"/><g class="scrollbox" transform="" clip-path="url(#legend10a862)"><g class="groups"><g class="traces" transform="translate(0,23.400000000000002)" style="opacity: 1;"><text class="legendtext" text-anchor="start" x="40" y="10.14" style="font-family: 'Open Sans', verdana, arial, sans-serif; font-size: 26px; fill: rgb(68, 68, 68); fill-opacity: 1; white-space: pre;">美国:ISM:制造业PMI</text><g class="layers" style="opacity: 1;"><g class="legendfill"/><g class="legendlines"><path class="js-line" d="M5,0h30" style="fill: none; stroke: rgb(0, 0, 255); stroke-opacity: 1; stroke-width: 5px;"/></g><g class="legendsymbols"><g class="legendpoints"/></g></g><rect class="legendtoggle" x="0" y="-18.400000000000002" width="296.96875" height="36.800000000000004" style="fill: rgb(0, 0, 0); fill-opacity: 0;"/></g></g></g><rect class="scrollbar" rx="20" ry="3" width="0" height="0" x="0" y="0" style="fill: rgb(128, 139, 164); fill-opacity: 1;"/></g><g class="g-gtitle"/><g class="g-xtitle"/><g class="g-ytitle"/></g></svg>