<svg class="main-svg" xmlns="http://www.w3.org/2000/svg" xmlns:xlink="http://www.w3.org/1999/xlink" width="1550" height="700" style="" viewBox="0 0 1550 700"><rect x="0" y="0" width="1550" height="700" style="fill: rgb(255, 255, 255); fill-opacity: 1;"/><defs id="defs-44c491"><g class="clips"><clipPath id="clip44c491xyplot" class="plotclip"><rect width="1358" height="528"/></clipPath><clipPath class="axesclip" id="clip44c491x"><rect x="104" y="0" width="1358" height="700"/></clipPath><clipPath class="axesclip" id="clip44c491y"><rect x="0" y="86" width="1550" height="528"/></clipPath><clipPath class="axesclip" id="clip44c491xy"><rect x="104" y="86" width="1358" height="528"/></clipPath></g><g class="gradients"/><g class="patterns"/></defs><g class="bglayer"/><g class="layer-below"><g class="imagelayer"/><g class="shapelayer"/></g><g class="cartesianlayer"><g class="subplot xy"><g class="layer-subplot"><g class="shapelayer"/><g class="imagelayer"/></g><g class="minor-gridlayer"><g class="x"/><g class="y"/></g><g class="gridlayer"><g class="x"/><g class="y"><path class="ygrid crisp" transform="translate(0,544.6600000000001)" d="M104,0h1358" style="stroke: rgb(232, 235, 239); stroke-opacity: 1; stroke-width: 1px;"/><path class="ygrid crisp" transform="translate(0,449.24)" d="M104,0h1358" style="stroke: rgb(232, 235, 239); stroke-opacity: 1; stroke-width: 1px;"/><path class="ygrid crisp" transform="translate(0,353.82)" d="M104,0h1358" style="stroke: rgb(232, 235, 239); stroke-opacity: 1; stroke-width: 1px;"/><path class="ygrid crisp" transform="translate(0,258.4)" d="M104,0h1358" style="stroke: rgb(232, 235, 239); stroke-opacity: 1; stroke-width: 1px;"/><path class="ygrid crisp" transform="translate(0,162.97)" d="M104,0h1358" style="stroke: rgb(232, 235, 239); stroke-opacity: 1; stroke-width: 1px;"/></g></g><g class="zerolinelayer"/><g class="layer-between"><g class="shapelayer"/><g class="imagelayer"/></g><path class="xlines-below"/><path class="ylines-below"/><g class="overlines-below"/><g class="xaxislayer-below"/><g class="yaxislayer-below"/><g class="overaxes-below"/><g class="overplot"><g class="xy" transform="translate(104,86)" clip-path="url(#clip44c491xyplot)"><g class="scatterlayer mlayer"><g class="trace scatter tracecd178b" style="stroke-miterlimit: 2; opacity: 1;"><g class="fills"/><g class="errorbars"/><g class="lines"><path class="js-line" d="M14.88,242.05L22.32,237.28L26.04,235.37L29.76,234.42L40.93,234.42L70.69,233.47L74.41,235.37L93.01,234.42L96.73,233.47L104.18,232.51L107.9,229.65L122.78,229.65L126.5,227.74L130.22,226.31L133.94,226.31L145.1,224.88L148.82,222.97L152.54,220.11L156.26,215.33L200.91,191.48L204.63,183.85L208.35,172.4L212.07,167.62L234.39,165.72L238.12,165.72L253,165.72L256.72,160.94L267.88,155.22L279.04,153.31L282.76,148.54L286.48,146.63L312.53,145.68L316.25,143.77L319.97,141.38L331.13,139L342.29,135.18L346.01,133.27L360.89,130.41L364.61,127.55L394.38,127.55L398.1,132.32L412.98,134.23L416.7,131.36L424.14,127.07L435.3,124.21L439.02,121.34L442.75,116.57L446.47,109.42L468.79,97.97L472.51,89.38L476.23,86.52L487.39,72.2L491.11,72.2L502.27,59.61L513.44,64.47L520.88,64.47L524.6,61.71L528.32,52.16L539.48,52.16L550.64,52.16L554.36,50.26L569.24,45.48L576.68,38.33L580.41,29.26L591.57,27.83L595.29,29.26L599.01,29.26L602.73,31.17L606.45,31.17L621.33,27.83L625.05,26.4L651.1,26.4L654.82,29.26L658.54,57.89L669.7,76.97L673.42,86.52L677.14,86.52L684.58,85.56L695.74,83.65L706.9,75.07L710.62,75.07L725.51,74.11L729.23,73.16L732.95,71.25L736.67,71.25L751.55,72.2L755.27,75.07L773.87,75.07L788.76,89.38L799.92,94.15L803.64,94.15L825.96,94.15L829.68,92.24L840.84,90.33L852.01,90.33L863.17,84.61" style="vector-effect: none; fill: none; stroke: rgb(255, 0, 0); stroke-opacity: 1; stroke-width: 5px; opacity: 1;"/></g><g class="points"/><g class="text"/></g><g class="trace scatter trace2e6fef" style="stroke-miterlimit: 2; opacity: 1;"><g class="fills"/><g class="errorbars"/><g class="lines"><path class="js-line" d="M3.72,170.96L7.44,174.3L18.6,194.82L22.32,198.16L26.04,202.93L29.76,201.98L33.48,195.77L44.65,179.07L48.37,178.6L52.09,172.87L55.81,169.06L59.53,160.94L70.69,169.53L74.41,169.53L78.13,168.1L81.85,163.33L85.57,167.15L96.73,166.19L130.22,165.72L133.94,170.96L137.66,169.06L148.82,171.92L152.54,170.49L159.98,173.83L163.7,167.62L174.87,154.74L178.59,164.76L189.75,153.79L200.91,151.88L204.63,149.02L208.35,150.45L212.07,152.83L215.79,152.83L230.67,148.54L234.39,143.29L238.12,143.29L241.84,147.11L245.56,145.2L256.72,150.45L260.44,158.56L264.16,159.51L271.6,156.17L282.76,159.51L286.48,166.67L290.2,163.33L293.92,163.33L297.64,161.42L312.53,156.65L316.25,149.97L319.97,153.31L323.69,155.22L338.57,169.06L342.29,168.1L346.01,168.1L364.61,274.5L368.33,291.67L372.05,296.92L375.78,284.04L398.1,274.5L401.82,272.59L412.98,263.52L416.7,256.84L420.42,260.18L424.14,260.18L427.86,256.37L446.47,243.48L468.79,238.71L472.51,233.94L476.23,232.99L494.83,234.9L498.55,229.17L505.99,227.74L517.16,228.22L520.88,229.65L524.6,227.74L532.04,230.13L543.2,241.1L550.64,252.55L554.36,268.29L558.08,272.59L576.68,319.82L584.13,316.48L595.29,313.62L599.01,304.08L602.73,299.78L606.45,300.74L610.17,295.97L621.33,292.15L625.05,294.53L628.77,290.24L632.49,284.04L636.21,286.42L647.38,291.67L651.1,295.01L654.82,294.53L658.54,296.92L662.26,295.01L673.42,286.42L677.14,287.38L684.58,281.65L688.3,282.61L706.9,293.58L710.62,291.2L714.35,288.81L725.51,286.42L740.39,281.18L751.55,274.5L755.27,270.2L758.99,268.29L766.43,267.82L781.32,274.02L788.76,289.76L792.48,292.63L803.64,291.67L807.36,288.81L811.08,285.47L814.8,284.04L818.52,283.56L829.68,280.7L837.12,269.73L840.84,269.73L844.56,269.73L855.73,273.07L859.45,269.73L863.17,274.02L866.89,275.45L870.61,272.59L881.77,269.25L885.49,266.86L889.21,260.18L892.93,261.14L896.65,263.05L907.81,257.8L915.25,255.41L918.98,248.26L933.86,242.05L937.58,239.67L948.74,251.6L959.9,258.27L963.62,253.98L967.34,252.07L974.78,263.05L985.95,264.48L989.67,263.52L993.39,260.18L997.11,257.8L1000.83,257.8L1015.71,264.95L1049.19,261.14L1052.92,253.5L1064.08,258.75L1067.8,268.29L1071.52,271.16L1075.24,267.82L1078.96,265.91L1090.12,263.52L1093.84,261.14L1105,244.92L1116.16,237.76L1119.88,235.85L1123.61,236.8L1131.05,236.33L1142.21,249.69L1209.18,239.67L1272.43,255.89L1298.47,255.89L1302.19,253.5L1313.35,247.3L1324.52,247.3L1335.68,247.3L1339.4,245.87L1354.28,243.96" style="vector-effect: none; fill: none; stroke: rgb(0, 0, 255); stroke-opacity: 1; stroke-width: 4px; opacity: 1;"/></g><g class="points"/><g class="text"/></g><g class="trace scatter trace930020" style="stroke-miterlimit: 2; opacity: 1;"><g class="fills"/><g class="errorbars"/><g class="lines"><path class="js-line" d="M3.72,304.55L7.44,304.08L11.16,301.21L14.88,300.74L26.04,305.51L29.76,307.42L33.48,307.42L52.09,295.01L55.81,290.72L59.53,286.9L63.25,286.9L66.97,282.13L78.13,276.4L81.85,277.36L85.57,275.93L89.29,272.11L93.01,264.48L104.18,258.75L107.9,258.27L111.62,253.98L115.34,253.5L119.06,254.93L130.22,254.93L133.94,254.46L137.66,255.41L141.38,257.8L145.1,257.8L182.31,248.73L186.03,244.44L193.47,243.48L197.19,241.1L212.07,232.99L215.79,232.51L219.51,226.79L223.23,229.65L238.12,231.08L241.84,226.79L249.28,226.31L260.44,222.97L267.88,217.24L271.6,215.81L275.32,214.38L286.48,201.98L290.2,194.82L293.92,194.82L301.36,196.73L312.53,220.58L316.25,220.58L319.97,222.01L327.41,222.97L338.57,223.45L346.01,220.58L368.33,217.24L372.05,214.86L375.78,211.04L401.82,221.54L405.54,224.88L416.7,226.31L420.42,221.54L424.14,222.97L427.86,226.31L431.58,226.31L442.75,231.56L446.47,229.17L472.51,218.2L479.95,215.33L494.83,212.47L498.55,213.43L502.27,207.22L520.88,192.91L524.6,188.62L535.76,177.64L546.92,166.19L550.64,166.19L554.36,158.08L561.8,149.02L576.68,153.31L580.41,154.74L584.13,153.79L587.85,153.79L602.73,140.43L606.45,145.2L610.17,145.68L613.89,143.77L625.05,160.94L628.77,164.28L632.49,171.92L636.21,175.26L639.93,172.87L651.1,182.89L654.82,189.57L658.54,186.71L662.26,186.71L665.98,192.91L677.14,196.73L680.86,201.02L684.58,199.59L688.3,199.59L692.02,211.04L710.62,241.58L714.35,240.62L729.23,238.71L732.95,241.58L736.67,243.01L740.39,235.37L744.11,235.37L758.99,233.94L762.71,236.33L766.43,233.47L770.15,235.37L785.04,231.08L788.76,234.9L792.48,233.47L811.08,224.88L814.8,223.45L818.52,220.58L822.24,220.58L837.12,210.09L840.84,209.13L848.28,209.61L859.45,209.13L863.17,206.75L866.89,206.75L874.33,205.79L885.49,201.02L889.21,199.11L892.93,194.34L900.37,188.62L911.53,190.05L915.25,194.34L918.98,202.93L922.7,207.22L926.42,209.61L937.58,205.32L941.3,201.5L948.74,197.68L952.46,197.68L971.06,187.66L974.78,182.41L978.5,177.64L989.67,189.57L993.39,197.68L997.11,192.91L1000.83,181.46L1004.55,180.03L1015.71,172.87L1045.47,175.73L1049.19,175.26L1052.92,176.21L1056.64,178.6L1071.52,176.69L1075.24,173.83L1078.96,180.51L1082.68,178.6L1093.84,177.64L1097.56,181.94L1105,180.03L1108.72,182.41L1119.88,181.94L1123.61,191L1127.33,191.48L1134.77,191.48L1145.93,188.14L1149.65,190.05L1153.37,188.14L1157.09,183.37L1160.81,176.21L1171.97,169.53L1175.69,173.83L1179.41,184.8L1183.13,191.96L1186.85,197.68L1198.02,200.54L1201.74,201.5L1205.46,199.11L1209.18,191.96L1212.9,191.96L1227.78,187.66L1231.5,183.37L1238.94,170.49L1250.1,167.62L1264.99,151.4L1276.15,139.95L1283.59,140.91L1287.31,139.47L1291.03,137.57L1302.19,143.29L1305.91,140.91L1309.63,143.77L1313.35,145.2L1317.07,152.83L1328.24,179.55L1331.96,181.94L1335.68,183.37L1339.4,177.17L1343.12,174.3" style="vector-effect: none; fill: none; stroke: rgb(0, 128, 0); stroke-opacity: 1; stroke-width: 4px; opacity: 1;"/></g><g class="points"/><g class="text"/></g><g class="trace scatter tracec155b6" style="stroke-miterlimit: 2; opacity: 1;"><g class="fills"/><g class="errorbars"/><g class="lines"><path class="js-line" d="M7.44,373.73L11.16,371.35L14.88,368.01L18.6,372.3L29.76,368.01L33.48,370.4L37.21,370.4L40.93,370.4L44.65,368.96L55.81,368.96L59.53,370.87L63.25,369.92L66.97,368.01L70.69,371.35L107.9,356.08L115.34,360.38L119.06,361.33L122.78,367.53L133.94,367.53L137.66,368.01L141.38,369.92L145.1,368.96L148.82,368.96L159.98,372.3L163.7,375.64L167.42,374.69L171.15,372.3L174.87,368.96L189.75,366.1L200.91,357.51L212.07,360.38L215.79,367.53L223.23,365.62L230.67,361.81L245.56,362.76L249.28,364.19L253,364.19L256.72,366.58L267.88,376.6L271.6,378.98L275.32,377.07L279.04,377.55L282.76,384.71L293.92,384.71L297.64,383.75L301.36,387.57L305.08,384.23L319.97,382.8L323.69,382.8L327.41,378.98L331.13,378.51L334.85,376.6L346.01,375.64L349.73,371.35L360.89,376.6L372.05,379.46L375.78,378.03L379.5,377.07L401.82,374.21L409.26,363.24L412.98,363.24L424.14,365.62L427.86,369.44L431.58,361.81L435.3,362.76L439.02,363.24L476.23,366.58L479.95,365.15L483.67,362.76L487.39,364.19L491.11,363.24L505.99,365.62L513.44,365.15L517.16,364.19L528.32,363.72L535.76,365.15L539.48,366.58L543.2,363.72L554.36,373.26L558.08,369.92L561.8,368.49L569.24,368.01L584.13,367.53L587.85,366.58L591.57,367.53L595.29,367.06L606.45,367.06L613.89,368.96L617.61,368.01L621.33,368.49L632.49,368.01L636.21,367.53L639.93,369.44L658.54,363.24L662.26,365.15L669.7,365.15L673.42,367.06L684.58,363.72L688.3,363.72L692.02,365.15L695.74,364.67L699.46,363.72L710.62,363.72L714.35,362.76L718.07,363.24L721.79,362.76L725.51,363.72L736.67,366.58L744.11,380.41L747.83,381.85L751.55,381.85L770.15,379.46L773.87,379.94L788.76,379.46L799.92,385.19L803.64,389L814.8,390.91L818.52,388.53L822.24,388.53L829.68,386.14L844.56,384.23L852.01,383.75L855.73,383.75L866.89,380.41L870.61,378.03L881.77,370.4L892.93,366.58L896.65,363.72L900.37,363.24L904.09,362.76L907.81,357.99L918.98,350.36L922.7,349.4L926.42,348.45L930.14,346.54L933.86,348.45L945.02,346.54L948.74,340.81L952.46,340.81L959.9,337.47L971.06,334.13L974.78,334.61L978.5,331.75L982.22,330.32L985.95,330.8L997.11,325.55L1000.83,326.02L1004.55,326.5L1008.27,325.55L1052.92,308.37L1056.64,305.51L1060.36,299.31L1075.24,287.38L1078.96,281.65L1082.68,279.27L1086.4,274.97L1090.12,276.88L1105,287.38L1108.72,284.99L1112.44,284.52L1116.16,287.38L1131.05,315.05L1134.77,315.05L1138.49,315.05L1142.21,316L1153.37,312.19L1157.09,316L1160.81,315.53L1164.53,312.19L1186.85,304.08L1190.58,301.69L1194.3,302.17L1205.46,302.17L1212.9,310.28L1216.62,311.23L1220.34,309.33L1231.5,309.33L1235.22,305.03L1238.94,304.08L1242.66,305.99L1246.38,308.85L1264.99,319.82L1268.71,329.84L1272.43,326.98L1287.31,320.78L1291.03,318.39L1294.75,322.21L1298.47,321.73L1309.63,318.87L1313.35,318.87L1317.07,319.82L1324.52,315.53L1335.68,310.76L1339.4,310.28L1343.12,308.37L1346.84,305.51" style="vector-effect: none; fill: none; stroke: rgb(148, 103, 189); stroke-opacity: 1; stroke-width: 3.2px; opacity: 1;"/></g><g class="points"/><g class="text"/></g><g class="trace scatter trace9f774f" style="stroke-miterlimit: 2; opacity: 1;"><g class="fills"/><g class="errorbars"/><g class="lines"><path class="js-line" d="M11.16,304.55L18.6,295.97L22.32,295.97L33.48,295.01L37.21,287.86L40.93,286.9L44.65,283.08L48.37,278.79L59.53,282.61L63.25,284.99L66.97,281.65L70.69,275.93L74.41,277.36L85.57,282.61L89.29,287.38L96.73,284.04L100.45,285.47L141.38,274.5L145.1,272.59L148.82,270.68L152.54,270.68L163.7,267.82L167.42,263.05L174.87,265.91L178.59,264L189.75,261.61L193.47,258.27L200.91,258.27L204.63,255.41L215.79,255.41L223.23,257.8L226.95,257.8L230.67,256.37L234.39,258.27L245.56,260.18L249.28,264.95L253,264.95L256.72,258.27L260.44,262.57L271.6,264L275.32,266.39L279.04,269.73L282.76,274.5L286.48,279.74L297.64,272.59L305.08,268.29L308.81,267.72L312.53,264.95L323.69,264L327.41,264L331.13,266.39L338.57,259.23L360.89,257.8L364.61,263.05L375.78,262.57L379.5,262.57L401.82,267.82L405.54,267.82L409.26,268.77L416.7,273.07L427.86,273.07L431.58,273.07L435.3,301.69L439.02,304.08L442.75,305.51L465.07,291.67L468.79,295.97L479.95,268.29L483.67,301.69L487.39,303.6L491.11,302.17L513.44,294.53L517.16,296.92L520.88,294.53L532.04,292.15L535.76,290.24L539.48,290.24L546.92,286.9L558.08,284.04L561.8,282.61L565.52,280.22L569.24,279.27L584.13,274.5L591.57,279.27L595.29,279.27L599.01,278.31L610.17,281.18L617.61,291.67L621.33,294.06L625.05,291.2L636.21,293.58L639.93,293.58L643.65,294.53L647.38,295.97L651.1,293.58L662.26,289.76L665.98,289.76L669.7,287.86L673.42,287.86L677.14,287.86L688.3,283.08L692.02,283.08L695.74,288.81L699.46,292.63L703.18,292.63L714.35,289.29L718.07,286.9L740.39,296.44L744.11,292.63L747.83,287.38L751.55,289.29L755.27,290.24L766.43,289.95L770.15,287.86L773.87,289.76L781.32,289.76L792.48,292.63L799.92,298.35L803.64,295.01L807.36,297.4L818.52,295.97L822.24,294.53L825.96,298.35L829.68,303.12L844.56,305.99L848.28,312.67L852.01,315.53L855.73,313.14L859.45,313.14L874.33,315.53L878.05,313.62L881.77,316.96L885.49,322.68L900.37,332.23L904.09,338.91L907.81,344.15L911.53,344.15L922.7,364.19L926.42,366.58L930.14,366.58L933.86,372.3L937.58,374.69L952.46,373.73L956.18,368.96L959.9,367.53L963.62,364.19L974.78,366.58L978.5,366.39L982.22,367.53L985.95,360.85L989.67,358.94L1000.83,363.24L1004.55,358.47L1008.27,353.22L1011.99,350.83L1015.71,350.83L1052.92,346.54L1056.64,340.81L1060.36,340.81L1067.8,340.81L1078.96,342.25L1086.4,345.11L1090.12,347.49L1093.84,355.6L1108.72,364.19L1116.16,368.49L1119.88,368.49L1131.05,385.19L1134.77,392.82L1138.49,396.16L1142.21,396.16L1145.93,392.82L1157.09,385.19L1160.81,379.94L1164.53,377.07L1168.25,377.07L1171.97,383.75L1183.13,383.75L1186.85,379.94L1194.3,379.94L1198.02,380.89L1212.9,387.09L1216.62,385.19L1220.34,380.41L1224.06,381.85L1235.22,381.85L1238.94,378.98L1246.38,374.69L1250.1,373.73L1264.99,372.3L1268.71,363.24L1276.15,358.94L1291.03,358.94L1294.75,356.08L1298.47,356.08L1302.19,354.65L1313.35,354.65L1320.79,361.33L1324.52,362.76L1328.24,368.01L1339.4,372.78L1343.12,370.87L1346.84,372.3L1350.56,373.73" style="vector-effect: none; fill: none; stroke: rgb(23, 190, 207); stroke-opacity: 1; stroke-width: 3.2px; opacity: 1;"/></g><g class="points"/><g class="text"/></g><g class="trace scatter tracefd7e4c" style="stroke-miterlimit: 2; opacity: 1;"><g class="fills"/><g class="errorbars"/><g class="lines"><path class="js-line" d="M11.16,391.87L14.88,381.37L18.6,377.55L22.32,376.12L26.04,368.49L37.21,371.35L40.93,379.46L44.65,379.46L48.37,374.69L52.09,372.78L63.25,368.01L66.97,361.33L70.69,366.1L74.41,368.01L78.13,368.01L89.29,374.69L93.01,380.89L96.73,382.32L100.45,380.89L104.18,380.89L115.34,373.73L119.06,373.73L122.78,372.78L126.5,372.78L130.22,369.92L137.66,369.92L141.38,367.06L145.1,361.81L148.82,361.33L178.59,349.4L182.31,346.06L186.03,346.06L193.47,339.38L197.19,325.07L200.91,319.82L204.63,312.67L208.35,312.67L223.23,322.21L226.95,334.61L230.67,342.72L234.39,337.47L238.12,334.61L249.28,322.21L253,318.39L256.72,316.96L260.44,310.76L264.16,306.94L275.32,300.74L279.04,300.74L282.76,299.31L286.48,296.44L290.2,294.53L301.36,302.65L305.08,300.74L308.81,305.99L316.25,320.3L327.41,325.07L331.13,325.07L334.85,329.84L338.57,329.84L342.29,333.66L357.17,323.16L360.89,323.16L364.61,321.73L368.33,324.12L379.5,333.18L394.38,334.61L412.98,337.47L416.7,333.18L420.42,328.41L431.58,326.02L435.3,325.07L439.02,326.98L446.47,320.3L468.79,305.99L472.51,298.83L487.39,296.44L494.83,296.44L498.55,305.99L509.72,315.53L513.44,315.53L517.16,314.1L520.88,316.48L524.6,316.48L535.76,310.76L539.48,305.99L546.92,304.55L550.64,301.21L561.8,308.85L565.52,318.39L569.24,318.39L572.96,325.07L576.68,325.07L595.29,317.44L599.01,317.44L602.73,319.82L617.61,334.61L621.33,337.95L625.05,339.38L628.77,342.25L639.93,342.25L643.65,341.29L647.38,338.91L651.1,337.47L654.82,331.27L665.98,329.36L669.7,329.84L673.42,334.61L677.14,344.15L680.86,347.49L692.02,347.49L699.46,337.47L703.18,338.91L706.9,340.34L718.07,337L721.79,334.61L725.51,334.61L729.23,334.61L732.95,329.84L744.11,325.07L747.83,328.41L751.55,334.61L755.27,334.61L758.99,330.32L773.87,317.44L781.32,312.67L785.04,308.85L796.2,305.99L799.92,307.89L803.64,310.28L807.36,308.37L811.08,304.55L822.24,294.53L825.96,292.15L829.68,292.15L848.28,286.9L852.01,282.61L855.73,277.36L859.45,277.36L863.17,285.47L874.33,288.81L878.05,287.86L881.77,287.86L885.49,289.76L889.21,299.31L900.37,313.62L904.09,313.62L911.53,320.78L915.25,320.78L930.14,315.53L933.86,320.78L941.3,326.02L952.46,320.78L963.62,308.85L967.34,306.94L985.95,323.64L989.67,325.07L993.39,325.07L1004.55,324.12L1015.71,308.37L1045.47,295.01L1060.36,284.52L1067.8,284.04L1071.52,286.9L1082.68,291.2L1086.4,288.81L1090.12,281.65L1093.84,277.36L1097.56,274.5L1108.72,291.67L1112.44,293.58L1116.16,283.08L1119.88,279.27L1134.77,277.36L1138.49,282.13L1142.21,282.13L1145.93,284.52L1149.65,289.76L1160.81,292.63L1164.53,291.2L1168.25,292.15L1171.97,290.24L1175.69,289.29L1186.85,284.52L1190.58,279.74L1194.3,275.45L1198.02,279.27L1201.74,278.31L1212.9,277.36L1220.34,272.11L1224.06,271.16L1227.78,271.16L1238.94,280.7L1250.1,279.74L1253.82,282.13L1276.15,291.67L1279.87,294.53L1294.75,287.86L1298.47,287.86L1302.19,289.29L1305.91,289.38L1317.07,295.97L1320.79,302.17L1328.24,305.99L1331.96,305.99L1343.12,310.76L1346.84,310.76L1350.56,308.85L1354.28,307.89" style="vector-effect: none; fill: none; stroke: rgb(227, 119, 194); stroke-opacity: 1; stroke-width: 3.2px; opacity: 1;"/></g><g class="points"/><g class="text"/></g><g class="trace scatter trace68073e" style="stroke-miterlimit: 2; opacity: 1;"><g class="fills"/><g class="errorbars"/><g class="lines"><path class="js-line" d="M3.72,415.72L18.6,415.72L22.32,410.95L26.04,409.04L29.76,409.04L33.48,410.95L44.65,408.56L52.09,404.27L55.81,403.32L59.53,401.41L66.97,401.41L74.41,401.41L78.13,406.18L81.85,408.56L122.78,427.17L126.5,436.71L130.22,436.71L133.94,436.71L137.66,431.94L156.26,431.94L159.98,425.26L163.7,423.35L174.87,420.49L178.59,418.58L182.31,413.81L189.75,408.56L200.91,410L204.63,414.77L208.35,417.15L212.07,413.33L215.79,413.33L226.95,431.94L230.67,430.03L234.39,430.03L238.12,427.17L241.84,427.17L253,429.08L256.72,450.55L260.44,444.35L264.16,444.35L267.88,446.73L279.04,446.73L282.76,445.3L286.48,444.35L290.2,449.12L293.92,463.43L305.08,468.2L308.81,472.97L312.53,475.84L316.25,477.74L319.97,482.52L331.13,492.06L334.85,501.6L346.01,501.6L360.89,499.69L364.61,498.26L368.33,492.06L372.05,490.15L383.22,490.15L390.66,487.29L394.38,484.9L398.1,483.47L409.26,483.47L412.98,481.56L416.7,484.9L420.42,490.15L424.14,490.15L431.58,490.15L435.3,489.2L439.02,486.33L442.75,487.29L446.47,486.33L468.79,486.33L472.51,490.15L476.23,488.24L487.39,488.24L491.11,482.52L494.83,482.52L498.55,484.9L513.44,485.38L517.16,482.52L520.88,481.08L524.6,478.7L528.32,473.93L539.48,475.36L543.2,473.93L546.92,475.36L550.64,470.11L554.36,468.2L565.52,468.2L569.24,465.34L572.96,465.34L576.68,461.05L580.41,458.66L591.57,449.12L595.29,442.92L599.01,441.48L602.73,439.58L606.45,441.01L617.61,446.73L621.33,446.73L628.77,446.73L632.49,445.3L643.65,441.01L647.38,438.62L665.98,438.62L669.7,437.67L673.42,437.67L677.14,439.58L680.86,441.96L684.58,441.01L699.46,441.01L703.18,437.19L706.9,435.76L710.62,435.76L721.79,438.62L725.51,438.62L729.23,437.67L732.95,437.67L736.67,437.67L747.83,440.53L751.55,438.62L755.27,441.01L758.99,441.01L762.71,439.58L777.59,439.58L781.32,438.62L788.76,436.71L799.92,436.71L803.64,436.71L807.36,435.76L811.08,434.8L814.8,432.42L825.96,424.31L829.68,422.88L852.01,422.4L855.73,420.49L863.17,418.11L866.89,416.67L878.05,416.67L881.77,411.9L885.49,408.56L889.21,396.64L892.93,400.45L904.09,394.25L911.53,389L915.25,389L930.14,389L933.86,398.54L937.58,400.45L941.3,407.13L945.02,410.95L956.18,410.95L963.62,405.22L967.34,404.27L971.06,404.27L982.22,401.41L985.95,396.64L989.67,399.5L993.39,400.93L997.11,399.98L1004.55,399.98L1008.27,394.73L1015.71,392.34L1049.19,394.25L1052.92,394.25L1060.36,390.43L1064.08,390.43L1067.8,381.37L1071.52,377.55L1075.24,377.55L1086.4,373.73L1090.12,369.92L1093.84,360.38L1097.56,356.56L1101.28,356.56L1112.44,334.61L1116.16,322.68L1119.88,316.48L1123.61,311.71L1127.33,318.39L1138.49,354.65L1142.21,374.21L1145.93,374.21L1149.65,378.03L1153.37,374.69L1164.53,378.03L1168.25,380.41L1171.97,380.41L1175.69,377.55L1179.41,372.78L1190.58,369.92L1194.3,369.92L1201.74,379.94L1205.46,379.94L1216.62,377.55L1220.34,371.35L1227.78,368.96L1231.5,367.06L1242.66,358.47L1246.38,357.04L1250.1,355.13L1253.82,350.36L1257.55,350.36L1268.71,353.7L1279.87,375.17L1283.59,377.55L1294.75,377.55L1298.47,368.01L1302.19,368.01L1305.91,367.06L1320.79,363.24L1324.52,363.24L1328.24,375.17L1331.96,382.32L1335.68,382.32L1346.84,381.37L1350.56,384.71L1354.28,389.48L1358,389.48" style="vector-effect: none; fill: none; stroke: rgb(188, 189, 34); stroke-opacity: 1; stroke-width: 3.2px; opacity: 1;"/></g><g class="points"/><g class="text"/></g><g class="trace scatter trace194e18" style="stroke-miterlimit: 2; opacity: 1;"><g class="fills"/><g class="errorbars"/><g class="lines"><path class="js-line" d="M3.72,415.72L7.44,415.72L11.16,410.95L22.32,406.18L26.04,406.18L29.76,396.64L33.48,401.41L48.37,401.41L52.09,406.18L63.25,406.18L74.41,396.64L81.85,396.64L85.57,401.41L100.45,401.41L104.18,406.18L111.62,406.18L115.34,415.72L122.78,415.72L152.54,410.95L159.98,410.95L163.7,406.18L167.42,410.95L178.59,406.18L182.31,406.18L186.03,391.87L193.47,391.87L204.63,387.09L208.35,387.09L212.07,382.32L215.79,377.55L223.23,372.78L234.39,363.24L238.12,363.24L241.84,358.47L245.56,358.47L249.28,363.24L260.44,363.24L264.16,358.47L267.88,358.47L271.6,358.47L275.32,363.24L286.48,363.24L290.2,358.47L301.36,358.47L312.53,363.24L342.29,363.24L346.01,358.47L364.61,358.47L368.33,348.93L398.1,348.93L401.82,353.7L442.75,353.7L446.47,348.93L468.79,348.93L472.51,344.15L483.67,344.15L494.83,348.93L498.55,348.93L502.27,353.7L505.99,353.7L509.72,348.93L520.88,348.93L524.6,344.15L580.41,344.15L584.13,339.38L628.77,339.38L632.49,337.47L639.93,337.47L651.1,339.38L654.82,344.15L658.54,344.15L662.26,346.06L665.98,346.06L677.14,348.93L680.86,358.47L684.58,363.24L688.3,370.4L692.02,375.17L703.18,375.17L706.9,384.71L710.62,387.09L714.35,391.87L718.07,391.87L729.23,394.73L732.95,394.73L744.11,394.73L755.27,391.87L766.43,391.87L770.15,396.64L781.32,396.64L785.04,415.72L788.76,420.49L792.48,422.4L796.2,427.17L807.36,439.58L811.08,444.35L814.8,444.35L818.52,444.35L822.24,439.58L848.28,439.58L859.45,434.8L866.89,434.8L870.61,432.9L874.33,430.03L885.49,437.19L889.21,437.19L892.93,432.42L896.65,432.42L900.37,434.8L915.25,434.8L918.98,430.03L926.42,420.49L937.58,422.4L941.3,425.26L945.02,425.26L963.62,425.26L967.34,422.88L971.06,422.88L974.78,425.26L997.11,425.26L1000.83,427.65L1004.55,429.08L1011.99,429.08L1015.71,434.8L1045.47,463.43L1049.19,458.66L1052.92,458.66L1056.64,456.27L1060.36,456.27L1067.8,456.27L1071.52,453.89L1075.24,453.89L1078.96,451.5L1082.68,449.12L1093.84,449.12L1097.56,447.21L1101.28,447.21L1108.72,447.21L1119.88,439.58L1123.61,444.35L1127.33,444.35L1131.05,441.96L1134.77,441.96L1149.65,444.35L1153.37,439.58L1160.81,434.8L1171.97,434.8L1175.69,436.71L1179.41,434.8L1205.46,434.8L1209.18,430.03L1212.9,425.26L1224.06,422.4L1227.78,420.49L1231.5,420.49L1253.82,420.49L1257.55,422.4L1261.27,422.4L1264.99,412.86L1279.87,410.95L1283.59,409.04L1287.31,409.04L1291.03,406.18L1309.63,406.18L1313.35,408.56L1317.07,415.72L1328.24,415.72L1331.96,415.72L1335.68,413.81L1343.12,417.63L1354.28,417.63L1358,417.63" style="vector-effect: none; fill: none; stroke: rgb(140, 86, 75); stroke-opacity: 1; stroke-width: 3.2px; opacity: 1;"/></g><g class="points"/><g class="text"/></g></g></g></g><path class="xlines-above crisp" d="M0,0" style="fill: none;"/><path class="ylines-above crisp" d="M103.5,86V614" style="fill: none; stroke-width: 1px; stroke: rgb(170, 178, 187); stroke-opacity: 1;"/><g class="overlines-above"/><g class="xaxislayer-above"><g class="xtick"><text text-anchor="end" x="0" y="631" transform="translate(104,0) rotate(-45,0,623)" style="font-family: 'Open Sans', verdana, arial, sans-serif; font-size: 16px; fill: rgb(68, 68, 68); fill-opacity: 1; white-space: pre; opacity: 1;">01-01</text></g><g class="xtick"><text text-anchor="end" x="0" y="631" style="font-family: 'Open Sans', verdana, arial, sans-serif; font-size: 16px; fill: rgb(68, 68, 68); fill-opacity: 1; white-space: pre; opacity: 1;" transform="translate(219.34,0) rotate(-45,0,623)">02-01</text></g><g class="xtick"><text text-anchor="end" x="0" y="631" style="font-family: 'Open Sans', verdana, arial, sans-serif; font-size: 16px; fill: rgb(68, 68, 68); fill-opacity: 1; white-space: pre; opacity: 1;" transform="translate(327.23,0) rotate(-45,0,623)">03-01</text></g><g class="xtick"><text text-anchor="end" x="0" y="631" style="font-family: 'Open Sans', verdana, arial, sans-serif; font-size: 16px; fill: rgb(68, 68, 68); fill-opacity: 1; white-space: pre; opacity: 1;" transform="translate(442.57,0) rotate(-45,0,623)">04-01</text></g><g class="xtick"><text text-anchor="end" x="0" y="631" style="font-family: 'Open Sans', verdana, arial, sans-serif; font-size: 16px; fill: rgb(68, 68, 68); fill-opacity: 1; white-space: pre; opacity: 1;" transform="translate(554.19,0) rotate(-45,0,623)">05-01</text></g><g class="xtick"><text text-anchor="end" x="0" y="631" style="font-family: 'Open Sans', verdana, arial, sans-serif; font-size: 16px; fill: rgb(68, 68, 68); fill-opacity: 1; white-space: pre; opacity: 1;" transform="translate(669.52,0) rotate(-45,0,623)">06-01</text></g><g class="xtick"><text text-anchor="end" x="0" y="631" style="font-family: 'Open Sans', verdana, arial, sans-serif; font-size: 16px; fill: rgb(68, 68, 68); fill-opacity: 1; white-space: pre; opacity: 1;" transform="translate(781.14,0) rotate(-45,0,623)">07-01</text></g><g class="xtick"><text text-anchor="end" x="0" y="631" style="font-family: 'Open Sans', verdana, arial, sans-serif; font-size: 16px; fill: rgb(68, 68, 68); fill-opacity: 1; white-space: pre; opacity: 1;" transform="translate(896.48,0) rotate(-45,0,623)">08-01</text></g><g class="xtick"><text text-anchor="end" x="0" y="631" style="font-family: 'Open Sans', verdana, arial, sans-serif; font-size: 16px; fill: rgb(68, 68, 68); fill-opacity: 1; white-space: pre; opacity: 1;" transform="translate(1011.81,0) rotate(-45,0,623)">09-01</text></g><g class="xtick"><text text-anchor="end" x="0" y="631" style="font-family: 'Open Sans', verdana, arial, sans-serif; font-size: 16px; fill: rgb(68, 68, 68); fill-opacity: 1; white-space: pre; opacity: 1;" transform="translate(1123.4299999999998,0) rotate(-45,0,623)">10-01</text></g><g class="xtick"><text text-anchor="end" x="0" y="631" style="font-family: 'Open Sans', verdana, arial, sans-serif; font-size: 16px; fill: rgb(68, 68, 68); fill-opacity: 1; white-space: pre; opacity: 1;" transform="translate(1238.77,0) rotate(-45,0,623)">11-01</text></g><g class="xtick"><text text-anchor="end" x="0" y="631" style="font-family: 'Open Sans', verdana, arial, sans-serif; font-size: 16px; fill: rgb(68, 68, 68); fill-opacity: 1; white-space: pre; opacity: 1;" transform="translate(1350.38,0) rotate(-45,0,623)">12-01</text></g></g><g class="yaxislayer-above"><path class="ytick ticks crisp" d="M103,0h-5" transform="translate(0,544.6600000000001)" style="stroke: rgb(170, 178, 187); stroke-opacity: 1; stroke-width: 1px;"/><path class="ytick ticks crisp" d="M103,0h-5" transform="translate(0,449.24)" style="stroke: rgb(170, 178, 187); stroke-opacity: 1; stroke-width: 1px;"/><path class="ytick ticks crisp" d="M103,0h-5" transform="translate(0,353.82)" style="stroke: rgb(170, 178, 187); stroke-opacity: 1; stroke-width: 1px;"/><path class="ytick ticks crisp" d="M103,0h-5" transform="translate(0,258.4)" style="stroke: rgb(170, 178, 187); stroke-opacity: 1; stroke-width: 1px;"/><path class="ytick ticks crisp" d="M103,0h-5" transform="translate(0,162.97)" style="stroke: rgb(170, 178, 187); stroke-opacity: 1; stroke-width: 1px;"/><g class="ytick"><text text-anchor="end" x="94" y="7" transform="translate(0,544.6600000000001)" style="font-family: 'Open Sans', verdana, arial, sans-serif; font-size: 20px; fill: rgb(0, 0, 255); fill-opacity: 1; white-space: pre; opacity: 1;">30</text></g><g class="ytick"><text text-anchor="end" x="94" y="7" style="font-family: 'Open Sans', verdana, arial, sans-serif; font-size: 20px; fill: rgb(0, 0, 255); fill-opacity: 1; white-space: pre; opacity: 1;" transform="translate(0,449.24)">40</text></g><g class="ytick"><text text-anchor="end" x="94" y="7" style="font-family: 'Open Sans', verdana, arial, sans-serif; font-size: 20px; fill: rgb(0, 0, 255); fill-opacity: 1; white-space: pre; opacity: 1;" transform="translate(0,353.82)">50</text></g><g class="ytick"><text text-anchor="end" x="94" y="7" style="font-family: 'Open Sans', verdana, arial, sans-serif; font-size: 20px; fill: rgb(0, 0, 255); fill-opacity: 1; white-space: pre; opacity: 1;" transform="translate(0,258.4)">60</text></g><g class="ytick"><text text-anchor="end" x="94" y="7" style="font-family: 'Open Sans', verdana, arial, sans-serif; font-size: 20px; fill: rgb(0, 0, 255); fill-opacity: 1; white-space: pre; opacity: 1;" transform="translate(0,162.97)">70</text></g></g><g class="overaxes-above"/></g></g><g class="polarlayer"/><g class="smithlayer"/><g class="ternarylayer"/><g class="geolayer"/><g class="funnelarealayer"/><g class="pielayer"/><g class="iciclelayer"/><g class="treemaplayer"/><g class="sunburstlayer"/><g class="glimages"/><defs id="topdefs-44c491"><g class="clips"/><clipPath id="legend44c491"><rect width="868" height="41" x="0" y="0"/></clipPath></defs><g class="layer-above"><g class="imagelayer"/><g class="shapelayer"/></g><g class="infolayer"><g class="legend" pointer-events="all" transform="translate(349,34.44)"><rect class="bg" shape-rendering="crispEdges" width="868" height="41" x="0" y="0" style="stroke: rgb(68, 68, 68); stroke-opacity: 1; fill: rgb(255, 255, 255); fill-opacity: 1; stroke-width: 0px;"/><g class="scrollbox" transform="" clip-path="url(#legend44c491)"><g class="groups"><g class="traces" transform="translate(0,20.15)" style="opacity: 1;"><text class="legendtext" text-anchor="start" x="5" y="8.19" style="font-family: 'Open Sans', verdana, arial, sans-serif; font-size: 21px; fill: rgb(68, 68, 68); fill-opacity: 1; white-space: pre;">合艾杯胶</text><g class="layers"><g class="legendfill"/><g class="legendlines"/><g class="legendsymbols"><g class="legendpoints"/></g></g><rect class="legendtoggle" x="0" y="-15.15" width="97.859375" height="30.3" style="fill: rgb(0, 0, 0); fill-opacity: 0;"/></g><g class="traces" transform="translate(100.359375,19.5)" style="opacity: 1;"><text class="legendtext" text-anchor="start" x="40" y="7.8" style="font-family: 'Open Sans', verdana, arial, sans-serif; font-size: 20px; fill: rgb(68, 68, 68); fill-opacity: 1; white-space: pre;">2026</text><g class="layers" style="opacity: 1;"><g class="legendfill"/><g class="legendlines"><path class="js-line" d="M5,0h30" style="fill: none; stroke: rgb(255, 0, 0); stroke-opacity: 1; stroke-width: 5px;"/></g><g class="legendsymbols"><g class="legendpoints"/></g></g><rect class="legendtoggle" x="0" y="-14.5" width="93.359375" height="29" style="fill: rgb(0, 0, 0); fill-opacity: 0;"/></g><g class="traces" transform="translate(196.21875,19.5)" style="opacity: 1;"><text class="legendtext" text-anchor="start" x="40" y="7.8" style="font-family: 'Open Sans', verdana, arial, sans-serif; font-size: 20px; fill: rgb(68, 68, 68); fill-opacity: 1; white-space: pre;">2025</text><g class="layers" style="opacity: 1;"><g class="legendfill"/><g class="legendlines"><path class="js-line" d="M5,0h30" style="fill: none; stroke: rgb(0, 0, 255); stroke-opacity: 1; stroke-width: 4px;"/></g><g class="legendsymbols"><g class="legendpoints"/></g></g><rect class="legendtoggle" x="0" y="-14.5" width="93.359375" height="29" style="fill: rgb(0, 0, 0); fill-opacity: 0;"/></g><g class="traces" transform="translate(292.078125,19.5)" style="opacity: 1;"><text class="legendtext" text-anchor="start" x="40" y="7.8" style="font-family: 'Open Sans', verdana, arial, sans-serif; font-size: 20px; fill: rgb(68, 68, 68); fill-opacity: 1; white-space: pre;">2024</text><g class="layers" style="opacity: 1;"><g class="legendfill"/><g class="legendlines"><path class="js-line" d="M5,0h30" style="fill: none; stroke: rgb(0, 128, 0); stroke-opacity: 1; stroke-width: 4px;"/></g><g class="legendsymbols"><g class="legendpoints"/></g></g><rect class="legendtoggle" x="0" y="-14.5" width="93.359375" height="29" style="fill: rgb(0, 0, 0); fill-opacity: 0;"/></g><g class="traces" transform="translate(387.9375,19.5)" style="opacity: 1;"><text class="legendtext" text-anchor="start" x="40" y="7.8" style="font-family: 'Open Sans', verdana, arial, sans-serif; font-size: 20px; fill: rgb(68, 68, 68); fill-opacity: 1; white-space: pre;">2023</text><g class="layers" style="opacity: 1;"><g class="legendfill"/><g class="legendlines"><path class="js-line" d="M5,0h30" style="fill: none; stroke: rgb(148, 103, 189); stroke-opacity: 1; stroke-width: 3.2px;"/></g><g class="legendsymbols"><g class="legendpoints"/></g></g><rect class="legendtoggle" x="0" y="-14.5" width="93.359375" height="29" style="fill: rgb(0, 0, 0); fill-opacity: 0;"/></g><g class="traces" transform="translate(483.796875,19.5)" style="opacity: 1;"><text class="legendtext" text-anchor="start" x="40" y="7.8" style="font-family: 'Open Sans', verdana, arial, sans-serif; font-size: 20px; fill: rgb(68, 68, 68); fill-opacity: 1; white-space: pre;">2022</text><g class="layers" style="opacity: 1;"><g class="legendfill"/><g class="legendlines"><path class="js-line" d="M5,0h30" style="fill: none; stroke: rgb(23, 190, 207); stroke-opacity: 1; stroke-width: 3.2px;"/></g><g class="legendsymbols"><g class="legendpoints"/></g></g><rect class="legendtoggle" x="0" y="-14.5" width="93.359375" height="29" style="fill: rgb(0, 0, 0); fill-opacity: 0;"/></g><g class="traces" transform="translate(579.65625,19.5)" style="opacity: 1;"><text class="legendtext" text-anchor="start" x="40" y="7.8" style="font-family: 'Open Sans', verdana, arial, sans-serif; font-size: 20px; fill: rgb(68, 68, 68); fill-opacity: 1; white-space: pre;">2021</text><g class="layers" style="opacity: 1;"><g class="legendfill"/><g class="legendlines"><path class="js-line" d="M5,0h30" style="fill: none; stroke: rgb(227, 119, 194); stroke-opacity: 1; stroke-width: 3.2px;"/></g><g class="legendsymbols"><g class="legendpoints"/></g></g><rect class="legendtoggle" x="0" y="-14.5" width="93.359375" height="29" style="fill: rgb(0, 0, 0); fill-opacity: 0;"/></g><g class="traces" transform="translate(675.515625,19.5)" style="opacity: 1;"><text class="legendtext" text-anchor="start" x="40" y="7.8" style="font-family: 'Open Sans', verdana, arial, sans-serif; font-size: 20px; fill: rgb(68, 68, 68); fill-opacity: 1; white-space: pre;">2020</text><g class="layers" style="opacity: 1;"><g class="legendfill"/><g class="legendlines"><path class="js-line" d="M5,0h30" style="fill: none; stroke: rgb(188, 189, 34); stroke-opacity: 1; stroke-width: 3.2px;"/></g><g class="legendsymbols"><g class="legendpoints"/></g></g><rect class="legendtoggle" x="0" y="-14.5" width="93.359375" height="29" style="fill: rgb(0, 0, 0); fill-opacity: 0;"/></g><g class="traces" transform="translate(771.375,19.5)" style="opacity: 1;"><text class="legendtext" text-anchor="start" x="40" y="7.8" style="font-family: 'Open Sans', verdana, arial, sans-serif; font-size: 20px; fill: rgb(68, 68, 68); fill-opacity: 1; white-space: pre;">2019</text><g class="layers" style="opacity: 1;"><g class="legendfill"/><g class="legendlines"><path class="js-line" d="M5,0h30" style="fill: none; stroke: rgb(140, 86, 75); stroke-opacity: 1; stroke-width: 3.2px;"/></g><g class="legendsymbols"><g class="legendpoints"/></g></g><rect class="legendtoggle" x="0" y="-14.5" width="93.359375" height="29" style="fill: rgb(0, 0, 0); fill-opacity: 0;"/></g></g></g><rect class="scrollbar" rx="20" ry="3" width="0" height="0" x="0" y="0" style="fill: rgb(128, 139, 164); fill-opacity: 1;"/></g><g class="g-gtitle"/><g class="g-xtitle"/><g class="g-ytitle"><text class="ytitle" transform="rotate(-90,54.0625,350)" x="54.0625" y="350" text-anchor="middle" style="opacity: 1; font-family: 'Open Sans', verdana, arial, sans-serif; font-size: 20px; fill: rgb(0, 0, 255); fill-opacity: 1; white-space: pre;">泰铢/千克</text></g></g></svg>