<svg class="main-svg" xmlns="http://www.w3.org/2000/svg" xmlns:xlink="http://www.w3.org/1999/xlink" width="1550" height="700" style="" viewBox="0 0 1550 700"><rect x="0" y="0" width="1550" height="700" style="fill: rgb(255, 255, 255); fill-opacity: 1;"/><defs id="defs-16ab31"><g class="clips"><clipPath id="clip16ab31xyplot" class="plotclip"><rect width="1334" height="527"/></clipPath><clipPath id="clip16ab31xy2plot" class="plotclip"><rect width="1334" height="527"/></clipPath><clipPath class="axesclip" id="clip16ab31x"><rect x="112" y="0" width="1334" height="700"/></clipPath><clipPath class="axesclip" id="clip16ab31y"><rect x="0" y="86" width="1550" height="527"/></clipPath><clipPath class="axesclip" id="clip16ab31xy"><rect x="112" y="86" width="1334" height="527"/></clipPath><clipPath class="axesclip" id="clip16ab31y2"><rect x="0" y="86" width="1550" height="527"/></clipPath><clipPath class="axesclip" id="clip16ab31xy2"><rect x="112" y="86" width="1334" height="527"/></clipPath></g><g class="gradients"/><g class="patterns"/></defs><g class="bglayer"/><g class="layer-below"><g class="imagelayer"/><g class="shapelayer"/></g><g class="cartesianlayer"><g class="subplot xy"><g class="layer-subplot"><g class="shapelayer"/><g class="imagelayer"/></g><g class="minor-gridlayer"><g class="x"/><g class="y"/><g class="y2"/></g><g class="gridlayer"><g class="x"/><g class="y"><path class="ygrid crisp" transform="translate(0,577.75)" d="M112,0h1334" style="stroke: rgb(232, 235, 239); stroke-opacity: 1; stroke-width: 1px;"/><path class="ygrid crisp" transform="translate(0,496.52)" d="M112,0h1334" style="stroke: rgb(232, 235, 239); stroke-opacity: 1; stroke-width: 1px;"/><path class="ygrid crisp" transform="translate(0,415.29)" d="M112,0h1334" style="stroke: rgb(232, 235, 239); stroke-opacity: 1; stroke-width: 1px;"/><path class="ygrid crisp" transform="translate(0,334.06)" d="M112,0h1334" style="stroke: rgb(232, 235, 239); stroke-opacity: 1; stroke-width: 1px;"/><path class="ygrid crisp" transform="translate(0,252.83)" d="M112,0h1334" style="stroke: rgb(232, 235, 239); stroke-opacity: 1; stroke-width: 1px;"/><path class="ygrid crisp" transform="translate(0,171.6)" d="M112,0h1334" style="stroke: rgb(232, 235, 239); stroke-opacity: 1; stroke-width: 1px;"/><path class="ygrid crisp" transform="translate(0,90.37)" d="M112,0h1334" style="stroke: rgb(232, 235, 239); stroke-opacity: 1; stroke-width: 1px;"/></g><g class="y2"/></g><g class="zerolinelayer"/><g class="layer-between"><g class="shapelayer"/><g class="imagelayer"/></g><path class="xlines-below"/><path class="ylines-below"/><g class="overlines-below"><path class="xy2-x"/><path class="xy2-y"/></g><g class="xaxislayer-below"/><g class="yaxislayer-below"/><g class="overaxes-below"><g class="xy2-x"/><g class="xy2-y"/></g><g class="overplot"><g class="xy" transform="translate(112,86)" clip-path="url(#clip16ab31xyplot)"><g class="scatterlayer mlayer"><g class="trace scatter tracedfff5a" style="stroke-miterlimit: 2; opacity: 1;"><g class="fills"/><g class="errorbars"/><g class="lines"><path class="js-line" d="M1.81,496.67L3.61,497.38L5.42,500.65L7.22,498.96L9.03,490.45L14.44,491.37L16.25,489.72L18.05,489.25L19.86,494.72L21.66,490.64L27.08,489.23L30.69,487.43L32.49,488.51L34.3,491.94L41.52,493.84L43.32,494.43L45.13,490.51L46.93,494.4L52.35,491.06L54.15,489.05L55.96,490.03L59.57,478.8L64.99,479.71L66.79,479.56L68.6,482.96L72.21,471.96L77.62,470.06L79.43,465.38L81.23,465.8L83.04,465.48L84.84,467.39L90.26,470.03L92.06,466.09L93.87,469L95.67,467.36L102.89,468.53L104.7,473.19L106.5,474.25L108.31,470.9L110.11,466.57L115.53,466.52L117.33,469.47L119.14,461.72L120.94,460.73L122.75,456.07L128.17,456.09L129.97,451.78L131.78,456.95L133.58,453.39L135.39,452.37L140.8,452.72L142.61,452.84L144.41,444.88L148.02,453.54L153.44,453.33L155.24,452.12L157.05,465.43L158.85,459.4L160.66,461.5L169.68,477.99L171.49,479.37L173.29,482.83L178.71,473.76L184.12,465.06L185.93,457.55L193.15,471.34L194.96,469.59L198.57,467.54L203.98,468.94L205.79,468.73L207.59,466.96L209.4,470.3L211.2,470.08L216.62,465.48L218.42,459.55L220.23,454.64L222.03,461.85L223.84,467.64L229.25,467.05L231.06,469.2L232.86,477.09L234.67,476.8L236.47,470.84L243.69,473.65L247.3,469.36L249.11,472.84L254.53,473.76L259.94,465.61L261.75,468.53L267.16,469.36L268.97,466.16L272.58,461.69L274.38,456.46L279.8,462.5L281.6,461.16L283.41,458.02L285.21,451.16L287.02,450.87L294.24,451.78L299.65,446L305.07,452.76L308.68,446.79L310.48,438.3L312.29,441.5L317.71,438.74L321.32,432.61L323.12,433.1L324.93,432.22L330.34,424.42L332.15,425.61L333.95,425.29L335.76,420.75L337.56,430.31L344.78,420.85L346.59,422.78L348.39,419.65L350.2,421.73L355.61,418.77L357.42,424.23L359.22,424.47L361.03,431.13L362.83,435.23L368.25,428.71L370.05,424.55L371.86,424.65L375.47,425.04L380.88,429.57L386.3,413.2L388.11,412.14L393.52,410.27L395.33,404.8L397.13,402.25L398.94,403.92L400.74,406.37L406.16,409.54L407.96,406.62L409.77,407.35L413.38,395.9L418.79,389.25L420.6,390.92L422.4,384.15L426.01,404.73L431.43,415.72L433.23,414.86L435.04,396.35L438.65,372.66L444.06,378.84L445.87,375.35L447.68,356.21L449.48,358.03L456.7,343.73L458.51,350.15L460.31,365.53L462.12,357.64L463.92,366.3L469.34,364.3L471.14,359.42L472.95,363.99L474.75,372.99L476.56,373.96L481.97,360.14L483.78,340.51L485.58,351.27L487.39,361.44L489.19,357.51L494.61,373.15L496.41,369.68L498.22,382.62L500.02,373.46L501.83,379.36L507.24,373.05L509.05,362.88L510.86,359.93L512.66,363.4L514.47,353.49L521.69,362.1L523.49,358.09L525.3,359.33L527.1,363.5L532.52,348.65L534.32,353.66L536.13,350.16L537.93,353.3L539.74,360.45L545.15,357.82L546.96,356.71L548.76,353.48L552.37,340.24L557.79,347.91L559.59,347.4L561.4,351.2L565.01,351.51L570.42,349.19L572.23,358.24L574.04,356.71L575.84,356.52L577.65,366.78L583.06,360.66L584.87,355.74L586.67,352.44L588.48,358.16L595.7,356.37L597.5,361.29L601.11,358.32L602.92,352.06L608.33,353.49L610.14,356.89L611.94,353.19L613.75,355.15L615.55,353.75L620.97,345.16L622.77,338.87L624.58,346.35L628.19,357.05L633.6,360.29L635.41,356.65L637.22,366.51L639.02,363.7L640.83,352.02L649.85,348.98L651.66,341.81L658.88,352.88L660.68,353.79L662.49,351.98L664.29,356.42L666.1,355.9L671.51,355.93L673.32,359.54L675.12,354.71L676.93,354.49L678.73,349.82L684.15,350.93L685.95,346.1L687.76,346.48L689.56,340.03L691.37,333.27L698.59,319.67L700.4,316.65L702.2,318.24L704.01,312.91L709.42,307.01L711.23,307.86L713.03,306.19L714.84,307.11L716.64,305.52L723.86,298.4L725.67,299.61L727.47,306.12L729.28,299.09L736.5,284.77L738.3,285.9L740.11,291.24L741.91,283.88L750.94,270.64L752.74,271.99L761.77,251.47L763.58,243.18L765.38,254.36L767.19,250.3L774.41,225.28L776.21,215L778.02,198.67L779.82,209.9L785.24,190.13L787.04,228.69L788.85,243.51L790.65,228.12L792.46,231.13L797.87,249.13L801.48,261.95L803.29,243.64L805.09,248.76L810.51,248.04L812.31,259.85L814.12,251.36L815.92,246.84L817.73,248.84L826.76,217.5L828.56,221.4L830.37,234.01L835.78,244.91L837.59,237.76L839.39,236.36L841.2,236.6L843,239.24L848.42,233.65L850.22,222.83L852.03,221.97L855.64,211.68L861.05,209.57L862.86,214.45L864.66,215.13L866.47,214.43L868.27,215.96L873.69,218.34L880.91,198.88L886.32,198.69L888.13,198.85L889.94,190.97L891.74,193.5L893.55,190.55L900.77,167.45L902.57,169.12L906.18,159.32L911.6,186.49L915.21,195.34L918.82,196.43L926.04,169.9L927.84,174.95L929.65,175.39L931.45,171.21L936.87,149.35L938.67,153.39L940.48,144.9L942.28,148.49L944.09,152.21L951.31,123.94L953.12,122.72L954.92,100.56L956.73,96L962.14,77.12L963.95,85.19L965.75,33.66L967.56,26.35L969.36,105.16L974.78,136.38L976.58,96.71L978.39,92.57L980.19,120.37L982,92.75L987.41,76L989.22,80.89L991.02,78.42L992.83,99.21L994.63,80.86L1000.05,87.22L1001.85,107.82L1003.66,88.49L1005.46,88.12L1007.27,74.06L1012.68,52.49L1014.49,64.14L1016.29,58.32L1018.1,55.15L1019.91,40.11L1025.32,31.39L1027.13,69.03L1028.93,63.67L1030.74,75.19L1032.54,63.26L1037.96,70.02L1039.76,53.24L1041.57,57.62L1043.37,64.97L1045.18,82.19L1050.59,83.89L1052.4,86.23L1057.81,154.43L1063.23,187.9L1065.03,183.33L1066.84,159.16L1068.64,176.07L1070.45,158.67L1075.86,165.43L1077.67,139.8L1079.47,124.85L1081.28,138.89L1090.31,143.01L1092.11,128.02L1093.92,118.72L1095.72,126.46L1101.14,131.1L1102.94,111.92L1104.75,116.47L1106.55,117.49L1108.36,113.27L1113.77,116.92L1115.58,133.52L1117.38,127.48L1126.41,135.41L1128.21,140.36L1130.02,159.76L1131.82,147.54L1133.63,149.33L1139.04,163.14L1140.85,155.67L1142.65,135.67L1144.46,128.46L1146.27,130.31L1151.68,129.84L1153.49,134.34L1157.1,142.41L1158.9,162.88L1164.32,160.54L1166.12,165.82L1167.93,167.32L1169.73,165.77L1171.54,161.91L1176.95,154.87L1180.56,175.44L1182.37,168.05L1184.17,159.94L1189.59,169.87L1191.39,168.94L1193.2,175.63L1195,170.65L1196.81,196.22L1202.22,195.45L1204.03,205.07L1205.83,231.81L1207.64,213.97L1209.45,214.28L1214.86,197.08L1216.67,194.56L1218.47,199.95L1222.08,222.84L1227.5,218.83L1229.3,227.69L1231.11,248.29L1232.91,245.49L1234.72,250.92L1243.74,241.98L1245.55,229.67L1247.35,219.69L1252.77,222.52L1256.38,234.25L1258.18,227.2L1265.4,248.48L1267.21,238.59L1269.01,236.67L1270.82,252.14L1272.63,245.26L1278.04,245.8L1281.65,223.92L1283.46,240.31L1285.26,237.01L1290.68,235.37L1292.48,243.88L1294.29,245.15L1296.09,231.83L1297.9,240.02L1303.31,239.87L1305.12,233.75L1306.92,207.05L1308.73,208.63L1310.53,191.78L1315.95,184.68L1317.75,187.59L1319.56,178.93L1321.36,190.84L1323.17,187.31L1328.58,180.83L1330.39,194.33L1332.19,162.91L1334,163.01" style="vector-effect: none; fill: none; stroke: rgb(0, 0, 255); stroke-opacity: 1; stroke-width: 5px; opacity: 1;"/></g><g class="points"/><g class="text"/></g></g></g><g class="xy2" transform="translate(112,86)" clip-path="url(#clip16ab31xy2plot)"><g class="scatterlayer mlayer"><g class="trace scatter traced4f1b1" style="stroke-miterlimit: 2; opacity: 1;"><g class="fills"/><g class="errorbars"/><g class="lines"><path class="js-line" d="M1.81,278.03L3.61,261.15L5.42,260.01L7.22,275.83L9.03,253.64L14.44,235.52L16.25,217.82L18.05,211.25L19.86,222.83L21.66,194.5L27.08,201.27L28.88,190.47L30.69,207.13L34.3,230.22L39.71,227.79L41.52,230.81L43.32,214.96L45.13,207.68L46.93,211.83L54.15,228.57L55.96,230.16L59.57,203.83L64.99,195L66.79,206.17L68.6,203.37L70.4,193.91L72.21,196.85L77.62,202.81L79.43,183.48L81.23,203.17L83.04,192.3L84.84,203.18L90.26,197.06L97.48,256.32L102.89,256.34L104.7,255.8L106.5,269.65L108.31,269.07L110.11,270.64L115.53,280.78L117.33,280.69L120.94,300.03L122.75,289.8L129.97,310.44L131.78,321.89L133.58,308.62L135.39,318.68L142.61,317.42L144.41,311.4L146.22,304.39L148.02,318.04L153.44,304.33L155.24,287.68L157.05,347.28L158.85,319.42L160.66,340.57L166.07,359.31L171.49,405.8L173.29,399.02L178.71,383.49L180.51,382.18L185.93,427.1L191.35,406.69L193.15,406.35L194.96,378.06L196.76,381.93L198.57,368.38L203.98,389.9L205.79,387.75L207.59,388.67L209.4,366.66L211.2,375.38L216.62,381.52L222.03,410.92L223.84,408.18L229.25,405.58L231.06,408.51L232.86,453.41L234.67,458.66L236.47,438.51L241.89,447.28L243.69,448.28L245.5,447.79L247.3,447.7L249.11,445.14L254.53,445.58L256.33,460.91L258.14,461.17L259.94,486.85L261.75,475.97L267.16,452.7L270.77,478.47L272.58,484.65L274.38,500.65L279.8,499.82L281.6,484.85L283.41,482.28L285.21,476.61L287.02,492.94L292.43,447L294.24,443.42L296.04,453.08L297.85,449.55L299.65,427.09L305.07,421.67L306.87,441.08L308.68,442.94L310.48,449.6L312.29,462.36L317.71,459.06L319.51,444.41L321.32,431.44L323.12,434.37L324.93,448.35L330.34,455.84L332.15,441.89L333.95,444.8L335.76,412.22L337.56,403.75L342.98,401.07L344.78,412.19L346.59,417.07L348.39,388.24L350.2,397.99L355.61,399.12L357.42,385.98L359.22,393.2L362.83,429.61L368.25,394.41L371.86,318.83L373.66,314.86L375.47,304.28L380.88,304.93L382.69,288.83L384.5,293.73L386.3,302.23L388.11,299.07L395.33,281.97L397.13,289.37L400.74,313.18L406.16,318.5L407.96,315.14L409.77,331.07L413.38,308.89L418.79,313.5L420.6,314.6L422.4,299.67L424.21,236.92L426.01,270.82L431.43,288.55L433.23,272.27L435.04,271.88L436.84,204.96L438.65,164.08L444.06,160.25L445.87,176.78L447.68,146.2L449.48,151.16L451.29,144.88L456.7,114.99L458.51,151.81L460.31,164.7L462.12,147.43L463.92,156.5L469.34,135.27L471.14,143.81L472.95,158.74L474.75,177.9L476.56,172.84L481.97,164.03L483.78,145.07L487.39,192.71L489.19,186.1L494.61,232.26L496.41,204.26L498.22,206.35L500.02,198.25L501.83,204.8L507.24,183.46L510.86,158.04L512.66,169.19L514.47,141.29L519.88,136.69L523.49,166.89L525.3,148.25L527.1,152.13L532.52,126.43L534.32,145.04L536.13,130.8L537.93,128.7L539.74,144.04L545.15,137.13L546.96,138.32L548.76,124.43L550.57,97.88L552.37,107.87L557.79,107.15L559.59,130.42L561.4,132.01L565.01,129.01L570.42,115.8L575.84,79.28L577.65,77.7L584.87,57.03L586.67,61.08L588.48,72.82L590.28,68.33L595.7,87.43L597.5,86.19L599.31,85.51L601.11,88.29L602.92,98.17L608.33,106.79L610.14,124.45L611.94,113.92L613.75,124.66L615.55,119.01L620.97,98.05L622.77,81.65L624.58,76.41L626.38,85.71L628.19,91.56L633.6,125.22L635.41,133.73L637.22,169.24L639.02,172.44L640.83,126.51L648.05,128.92L649.85,110.65L651.66,105.55L653.46,111.89L658.88,119.82L660.68,105.05L662.49,95.62L664.29,109.47L666.1,97.93L671.51,107.99L673.32,111.98L675.12,110.56L676.93,124.81L678.73,93.21L684.15,117.18L685.95,110.23L687.76,109.86L689.56,98.95L691.37,97.81L696.78,92.74L698.59,113.88L700.4,108.39L702.2,112.88L704.01,93.82L709.42,84.26L711.23,94.8L713.03,96.76L714.84,87.18L716.64,89.77L722.06,79.82L723.86,57.6L725.67,69.3L729.28,91.02L734.69,79.91L736.5,76.54L738.3,97.78L740.11,119.43L741.91,109.64L750.94,93.4L752.74,98.82L754.55,93.56L759.96,106.93L765.38,150.31L767.19,131.45L772.6,145.42L774.41,138.42L778.02,114.69L779.82,121.75L785.24,123.09L787.04,135.03L788.85,133.08L790.65,134.79L792.46,135L797.87,130.78L799.68,127.66L801.48,141.33L805.09,161.92L810.51,166.87L812.31,178.3L814.12,176.67L817.73,155.72L823.14,158.36L824.95,153.54L826.76,153.35L828.56,143.07L830.37,146.88L837.59,157.48L839.39,175.54L841.2,178.92L843,176.43L848.42,178.15L850.22,164.61L852.03,156.99L853.83,156.15L855.64,152.07L861.05,151.03L862.86,148.14L864.66,132.64L866.47,139.16L868.27,136.5L873.69,140.69L875.49,145.36L879.1,115.22L880.91,116.62L888.13,110.43L889.94,116.44L891.74,117.71L893.55,127.38L898.96,111.91L900.77,99.6L902.57,101.36L904.38,99.84L906.18,104.1L911.6,103.16L913.4,110.5L915.21,112.21L917.01,111.41L918.82,118.62L924.23,113.84L926.04,123.41L929.65,132.49L931.45,141.79L936.87,133.67L938.67,143.38L940.48,139.68L942.28,149.07L944.09,149.65L949.5,138.66L951.31,121.72L953.12,129.59L956.73,86.01L962.14,70.2L963.95,26.35L965.75,46.41L967.56,40.02L969.36,72.73L974.78,89.51L976.58,81.52L980.19,101.66L982,89.72L987.41,63.97L989.22,63.86L991.02,66.24L992.83,65.62L994.63,63.94L1000.05,71.57L1001.85,72.51L1003.66,94.03L1005.46,97.05L1007.27,94.19L1012.68,93.76L1014.49,99.44L1016.29,91.38L1018.1,95.88L1019.91,90.72L1025.32,121.66L1027.13,146.38L1028.93,130.25L1030.74,138.35L1032.54,135.53L1037.96,127.25L1039.76,134.63L1041.57,144.02L1043.37,162.28L1045.18,188.21L1050.59,164.66L1052.4,156.34L1054.2,177.29L1056.01,144.99L1057.81,154.61L1063.23,141.1L1065.03,144.1L1068.64,167.81L1070.45,177.42L1075.86,188.49L1077.67,166.4L1079.47,155.79L1081.28,170.91L1083.09,177.86L1088.5,170.94L1090.31,159.12L1092.11,137.34L1095.72,126.82L1101.14,117.09L1102.94,107.06L1104.75,105.85L1106.55,110.17L1108.36,110.74L1113.77,105.04L1115.58,116.83L1119.19,130.23L1120.99,120.91L1126.41,119.39L1128.21,124.23L1130.02,135.66L1131.82,105.67L1133.63,110.06L1139.04,118.41L1140.85,119.61L1142.65,103.2L1144.46,111.02L1146.27,97.75L1151.68,100.08L1153.49,112.89L1155.29,118.83L1157.1,132.24L1158.9,146.19L1164.32,135.56L1166.12,147.15L1167.93,141.59L1169.73,143.39L1171.54,148.52L1176.95,136.89L1178.76,142.05L1180.56,144.64L1182.37,137.04L1184.17,134.54L1189.59,143.1L1191.39,144.36L1193.2,154.98L1195,151.76L1196.81,173.91L1202.22,170.08L1204.03,170.94L1205.83,172.47L1207.64,160.8L1209.45,162.75L1214.86,160.05L1216.67,155.84L1218.47,183.84L1220.28,198.28L1222.08,196.94L1227.5,204.93L1229.3,217.59L1231.11,224.65L1232.91,219.85L1240.13,209.25L1241.94,211.04L1243.74,219.27L1245.55,200.6L1252.77,200.14L1254.57,209.1L1258.18,203.41L1259.99,204.05L1265.4,215.05L1267.21,203.19L1269.01,188.59L1270.82,196.31L1272.63,197.24L1278.04,205.27L1279.85,211.69L1281.65,209.74L1283.46,220.37L1285.26,221.2L1290.68,222.53L1292.48,218.75L1297.9,164.07L1303.31,169.54L1305.12,167.51L1306.92,161.03L1308.73,169.99L1310.53,157.59L1317.75,165.16L1319.56,170.42L1321.36,169.97L1323.17,158.9L1328.58,157.03L1330.39,159.11L1332.19,130.04L1334,132.58" style="vector-effect: none; fill: none; stroke: rgb(255, 0, 0); stroke-opacity: 1; stroke-width: 5px; opacity: 1;"/></g><g class="points"/><g class="text"/></g></g></g></g><path class="xlines-above crisp" d="M0,0" style="fill: none;"/><path class="ylines-above crisp" d="M111.5,86V613" style="fill: none; stroke-width: 1px; stroke: rgb(170, 178, 187); stroke-opacity: 1;"/><g class="overlines-above"><path class="xy2-x crisp" d="M0,0" style="fill: none;"/><path class="xy2-y crisp" d="M1446.5,86V613" style="fill: none; stroke-width: 1px; stroke: rgb(170, 178, 187); stroke-opacity: 1;"/></g><g class="xaxislayer-above"><g class="xtick"><text text-anchor="end" x="-4.0249999999999995" y="630.1" transform="translate(149.91,0) rotate(-90,-4.0249999999999995,618.6)" style="font-family: 'Open Sans', verdana, arial, sans-serif; font-size: 23px; fill: rgb(68, 68, 68); fill-opacity: 1; white-space: pre; opacity: 1;">24-09</text></g><g class="xtick"><text text-anchor="end" x="-4.0249999999999995" y="630.1" transform="translate(204.06,0) rotate(-90,-4.0249999999999995,618.6)" style="font-family: 'Open Sans', verdana, arial, sans-serif; font-size: 23px; fill: rgb(68, 68, 68); fill-opacity: 1; white-space: pre; opacity: 1;">24-10</text></g><g class="xtick"><text text-anchor="end" x="-4.0249999999999995" y="630.1" transform="translate(260.02,0) rotate(-90,-4.0249999999999995,618.6)" style="font-family: 'Open Sans', verdana, arial, sans-serif; font-size: 23px; fill: rgb(68, 68, 68); fill-opacity: 1; white-space: pre; opacity: 1;">24-11</text></g><g class="xtick"><text text-anchor="end" x="-4.0249999999999995" y="630.1" transform="translate(314.18,0) rotate(-90,-4.0249999999999995,618.6)" style="font-family: 'Open Sans', verdana, arial, sans-serif; font-size: 23px; fill: rgb(68, 68, 68); fill-opacity: 1; white-space: pre; opacity: 1;">24-12</text></g><g class="xtick"><text text-anchor="end" x="-4.0249999999999995" y="630.1" transform="translate(370.14,0) rotate(-90,-4.0249999999999995,618.6)" style="font-family: 'Open Sans', verdana, arial, sans-serif; font-size: 23px; fill: rgb(68, 68, 68); fill-opacity: 1; white-space: pre; opacity: 1;">25-01</text></g><g class="xtick"><text text-anchor="end" x="-4.0249999999999995" y="630.1" transform="translate(426.09,0) rotate(-90,-4.0249999999999995,618.6)" style="font-family: 'Open Sans', verdana, arial, sans-serif; font-size: 23px; fill: rgb(68, 68, 68); fill-opacity: 1; white-space: pre; opacity: 1;">25-02</text></g><g class="xtick"><text text-anchor="end" x="-4.0249999999999995" y="630.1" transform="translate(476.64,0) rotate(-90,-4.0249999999999995,618.6)" style="font-family: 'Open Sans', verdana, arial, sans-serif; font-size: 23px; fill: rgb(68, 68, 68); fill-opacity: 1; white-space: pre; opacity: 1;">25-03</text></g><g class="xtick"><text text-anchor="end" x="-4.0249999999999995" y="630.1" transform="translate(532.6,0) rotate(-90,-4.0249999999999995,618.6)" style="font-family: 'Open Sans', verdana, arial, sans-serif; font-size: 23px; fill: rgb(68, 68, 68); fill-opacity: 1; white-space: pre; opacity: 1;">25-04</text></g><g class="xtick"><text text-anchor="end" x="-4.0249999999999995" y="630.1" transform="translate(586.75,0) rotate(-90,-4.0249999999999995,618.6)" style="font-family: 'Open Sans', verdana, arial, sans-serif; font-size: 23px; fill: rgb(68, 68, 68); fill-opacity: 1; white-space: pre; opacity: 1;">25-05</text></g><g class="xtick"><text text-anchor="end" x="-4.0249999999999995" y="630.1" transform="translate(642.71,0) rotate(-90,-4.0249999999999995,618.6)" style="font-family: 'Open Sans', verdana, arial, sans-serif; font-size: 23px; fill: rgb(68, 68, 68); fill-opacity: 1; white-space: pre; opacity: 1;">25-06</text></g><g class="xtick"><text text-anchor="end" x="-4.0249999999999995" y="630.1" transform="translate(696.87,0) rotate(-90,-4.0249999999999995,618.6)" style="font-family: 'Open Sans', verdana, arial, sans-serif; font-size: 23px; fill: rgb(68, 68, 68); fill-opacity: 1; white-space: pre; opacity: 1;">25-07</text></g><g class="xtick"><text text-anchor="end" x="-4.0249999999999995" y="630.1" transform="translate(752.83,0) rotate(-90,-4.0249999999999995,618.6)" style="font-family: 'Open Sans', verdana, arial, sans-serif; font-size: 23px; fill: rgb(68, 68, 68); fill-opacity: 1; white-space: pre; opacity: 1;">25-08</text></g><g class="xtick"><text text-anchor="end" x="-4.0249999999999995" y="630.1" transform="translate(808.78,0) rotate(-90,-4.0249999999999995,618.6)" style="font-family: 'Open Sans', verdana, arial, sans-serif; font-size: 23px; fill: rgb(68, 68, 68); fill-opacity: 1; white-space: pre; opacity: 1;">25-09</text></g><g class="xtick"><text text-anchor="end" x="-4.0249999999999995" y="630.1" transform="translate(862.94,0) rotate(-90,-4.0249999999999995,618.6)" style="font-family: 'Open Sans', verdana, arial, sans-serif; font-size: 23px; fill: rgb(68, 68, 68); fill-opacity: 1; white-space: pre; opacity: 1;">25-10</text></g><g class="xtick"><text text-anchor="end" x="-4.0249999999999995" y="630.1" transform="translate(918.9,0) rotate(-90,-4.0249999999999995,618.6)" style="font-family: 'Open Sans', verdana, arial, sans-serif; font-size: 23px; fill: rgb(68, 68, 68); fill-opacity: 1; white-space: pre; opacity: 1;">25-11</text></g><g class="xtick"><text text-anchor="end" x="-4.0249999999999995" y="630.1" transform="translate(973.05,0) rotate(-90,-4.0249999999999995,618.6)" style="font-family: 'Open Sans', verdana, arial, sans-serif; font-size: 23px; fill: rgb(68, 68, 68); fill-opacity: 1; white-space: pre; opacity: 1;">25-12</text></g><g class="xtick"><text text-anchor="end" x="-4.0249999999999995" y="630.1" transform="translate(1029.01,0) rotate(-90,-4.0249999999999995,618.6)" style="font-family: 'Open Sans', verdana, arial, sans-serif; font-size: 23px; fill: rgb(68, 68, 68); fill-opacity: 1; white-space: pre; opacity: 1;">26-01</text></g><g class="xtick"><text text-anchor="end" x="-4.0249999999999995" y="630.1" transform="translate(1084.97,0) rotate(-90,-4.0249999999999995,618.6)" style="font-family: 'Open Sans', verdana, arial, sans-serif; font-size: 23px; fill: rgb(68, 68, 68); fill-opacity: 1; white-space: pre; opacity: 1;">26-02</text></g><g class="xtick"><text text-anchor="end" x="-4.0249999999999995" y="630.1" transform="translate(1135.52,0) rotate(-90,-4.0249999999999995,618.6)" style="font-family: 'Open Sans', verdana, arial, sans-serif; font-size: 23px; fill: rgb(68, 68, 68); fill-opacity: 1; white-space: pre; opacity: 1;">26-03</text></g><g class="xtick"><text text-anchor="end" x="-4.0249999999999995" y="630.1" transform="translate(1191.47,0) rotate(-90,-4.0249999999999995,618.6)" style="font-family: 'Open Sans', verdana, arial, sans-serif; font-size: 23px; fill: rgb(68, 68, 68); fill-opacity: 1; white-space: pre; opacity: 1;">26-04</text></g><g class="xtick"><text text-anchor="end" x="-4.0249999999999995" y="630.1" transform="translate(1245.63,0) rotate(-90,-4.0249999999999995,618.6)" style="font-family: 'Open Sans', verdana, arial, sans-serif; font-size: 23px; fill: rgb(68, 68, 68); fill-opacity: 1; white-space: pre; opacity: 1;">26-05</text></g><g class="xtick"><text text-anchor="end" x="-4.0249999999999995" y="630.1" transform="translate(1301.59,0) rotate(-90,-4.0249999999999995,618.6)" style="font-family: 'Open Sans', verdana, arial, sans-serif; font-size: 23px; fill: rgb(68, 68, 68); fill-opacity: 1; white-space: pre; opacity: 1;">26-06</text></g><g class="xtick"><text text-anchor="end" x="-4.0249999999999995" y="630.1" transform="translate(1355.74,0) rotate(-90,-4.0249999999999995,618.6)" style="font-family: 'Open Sans', verdana, arial, sans-serif; font-size: 23px; fill: rgb(68, 68, 68); fill-opacity: 1; white-space: pre; opacity: 1;">26-07</text></g><g class="xtick"><text text-anchor="end" x="-4.0249999999999995" y="630.1" transform="translate(1411.7,0) rotate(-90,-4.0249999999999995,618.6)" style="font-family: 'Open Sans', verdana, arial, sans-serif; font-size: 23px; fill: rgb(68, 68, 68); fill-opacity: 1; white-space: pre; opacity: 1;">26-08</text></g></g><g class="yaxislayer-above"><path class="ytick ticks crisp" d="M111,0h-5" transform="translate(0,577.75)" style="stroke: rgb(170, 178, 187); stroke-opacity: 1; stroke-width: 1px;"/><path class="ytick ticks crisp" d="M111,0h-5" transform="translate(0,496.52)" style="stroke: rgb(170, 178, 187); stroke-opacity: 1; stroke-width: 1px;"/><path class="ytick ticks crisp" d="M111,0h-5" transform="translate(0,415.29)" style="stroke: rgb(170, 178, 187); stroke-opacity: 1; stroke-width: 1px;"/><path class="ytick ticks crisp" d="M111,0h-5" transform="translate(0,334.06)" style="stroke: rgb(170, 178, 187); stroke-opacity: 1; stroke-width: 1px;"/><path class="ytick ticks crisp" d="M111,0h-5" transform="translate(0,252.83)" style="stroke: rgb(170, 178, 187); stroke-opacity: 1; stroke-width: 1px;"/><path class="ytick ticks crisp" d="M111,0h-5" transform="translate(0,171.6)" style="stroke: rgb(170, 178, 187); stroke-opacity: 1; stroke-width: 1px;"/><path class="ytick ticks crisp" d="M111,0h-5" transform="translate(0,90.37)" style="stroke: rgb(170, 178, 187); stroke-opacity: 1; stroke-width: 1px;"/><g class="ytick"><text text-anchor="end" x="101.4" y="8.049999999999999" transform="translate(0,577.75)" style="font-family: 'Open Sans', verdana, arial, sans-serif; font-size: 23px; fill: rgb(0, 0, 255); fill-opacity: 1; white-space: pre; opacity: 1;">2,500</text></g><g class="ytick"><text text-anchor="end" x="101.4" y="8.049999999999999" style="font-family: 'Open Sans', verdana, arial, sans-serif; font-size: 23px; fill: rgb(0, 0, 255); fill-opacity: 1; white-space: pre; opacity: 1;" transform="translate(0,496.52)">3,000</text></g><g class="ytick"><text text-anchor="end" x="101.4" y="8.049999999999999" style="font-family: 'Open Sans', verdana, arial, sans-serif; font-size: 23px; fill: rgb(0, 0, 255); fill-opacity: 1; white-space: pre; opacity: 1;" transform="translate(0,415.29)">3,500</text></g><g class="ytick"><text text-anchor="end" x="101.4" y="8.049999999999999" style="font-family: 'Open Sans', verdana, arial, sans-serif; font-size: 23px; fill: rgb(0, 0, 255); fill-opacity: 1; white-space: pre; opacity: 1;" transform="translate(0,334.06)">4,000</text></g><g class="ytick"><text text-anchor="end" x="101.4" y="8.049999999999999" style="font-family: 'Open Sans', verdana, arial, sans-serif; font-size: 23px; fill: rgb(0, 0, 255); fill-opacity: 1; white-space: pre; opacity: 1;" transform="translate(0,252.83)">4,500</text></g><g class="ytick"><text text-anchor="end" x="101.4" y="8.049999999999999" style="font-family: 'Open Sans', verdana, arial, sans-serif; font-size: 23px; fill: rgb(0, 0, 255); fill-opacity: 1; white-space: pre; opacity: 1;" transform="translate(0,171.6)">5,000</text></g><g class="ytick"><text text-anchor="end" x="101.4" y="8.049999999999999" style="font-family: 'Open Sans', verdana, arial, sans-serif; font-size: 23px; fill: rgb(0, 0, 255); fill-opacity: 1; white-space: pre; opacity: 1;" transform="translate(0,90.37)">5,500</text></g></g><g class="overaxes-above"><g class="xy2-x"/><g class="xy2-y"><path class="y2tick ticks crisp" d="M1447,0h5" transform="translate(0,598.77)" style="stroke: rgb(170, 178, 187); stroke-opacity: 1; stroke-width: 1px;"/><path class="y2tick ticks crisp" d="M1447,0h5" transform="translate(0,530.46)" style="stroke: rgb(170, 178, 187); stroke-opacity: 1; stroke-width: 1px;"/><path class="y2tick ticks crisp" d="M1447,0h5" transform="translate(0,462.15)" style="stroke: rgb(170, 178, 187); stroke-opacity: 1; stroke-width: 1px;"/><path class="y2tick ticks crisp" d="M1447,0h5" transform="translate(0,393.84)" style="stroke: rgb(170, 178, 187); stroke-opacity: 1; stroke-width: 1px;"/><path class="y2tick ticks crisp" d="M1447,0h5" transform="translate(0,325.53999999999996)" style="stroke: rgb(170, 178, 187); stroke-opacity: 1; stroke-width: 1px;"/><path class="y2tick ticks crisp" d="M1447,0h5" transform="translate(0,257.23)" style="stroke: rgb(170, 178, 187); stroke-opacity: 1; stroke-width: 1px;"/><path class="y2tick ticks crisp" d="M1447,0h5" transform="translate(0,188.92000000000002)" style="stroke: rgb(170, 178, 187); stroke-opacity: 1; stroke-width: 1px;"/><path class="y2tick ticks crisp" d="M1447,0h5" transform="translate(0,120.61)" style="stroke: rgb(170, 178, 187); stroke-opacity: 1; stroke-width: 1px;"/><g class="y2tick"><text text-anchor="start" x="1456.6" y="8.049999999999999" transform="translate(0,598.77)" style="font-family: 'Open Sans', verdana, arial, sans-serif; font-size: 23px; fill: rgb(255, 0, 0); fill-opacity: 1; white-space: pre; opacity: 1;">110</text></g><g class="y2tick"><text text-anchor="start" x="1456.6" y="8.049999999999999" style="font-family: 'Open Sans', verdana, arial, sans-serif; font-size: 23px; fill: rgb(255, 0, 0); fill-opacity: 1; white-space: pre; opacity: 1;" transform="translate(0,530.46)">108</text></g><g class="y2tick"><text text-anchor="start" x="1456.6" y="8.049999999999999" style="font-family: 'Open Sans', verdana, arial, sans-serif; font-size: 23px; fill: rgb(255, 0, 0); fill-opacity: 1; white-space: pre; opacity: 1;" transform="translate(0,462.15)">106</text></g><g class="y2tick"><text text-anchor="start" x="1456.6" y="8.049999999999999" style="font-family: 'Open Sans', verdana, arial, sans-serif; font-size: 23px; fill: rgb(255, 0, 0); fill-opacity: 1; white-space: pre; opacity: 1;" transform="translate(0,393.84)">104</text></g><g class="y2tick"><text text-anchor="start" x="1456.6" y="8.049999999999999" style="font-family: 'Open Sans', verdana, arial, sans-serif; font-size: 23px; fill: rgb(255, 0, 0); fill-opacity: 1; white-space: pre; opacity: 1;" transform="translate(0,325.53999999999996)">102</text></g><g class="y2tick"><text text-anchor="start" x="1456.6" y="8.049999999999999" style="font-family: 'Open Sans', verdana, arial, sans-serif; font-size: 23px; fill: rgb(255, 0, 0); fill-opacity: 1; white-space: pre; opacity: 1;" transform="translate(0,257.23)">100</text></g><g class="y2tick"><text text-anchor="start" x="1456.6" y="8.049999999999999" style="font-family: 'Open Sans', verdana, arial, sans-serif; font-size: 23px; fill: rgb(255, 0, 0); fill-opacity: 1; white-space: pre; opacity: 1;" transform="translate(0,188.92000000000002)">98</text></g><g class="y2tick"><text text-anchor="start" x="1456.6" y="8.049999999999999" style="font-family: 'Open Sans', verdana, arial, sans-serif; font-size: 23px; fill: rgb(255, 0, 0); fill-opacity: 1; white-space: pre; opacity: 1;" transform="translate(0,120.61)">96</text></g></g></g></g><g class="subplot xy2"/></g><g class="polarlayer"/><g class="smithlayer"/><g class="ternarylayer"/><g class="geolayer"/><g class="funnelarealayer"/><g class="pielayer"/><g class="iciclelayer"/><g class="treemaplayer"/><g class="sunburstlayer"/><g class="glimages"/><defs id="topdefs-16ab31"><g class="clips"/><clipPath id="legend16ab31"><rect width="628" height="47" x="0" y="0"/></clipPath></defs><g class="layer-above"><g class="imagelayer"/><g class="shapelayer"/></g><g class="infolayer"><g class="legend" pointer-events="all" transform="translate(465,28.459999999999994)"><rect class="bg" shape-rendering="crispEdges" width="628" height="47" x="0" y="0" style="stroke: rgb(68, 68, 68); stroke-opacity: 1; fill: rgb(255, 255, 255); fill-opacity: 1; stroke-width: 0px;"/><g class="scrollbox" transform="" clip-path="url(#legend16ab31)"><g class="groups"><g class="traces" transform="translate(0,23.400000000000002)" style="opacity: 1;"><text class="legendtext" text-anchor="start" x="40" y="10.14" style="font-family: 'Open Sans', verdana, arial, sans-serif; font-size: 26px; fill: rgb(68, 68, 68); fill-opacity: 1; white-space: pre;">期货收盘价(连续):COMEX黄金</text><g class="layers" style="opacity: 1;"><g class="legendfill"/><g class="legendlines"><path class="js-line" d="M5,0h30" style="fill: none; stroke: rgb(0, 0, 255); stroke-opacity: 1; stroke-width: 5px;"/></g><g class="legendsymbols"><g class="legendpoints"/></g></g><rect class="legendtoggle" x="0" y="-18.400000000000002" width="409.75" height="36.800000000000004" style="fill: rgb(0, 0, 0); fill-opacity: 0;"/></g><g class="traces" transform="translate(412.25,23.400000000000002)" style="opacity: 1;"><text class="legendtext" text-anchor="start" x="40" y="10.14" style="font-family: 'Open Sans', verdana, arial, sans-serif; font-size: 26px; fill: rgb(68, 68, 68); fill-opacity: 1; white-space: pre;">美国:美元指数</text><g class="layers" style="opacity: 1;"><g class="legendfill"/><g class="legendlines"><path class="js-line" d="M5,0h30" style="fill: none; stroke: rgb(255, 0, 0); stroke-opacity: 1; stroke-width: 5px;"/></g><g class="legendsymbols"><g class="legendpoints"/></g></g><rect class="legendtoggle" x="0" y="-18.400000000000002" width="212.34375" height="36.800000000000004" style="fill: rgb(0, 0, 0); fill-opacity: 0;"/></g></g></g><rect class="scrollbar" rx="20" ry="3" width="0" height="0" x="0" y="0" style="fill: rgb(128, 139, 164); fill-opacity: 1;"/></g><g class="g-gtitle"/><g class="g-xtitle"/><g class="g-ytitle" transform="translate(1.30859375,0)"><text class="ytitle" transform="rotate(-90,19.691015625000006,349.5)" x="19.691015625000006" y="349.5" text-anchor="middle" style="opacity: 1; font-family: 'Open Sans', verdana, arial, sans-serif; font-size: 21px; fill: rgb(0, 0, 255); fill-opacity: 1; white-space: pre;">美元/金衡盎司</text></g><g class="g-y2title"><text class="y2title" transform="rotate(-90,1522.674609375,349.5)" x="1522.674609375" y="349.5" text-anchor="middle" style="opacity: 1; font-family: 'Open Sans', verdana, arial, sans-serif; font-size: 21px; fill: rgb(255, 0, 0); fill-opacity: 1; white-space: pre;">1973年3月=100</text></g></g></svg>