<svg class="main-svg" xmlns="http://www.w3.org/2000/svg" xmlns:xlink="http://www.w3.org/1999/xlink" width="1550" height="700" style="" viewBox="0 0 1550 700"><rect x="0" y="0" width="1550" height="700" style="fill: rgb(255, 255, 255); fill-opacity: 1;"/><defs id="defs-4201ce"><g class="clips"><clipPath id="clip4201cexyplot" class="plotclip"><rect width="1334" height="538"/></clipPath><clipPath id="clip4201cexy2plot" class="plotclip"><rect width="1334" height="538"/></clipPath><clipPath class="axesclip" id="clip4201cex"><rect x="112" y="0" width="1334" height="700"/></clipPath><clipPath class="axesclip" id="clip4201cey"><rect x="0" y="86" width="1550" height="538"/></clipPath><clipPath class="axesclip" id="clip4201cexy"><rect x="112" y="86" width="1334" height="538"/></clipPath><clipPath class="axesclip" id="clip4201cey2"><rect x="0" y="86" width="1550" height="538"/></clipPath><clipPath class="axesclip" id="clip4201cexy2"><rect x="112" y="86" width="1334" height="538"/></clipPath></g><g class="gradients"/><g class="patterns"/></defs><g class="bglayer"/><g class="layer-below"><g class="imagelayer"/><g class="shapelayer"/></g><g class="cartesianlayer"><g class="subplot xy"><g class="layer-subplot"><g class="shapelayer"/><g class="imagelayer"/></g><g class="minor-gridlayer"><g class="x"/><g class="y"/><g class="y2"/></g><g class="gridlayer"><g class="x"/><g class="y"><path class="ygrid crisp" transform="translate(0,598.06)" d="M112,0h1334" style="stroke: rgb(232, 235, 239); stroke-opacity: 1; stroke-width: 1px;"/><path class="ygrid crisp" transform="translate(0,539.89)" d="M112,0h1334" style="stroke: rgb(232, 235, 239); stroke-opacity: 1; stroke-width: 1px;"/><path class="ygrid crisp" transform="translate(0,481.73)" d="M112,0h1334" style="stroke: rgb(232, 235, 239); stroke-opacity: 1; stroke-width: 1px;"/><path class="ygrid crisp" transform="translate(0,423.57)" d="M112,0h1334" style="stroke: rgb(232, 235, 239); stroke-opacity: 1; stroke-width: 1px;"/><path class="ygrid crisp" transform="translate(0,365.41)" d="M112,0h1334" style="stroke: rgb(232, 235, 239); stroke-opacity: 1; stroke-width: 1px;"/><path class="ygrid crisp" transform="translate(0,307.25)" d="M112,0h1334" style="stroke: rgb(232, 235, 239); stroke-opacity: 1; stroke-width: 1px;"/><path class="ygrid crisp" transform="translate(0,249.08)" d="M112,0h1334" style="stroke: rgb(232, 235, 239); stroke-opacity: 1; stroke-width: 1px;"/><path class="ygrid crisp" transform="translate(0,190.92000000000002)" d="M112,0h1334" style="stroke: rgb(232, 235, 239); stroke-opacity: 1; stroke-width: 1px;"/><path class="ygrid crisp" transform="translate(0,132.76)" d="M112,0h1334" style="stroke: rgb(232, 235, 239); stroke-opacity: 1; stroke-width: 1px;"/></g><g class="y2"/></g><g class="zerolinelayer"/><g class="layer-between"><g class="shapelayer"/><g class="imagelayer"/></g><path class="xlines-below"/><path class="ylines-below"/><g class="overlines-below"><path class="xy2-x"/><path class="xy2-y"/></g><g class="xaxislayer-below"/><g class="yaxislayer-below"/><g class="overaxes-below"><g class="xy2-x"/><g class="xy2-y"/></g><g class="overplot"><g class="xy" transform="translate(112,86)" clip-path="url(#clip4201cexyplot)"><g class="scatterlayer mlayer"><g class="trace scatter trace689258" style="stroke-miterlimit: 2; opacity: 1;"><g class="fills"/><g class="errorbars"/><g class="lines"><path class="js-line" d="M13.74,511.1L51.08,510.04L56.17,507.12L65.13,506.79L70.22,505.17L74.85,502.57L79.63,504.67L98.46,505.29L102.94,504.05L107.87,492.1L112.66,492.53L121.76,480.49L126.55,482.23L140.59,481.24L145.07,479.53L154.79,476.93L159.57,475.8L164.2,472.76L168.83,467.06L173.77,457.67L178.09,455.2L182.88,454.05L187.2,451.08L192.29,451.92L196.92,448.37L206.49,445.77L210.96,446.36L215.9,445.55L220.53,438.5L225.01,437.16L230.1,437.37L234.42,433.38L239.05,432.66L243.84,431.01L248.62,433.41L253.1,433.1L258.03,428.81L262.82,425.89L267.14,417.03L272.23,413.19L276.86,411.89L286.43,404.55L290.91,402.39L295.69,399.43L300.32,406.36L304.95,404.65L309.73,398.86L314.52,391.1L318.99,393.65L323.93,381.37L328.72,377.18L333.04,375.41L338.13,369.86L342.76,358.26L347.08,332.25L352.02,316.86L356.65,317.14L361.12,312.22L366.06,310.51L370.85,314.29L375.63,312.76L380.26,304.7L384.89,299.58L389.67,294.4L394.46,295.49L398.93,297.95L403.26,295.91L408.35,292.93L412.98,287.33L417.76,267.62L422.39,257.99L427.02,261.47L431.96,255.99L436.59,251.76L441.07,251.88L446,250.83L450.79,248.16L455.57,256.85L459.89,257.28L464.68,254.35L469.15,247.07L474.09,249.84L478.72,247.71L483.2,234.05L488.29,233.95L492.92,234.66L497.7,230.22L502.33,217.56L506.96,220.03L521.01,212.7L525.79,213.33L530.58,218L535.05,212.91L539.99,214.74L544.77,205.44L549.09,196.24L554.19,190.95L558.82,187.36L563.6,186L568.39,188.58L572.71,202.35L577.18,208.22L582.12,229.02L591.23,257.15L596.32,265.88L605.73,271.57L610.52,277.91L614.99,283.55L619.93,294.09L624.71,297.46L629.04,296.24L633.82,295.04L638.45,296.73L647.86,297.69L652.65,296.72L657.12,297.96L662.06,303.22L676.26,312.96L680.89,306.04L685.21,303.67L690.15,309.71L694.78,308.87L699.25,311.24L704.19,312.06L708.98,320.55L723.02,318.58L727.8,324.16L732.59,327.34L737.06,320.84L741.85,296.65L746.63,287.32L751.11,286.47L756.05,275.15L760.68,259.74L765.15,250.39L770.24,247.41L774.87,242.61L779.66,239.82L784.29,253.33L788.92,264.17L793.86,261.98L798.18,251.5L802.96,251.41L807.28,248.73L812.38,247.41L817.01,244.14L821.79,249.92L831.05,240.39L835.99,240.12L840.62,238.41L845.09,232.68L850.19,229.14L854.51,230.04L859.14,229.28L863.92,221.6L868.7,219.79L873.18,225.8L887.22,237.93L892.32,235.98L896.95,233.69L901.73,224.51L906.52,215.52L910.84,219.55L915.31,219.51L920.25,226.41L925.03,226.46L929.36,210.94L934.45,204.25L939.08,189.39L943.86,180.42L948.65,175.55L953.12,179.15L958.06,177.56L962.84,170.25L967.17,160.22L976.73,121.4L981.21,103.37L986.15,92.17L990.93,72.3L995.72,67.88L1000.35,59.15L1004.98,56.63L1009.76,69.79L1014.54,73.73L1019.02,71.64L1028.43,94.22L1033.06,96.08L1037.85,88.97L1042.48,89.48L1047.11,88.01L1052.05,90.81L1061.15,95.85L1066.09,94.87L1070.87,95.69L1075.66,90.28L1079.98,85.65L1084.76,64.08L1089.24,60.2L1094.18,65.97L1098.81,69.7L1103.28,79.34L1108.37,86.06L1113,98.05L1117.79,104.89L1122.42,107.9L1127.05,108.43L1131.99,111.5L1136.31,115.48L1141.09,111.76L1150.51,107.71L1155.14,114.21L1164.7,123.56L1169.18,130.39L1174.12,134.64L1178.75,135.74L1183.22,136.84L1188.32,142.76L1192.79,148.43L1197.27,149.98L1202.2,153.81L1206.99,152.85L1211.31,150.81L1216.4,145.26L1225.82,139.8L1230.6,134.74L1235.08,138.05L1240.02,137.63L1244.8,133.61L1249.12,121.98L1258.53,97.89L1263.16,100.11L1267.95,91.43L1272.73,88.8L1277.21,82.58L1282.15,65.64L1291.56,54.69L1296.34,43.8L1301.13,29.94L1305.45,26.9L1310.23,36.55L1314.86,30.83L1319.65,32.7L1324.28,41.29" style="vector-effect: none; fill: none; stroke: rgb(0, 0, 255); stroke-opacity: 1; stroke-width: 5px; opacity: 1;"/></g><g class="points"/><g class="text"/></g></g></g><g class="xy2" transform="translate(112,86)" clip-path="url(#clip4201cexy2plot)"><g class="scatterlayer mlayer"><g class="trace scatter trace3127b6" style="stroke-miterlimit: 2; opacity: 1;"><g class="fills"/><g class="errorbars"/><g class="lines"><path class="js-line" d="M0.15,430.77L0.77,434.12L0.93,429.66L1.08,415.15L1.39,428.54L2.31,417.38L2.47,410.69L3.4,405.11L3.55,398.42L4.32,406.23L5.09,405.11L5.25,396.19L6.64,383.91L6.79,386.15L7.41,388.38L8.95,357.14L9.41,357.14L10.8,347.1L10.96,352.68L11.11,370.53L12.19,415.15L12.65,402.88L12.81,401.76L13.89,385.03L14.2,396.19L14.35,400.65L15.12,397.3L15.43,408.46L15.9,407.34L16.05,402.88L17.13,412.92L17.44,407.34L17.59,402.88L18.06,400.65L18.21,407.34L19.75,382.8L20.22,378.34L21.76,350.44L21.91,351.56L22.53,360.48L22.84,356.02L23.46,363.83L23.61,356.02L25.16,328.13L25.62,337.06L25.77,349.33L26.85,347.1L27.32,371.64L27.78,371.64L28.86,398.42L29.01,396.19L29.17,382.8L29.48,369.41L30.09,389.49L30.25,391.72L30.56,387.26L31.02,406.23L31.33,395.07L31.64,398.42L32.1,412.92L33.33,430.77L33.49,420.73L33.8,412.92L34.41,415.15L34.57,428.54L35.5,409.57L35.96,411.81L36.42,417.38L36.58,414.04L36.73,422.96L37.04,415.15L37.66,430.77L38.12,401.76L39.2,402.88L39.66,402.88L39.82,411.81L40.28,401.76L40.9,404L41.05,397.3L41.98,377.22L42.29,383.91L42.44,400.65L42.9,395.07L43.21,402.88L43.37,405.11L44.45,406.23L44.6,398.42L45.06,397.3L45.53,386.15L45.68,373.87L46.3,372.76L46.45,380.57L47.22,379.45L47.38,374.99L47.84,393.95L48.61,387.26L48.77,376.1L49.38,362.72L50,374.99L50.46,381.68L50.62,373.87L51.08,386.15L51.55,391.72L53.09,371.64L53.24,372.76L53.71,380.57L54.17,376.1L54.94,386.15L55.09,378.34L55.4,376.1L55.87,381.68L56.02,383.91L56.17,382.8L56.48,389.49L56.95,389.49L58.49,362.72L58.64,363.83L59.26,364.95L59.42,359.37L59.57,356.02L59.72,362.72L60.19,370.53L60.5,373.87L61.42,361.6L61.58,362.72L61.73,366.06L62.97,353.79L63.58,354.91L64.05,359.37L64.51,356.02L66.82,315.86L67.13,327.01L67.29,329.25L68.06,311.4L68.37,320.32L68.83,318.09L69.14,313.63L69.29,315.86L69.45,323.67L70.06,329.25L70.37,324.78L70.53,348.21L72.53,374.99L72.69,368.29L73.15,368.29L74.69,399.53L74.85,395.07L75.31,392.84L75.62,393.95L75.77,399.53L76.39,410.69L77.01,400.65L77.47,390.61L77.93,378.34L78.55,383.91L78.71,386.15L79.79,379.45L79.94,387.26L80.87,399.53L81.02,405.11L81.79,411.81L82.41,399.53L82.87,400.65L83.34,399.53L83.95,408.46L84.11,405.11L84.26,393.95L84.57,378.34L85.65,385.03L86.11,385.03L86.27,386.15L86.58,383.91L86.73,376.1L87.19,378.34L87.35,388.38L87.81,382.8L88.27,388.38L88.43,399.53L89.97,362.72L90.44,366.06L90.59,371.64L91.98,356.02L92.13,359.37L92.6,367.18L92.9,369.41L93.21,367.18L93.68,363.83L93.98,357.14L94.29,369.41L94.91,367.18L96.3,361.6L96.45,366.06L98.15,349.33L98.31,356.02L99.39,371.64L99.54,370.53L99.7,358.25L101.55,344.87L101.7,340.4L102.63,352.68L102.94,341.52L103.4,345.98L103.71,339.29L104.48,351.56L104.63,353.79L104.79,354.91L105.1,350.44L105.56,345.98L105.71,347.1L105.87,341.52L106.18,345.98L106.64,340.4L108.18,363.83L108.34,352.68L108.8,349.33L110.19,334.82L110.34,342.63L111.12,337.06L111.27,341.52L111.42,340.4L112.04,345.98L113.74,360.48L114.2,357.14L115.9,348.21L116.36,347.1L116.52,353.79L116.98,343.75L117.44,343.75L117.6,345.98L117.91,352.68L118.52,340.4L118.68,334.82L118.83,325.9L119.76,339.29L119.91,343.75L120.84,345.98L120.99,342.63L121.15,343.75L121.3,342.63L121.76,349.33L122.38,343.75L122.84,341.52L124.08,362.72L124.23,359.37L124.39,352.68L126.08,376.1L126.24,372.76L126.39,370.53L126.7,357.14L127.63,366.06L127.78,364.95L128.25,362.72L128.4,352.68L128.55,353.79L128.71,351.56L128.86,345.98L129.33,344.87L129.48,340.4L129.63,338.17L129.79,344.87L130.41,341.52L130.56,344.87L130.87,335.94L131.49,339.29L131.64,342.63L131.95,340.4L132.1,348.21L132.57,348.21L132.72,343.75L133.03,344.87L133.8,342.63L133.96,343.75L134.11,348.21L134.88,340.4L135.34,345.98L135.96,341.52L136.12,331.48L137.2,341.52L137.35,342.63L138.28,359.37L138.59,351.56L139.05,353.79L140.13,340.4L140.59,345.98L140.75,354.91L143.37,380.57L143.52,373.87L143.68,371.64L143.83,377.22L143.99,370.53L144.76,373.87L144.91,367.18L146.15,382.8L146.61,385.03L147.07,379.45L147.23,372.76L147.69,373.87L147.84,368.29L148,372.76L148.31,366.06L148.93,366.06L149.08,363.83L150.47,337.06L151.09,343.75L151.24,348.21L151.55,342.63L152.17,345.98L152.32,347.1L153.25,353.79L153.4,347.1L153.56,345.98L154.79,358.25L155.25,364.95L156.95,380.57L157.41,376.1L158.03,370.53L158.49,374.99L158.65,388.38L158.8,389.49L158.96,383.91L159.11,383.91L159.57,382.8L160.19,389.49L160.65,386.15L160.81,383.91L161.73,398.42L162.04,390.61L162.2,387.26L162.35,392.84L162.97,386.15L163.43,388.38L163.89,387.26L165.28,402.88L165.44,398.42L165.59,402.88L166.36,393.95L166.52,396.19L166.67,395.07L167.29,396.19L167.44,398.42L168.37,388.38L168.83,389.49L169.45,386.15L169.61,383.91L169.91,388.38L170.38,388.38L170.53,389.49L170.69,390.61L170.84,383.91L170.99,379.45L172.54,376.1L172.69,379.45L174.08,387.26L174.23,382.8L174.7,382.8L174.85,385.03L175.93,398.42L176.24,393.95L176.4,386.15L177.01,387.26L177.17,383.91L180.1,409.57L180.25,401.76L180.56,396.19L182.41,416.27L182.57,418.5L183.96,430.77L184.42,428.54L184.57,424.08L184.88,436.35L185.66,425.19L185.81,425.19L186.89,439.7L187.04,433L187.2,426.31L188.12,437.47L188.74,433L188.9,430.77L189.2,430.77L189.36,435.23L189.82,435.23L189.98,431.89L190.13,435.23L190.28,428.54L191.06,431.89L191.21,429.66L192.29,436.35L192.45,434.12L192.6,424.08L193.37,436.35L194.14,433L194.3,431.89L195.84,454.2L196.3,457.55L196.61,458.66L196.92,443.04L198,444.16L198.46,445.28L200.01,433L200.16,437.47L200.78,436.35L200.93,431.89L201.09,435.23L201.86,427.42L202.01,422.96L202.94,412.92L203.25,416.27L203.4,419.62L203.87,422.96L204.02,418.5L204.17,414.04L205.1,407.34L205.56,409.57L206.03,414.04L206.49,409.57L208.19,425.19L208.34,422.96L208.5,421.85L209.58,426.31L209.73,417.38L210.35,409.57L210.96,412.92L211.43,412.92L214.05,437.47L214.21,437.47L214.67,441.93L214.82,440.81L214.98,431.89L216.06,415.15L216.37,427.42L216.83,422.96L217.45,410.69L218.22,416.27L218.37,425.19L219.61,412.92L220.07,409.57L220.69,393.95L221.61,399.53L221.77,406.23L222.38,399.53L222.69,408.46L222.85,415.15L223.93,421.85L224.55,420.73L224.7,426.31L225.01,428.54L225.63,425.19L225.78,422.96L227.94,438.58L228.09,435.23L228.25,435.23L229.02,431.89L229.18,436.35L229.33,436.35L229.79,438.58L231.34,426.31L231.49,430.77L232.11,434.12L232.26,425.19L234.11,411.81L234.27,398.42L234.42,405.11L235.5,400.65L235.66,401.76L235.81,410.69L236.43,399.53L236.89,400.65L237.35,402.88L237.66,398.42L237.97,404L238.59,400.65L238.74,401.76L241.21,417.38L241.68,416.27L241.83,415.15L242.91,406.23L243.22,411.81L243.37,410.69L243.99,404L244.45,409.57L244.92,412.92L246.46,428.54L246.61,434.12L247.08,430.77L247.23,436.35L247.39,438.58L247.54,436.35L248.31,443.04L248.47,440.81L248.62,443.04L250.47,475.4L250.78,468.7L250.94,464.24L251.4,464.24L251.55,457.55L251.86,465.36L252.94,464.24L253.1,455.32L253.56,450.85L253.71,458.66L254.02,467.59L254.18,470.94L254.64,466.47L254.79,454.2L255.1,465.36L256.03,454.2L256.18,455.32L258.03,431.89L258.19,431.89L259.27,447.51L260.04,440.81L260.19,437.47L261.28,425.19L261.58,426.31L261.74,427.42L262.36,419.62L262.51,425.19L264.36,398.42L264.52,400.65L266.68,420.73L266.83,420.73L267.76,408.46L268.07,409.57L268.22,420.73L268.99,419.62L269.15,418.5L269.3,422.96L269.92,417.38L270.07,407.34L271.92,387.26L272.08,389.49L272.23,398.42L272.54,373.87L273,376.1L273.16,374.99L275.47,340.4L275.78,341.52L276.24,321.44L277.94,367.18L278.41,370.53L279.02,371.64L279.79,352.68L279.95,353.79L280.87,377.22L281.18,358.25L281.65,352.68L283.04,333.71L283.19,347.1L284.42,318.09L285.04,302.47L286.28,321.44L286.43,308.05L286.58,305.82L287.05,313.63L287.36,311.4L287.51,323.67L288.13,306.93L288.59,334.82L288.75,324.78L289.36,333.71L289.52,332.59L289.67,319.21L290.29,330.36L290.44,320.32L290.75,300.24L290.91,282.39L291.37,280.16L291.52,287.97L291.68,289.08L291.83,279.04L292.45,260.07L293.07,272.35L293.53,276.81L293.99,273.46L294.76,299.12L295.07,296.89L295.23,285.74L295.69,283.5L295.84,295.78L296.15,302.47L296.31,291.31L296.92,300.24L297.08,292.43L298.47,321.44L298.93,320.32L299.09,319.21L299.24,320.32L299.39,333.71L299.55,338.17L300.32,327.01L300.47,329.25L300.63,330.36L301.09,330.36L301.25,332.59L301.71,314.74L302.79,316.97L303.25,311.4L303.56,304.7L303.71,316.97L303.87,311.4L304.49,322.55L305.88,341.52L306.03,323.67L307.11,357.14L307.73,354.91L307.88,347.1L308.65,354.91L308.81,342.63L308.96,343.75L309.12,332.59L310.2,318.09L310.81,319.21L311.12,314.74L311.43,324.78L311.89,319.21L312.05,315.86L313.28,360.48L313.59,359.37L314.05,349.33L314.67,341.52L315.44,359.37L315.6,347.1L316.22,360.48L316.68,345.98L316.83,344.87L317.45,347.1L317.6,338.17L317.91,348.21L318.38,342.63L318.68,335.94L318.84,340.4L318.99,347.1L320.07,350.44L320.54,347.1L320.85,349.33L321,345.98L321.15,359.37L321.62,349.33L321.77,366.06L321.93,361.6L322.08,376.1L322.7,366.06L323.01,388.38L323.16,392.84L323.31,393.95L323.78,386.15L325.48,491.02L326.09,499.94L327.02,467.59L327.17,453.09L327.33,448.62L327.48,457.55L327.64,496.6L328.1,496.6L328.25,501.06L328.41,499.94L328.56,501.06L328.72,509.98L329.18,504.41L329.33,480.98L329.49,467.59L330.57,470.94L330.72,488.79L331.34,477.63L331.65,492.13L331.8,501.06L331.96,511.1L332.57,470.94L332.73,458.66L333.81,398.42L333.96,380.57L334.58,435.23L335.2,430.77L335.66,430.77L336.12,366.06L337.05,390.61L337.36,386.15L337.98,385.03L338.13,398.42L338.9,420.73L339.06,392.84L339.21,388.38L340.14,353.79L340.6,361.6L341.22,362.72L341.37,380.57L342.3,357.14L342.45,361.6L342.61,363.83L343.22,348.21L343.69,364.95L343.84,362.72L344.3,344.87L344.77,339.29L344.92,347.1L345.54,330.36L345.85,352.68L346,345.98L346.46,349.33L347.85,392.84L348.01,380.57L348.16,385.03L348.78,399.53L348.93,386.15L350.01,302.47L350.78,315.86L350.94,311.4L351.25,304.7L352.48,330.36L352.95,329.25L353.41,340.4L354.18,329.25L354.33,332.59L354.64,349.33L355.41,343.75L355.57,329.25L356.19,324.78L356.34,331.48L356.49,337.06L356.8,360.48L357.88,357.14L358.35,349.33L359.74,333.71L359.89,345.98L360.97,368.29L361.12,345.98L361.59,360.48L361.9,347.1L362.2,369.41L362.67,376.1L363.9,369.41L364.06,377.22L364.21,380.57L364.83,370.53L364.98,364.95L365.14,374.99L366.06,358.25L366.22,363.83L366.99,386.15L367.3,359.37L367.45,368.29L367.61,360.48L368.38,368.29L368.69,361.6L369.15,352.68L369.3,350.44L369.77,361.6L370.23,366.06L370.38,367.18L370.54,364.95L370.69,358.25L370.85,350.44L371.62,366.06L371.77,368.29L371.93,369.41L372.39,363.83L372.54,360.48L373.01,366.06L373.62,358.25L373.78,349.33L373.93,338.17L374.71,351.56L374.86,351.56L375.01,354.91L375.63,356.02L375.79,353.79L375.94,350.44L377.33,337.06L377.79,343.75L378.25,340.4L378.41,347.1L378.87,348.21L379.03,343.75L380.42,327.01L381.03,328.13L381.19,330.36L381.34,321.44L381.65,333.71L382.42,328.13L382.58,327.01L383.35,312.51L383.66,325.9L383.81,328.13L384.27,337.06L384.58,324.78L384.74,327.01L384.89,316.97L385.35,316.97L385.51,321.44L387.67,293.54L388.13,294.66L388.59,293.54L388.75,294.66L388.9,289.08L389.21,287.97L389.67,285.74L389.83,286.85L389.98,291.31L391.37,316.97L391.84,312.51L392.3,302.47L392.45,305.82L392.92,314.74L394,327.01L394.46,324.78L395.08,323.67L395.39,324.78L396.31,310.28L396.47,319.21L396.62,315.86L397.7,303.59L397.85,305.82L398.32,308.05L398.63,310.28L399.55,300.24L399.86,301.35L400.01,306.93L400.79,320.32L400.94,323.67L401.71,318.09L401.87,322.55L402.02,324.78L402.64,332.59L403.26,324.78L403.72,322.55L404.03,322.55L404.18,320.32L405.26,325.9L405.42,321.44L405.88,322.55L406.19,315.86L406.5,327.01L406.96,324.78L407.11,325.9L408.19,344.87L408.5,339.29L408.66,348.21L409.12,349.33L409.27,347.1L409.43,332.59L409.58,335.94L410.35,327.01L410.51,331.48L410.66,325.9L411.59,318.09L411.9,323.67L412.36,322.55L413.9,299.12L414.06,304.7L414.52,308.05L414.83,302.47L414.98,302.47L415.14,300.24L415.76,299.12L416.06,311.4L416.84,308.05L416.99,304.7L418.07,311.4L418.23,309.16L418.38,300.24L418.84,299.12L419,303.59L419.15,302.47L419.31,310.28L419.92,305.82L420.08,306.93L421.31,292.43L421.62,294.66L422.08,290.2L422.24,286.85L422.7,301.35L423.32,300.24L423.47,304.7L423.63,299.12L424.4,302.47L424.55,296.89L424.71,294.66L425.32,303.59L425.48,302.47L425.63,292.43L426.71,295.78L426.87,294.66L428.1,275.69L428.57,275.69L429.03,276.81L429.65,265.65L429.8,272.35L429.95,273.46L430.73,276.81L430.88,272.35L431.03,272.35L431.19,265.65L432.42,282.39L433.04,269L433.35,276.81L433.97,264.54L434.12,263.42L434.58,271.23L435.05,264.54L435.2,246.69L435.66,250.03L436.28,236.65L436.44,242.22L436.59,243.34L437.21,239.99L437.36,232.18L438.75,205.41L438.91,215.45L439.52,208.75L439.83,215.45L439.99,215.45L440.45,209.87L440.6,217.68L440.76,228.84L441.99,208.75L442.15,213.22L442.61,213.22L443.84,256.73L444.15,252.26L444.31,245.57L444.92,236.65L445.08,248.92L445.39,243.34L445.85,241.11L446.31,253.38L446.47,255.61L446.93,247.8L447.08,262.31L447.24,279.04L448.16,301.35L448.47,287.97L448.63,276.81L449.4,274.58L449.55,280.16L450.17,277.93L450.33,290.2L450.79,271.23L451.25,276.81L451.41,272.35L451.56,280.16L452.33,266.77L452.49,267.88L452.64,269L452.79,267.88L452.95,271.23L453.72,270.12L453.87,295.78L455.57,280.16L455.73,283.5L455.88,289.08L457.12,314.74L457.27,311.4L457.73,309.16L458.04,312.51L458.2,305.82L458.35,299.12L460.05,271.23L460.2,272.35L460.36,281.27L461.44,261.19L461.59,266.77L462.05,263.42L462.52,251.15L463.13,260.07L463.29,265.65L464.37,274.58L464.68,270.12L464.83,264.54L465.3,261.19L465.45,264.54L465.6,270.12L467.61,244.46L467.92,252.26L468.54,247.8L468.84,250.03L470.08,237.76L470.23,238.88L470.7,236.65L470.85,242.22L472.24,261.19L472.39,254.5L472.86,253.38L474.25,242.22L474.4,246.69L474.55,243.34L475.48,248.92L475.63,247.8L476.25,252.26L476.41,242.22L476.56,241.11L476.72,243.34L477.18,247.8L477.33,246.69L477.49,251.15L477.64,238.88L477.8,231.07L478.72,243.34L478.88,245.57L479.49,245.57L479.65,242.22L479.8,243.34L479.96,236.65L480.42,229.95L480.88,235.53L481.65,219.91L481.81,228.84L481.96,235.53L482.89,222.14L483.04,217.68L484.12,186.44L484.28,195.37L484.74,181.98L485.05,145.16L486.13,160.78L486.28,169.71L486.44,161.9L487.06,174.17L487.21,187.56L488.6,159.66L489.22,165.24L489.68,156.32L490.76,174.17L491.22,169.71L491.68,160.78L492.3,173.05L492.46,173.05L492.92,178.63L493.38,167.47L493.54,165.24L495.08,190.9L495.54,186.44L496.78,173.05L496.93,176.4L497.09,186.44L498.78,148.51L499.09,155.2L499.25,155.2L500.94,167.47L501.1,165.24L501.25,158.55L502.49,166.36L502.64,159.66L503.26,160.78L503.41,158.55L503.57,160.78L503.72,165.24L504.34,154.09L504.65,158.55L504.8,154.09L505.27,146.28L505.88,155.2L506.5,157.43L507.89,148.51L508.04,147.39L508.51,145.16L508.66,150.74L509.74,140.7L509.9,142.93L510.05,159.66L510.67,161.9L510.82,158.55L510.98,146.28L512.21,126.19L512.36,136.24L512.83,130.66L513.29,140.7L513.91,135.12L514.06,129.54L515.14,135.12L515.3,129.54L516.07,123.96L516.38,128.43L516.53,134L516.69,132.89L517.15,137.35L517.46,135.12L517.61,136.24L518.23,132.89L518.38,137.35L518.54,151.85L518.85,149.62L519.31,156.32L520.85,145.16L521.01,149.62L521.78,154.09L523.78,130.66L523.94,130.66L524.09,136.24L525.02,132.89L525.17,127.31L525.79,126.19L525.95,128.43L526.1,128.43L526.25,129.54L526.41,126.19L527.33,131.77L527.49,128.43L527.95,122.85L529.34,113.92L529.49,118.38L530.42,109.46L530.58,103.88L530.73,93.84L531.66,105L531.81,103.88L532.27,100.53L532.74,107.23L532.89,99.42L533.51,100.53L533.66,102.77L533.97,112.81L535.05,108.34L535.51,103.88L535.67,106.11L536.13,100.53L536.59,96.07L538.29,84.91L538.75,83.8L539.22,86.03L539.37,91.61L540.3,82.68L540.92,83.8L541.07,87.15L542.46,112.81L543.08,111.69L543.23,109.46L544.77,83.8L545.39,83.8L545.54,82.68L545.7,89.38L546.47,83.8L546.63,91.61L546.93,74.87L548.01,80.45L548.48,78.22L550.02,63.72L550.17,68.18L550.79,69.3L551.87,80.45L552.03,87.15L552.95,80.45L553.11,82.68L553.26,89.38L554.19,72.64L554.5,78.22L554.96,75.99L555.11,79.34L555.42,64.83L555.58,67.06L556.19,65.95L557.43,80.45L557.74,79.34L558.2,78.22L560.36,62.6L560.51,65.95L560.67,71.53L561.75,86.03L562.06,80.45L562.52,82.68L563.14,78.22L563.6,84.91L564.06,99.42L564.84,92.72L564.99,88.26L565.14,90.49L565.76,86.03L566.22,88.26L566.38,86.03L567,83.8L567.15,86.03L567.3,90.49L568.08,100.53L568.54,98.3L569,93.84L570.39,99.42L570.55,97.19L571.47,101.65L571.63,99.42L571.78,96.07L572.86,84.91L573.48,87.15L573.63,91.61L574.4,103.88L575.02,98.3L575.48,92.72L575.79,96.07L577.03,88.26L577.64,87.15L577.8,89.38L578.11,81.57L578.26,77.11L579.03,92.72L579.34,83.8L579.81,82.68L580.27,98.3L581.04,88.26L581.19,87.15L581.5,83.8L582.12,88.26L582.27,88.26L585.21,125.08L585.36,121.73L586.9,154.09L587.37,151.85L588.76,183.09L589.53,176.4L589.68,175.28L590.76,231.07L591.23,218.79L591.69,213.22L591.84,208.75L592,213.22L592.31,233.3L594.93,190.9L595.08,196.48L595.24,208.75L595.55,207.64L596.01,209.87L596.16,210.99L596.47,213.22L597.55,197.6L597.71,196.48L598.48,215.45L598.63,226.6L599.71,247.8L599.87,236.65L600.33,231.07L600.49,223.26L600.95,235.53L601.57,244.46L601.87,262.31L602.8,248.92L602.95,250.03L603.73,237.76L603.88,214.33L604.03,221.03L604.96,209.87L605.11,212.1L606.2,207.64L606.35,210.99L606.81,209.87L608.05,219.91L608.2,215.45L608.36,209.87L609.59,197.6L610.05,198.71L610.21,198.71L612.37,228.84L612.52,224.37L612.68,216.56L613.29,213.22L613.6,231.07L613.91,222.14L614.37,222.14L614.53,219.91L614.99,226.6L615.45,233.3L615.61,231.07L615.76,241.11L615.92,244.46L616.07,245.57L616.54,242.22L616.69,236.65L617,243.34L617.62,238.88L617.77,234.41L619.31,248.92L619.78,244.46L619.93,248.92L620.86,239.99L621.01,237.76L621.16,239.99L621.32,233.3L621.47,225.49L621.94,223.26L622.09,228.84L622.55,224.37L623.17,225.49L623.33,228.84L623.48,233.3L623.63,227.72L624.25,228.84L624.41,221.03L624.56,223.26L624.71,218.79L625.18,212.1L626.57,225.49L626.72,222.14L626.88,225.49L627.49,223.26L627.65,226.6L627.8,229.95L629.5,208.75L629.81,217.68L629.96,218.79L630.73,223.26L631.04,214.33L631.2,213.22L631.97,228.84L632.12,233.3L633.2,222.14L633.36,226.6L633.82,226.6L634.13,235.53L634.9,225.49L635.05,224.37L636.29,213.22L636.44,217.68L637.06,218.79L637.68,213.22L638.14,217.68L638.3,218.79L638.76,205.41L639.68,206.52L639.84,208.75L640.3,213.22L640.46,209.87L640.61,200.94L640.76,194.25L641.84,198.71L642,195.37L642.62,194.25L642.77,184.21L643.85,208.75L644.93,207.64L645.09,203.18L645.86,207.64L646.01,202.06L646.17,203.18L646.32,198.71L646.78,198.71L646.94,194.25L647.25,188.67L648.02,195.37L648.17,202.06L649.56,187.56L650.02,190.9L650.18,194.25L650.33,195.37L650.49,186.44L650.64,188.67L651.57,187.56L651.72,181.98L652.18,184.21L652.34,181.98L652.49,192.02L654.35,180.86L654.5,184.21L654.96,177.52L655.58,185.32L655.73,188.67L656.97,183.09L657.12,185.32L657.74,189.79L657.89,186.44L658.2,194.25L658.67,198.71L660.21,227.72L660.36,222.14L660.83,224.37L662.22,210.99L662.37,214.33L662.52,217.68L663.14,208.75L663.3,203.18L664.53,190.9L665.15,192.02L665.3,196.48L667.77,209.87L667.93,202.06L669.78,218.79L669.93,214.33L670.09,209.87L670.86,206.52L671.17,203.18L672.25,222.14L672.71,221.03L672.86,214.33L673.79,215.45L673.94,206.52L674.1,214.33L674.25,223.26L674.87,212.1L675.18,225.49L675.49,224.37L676.11,222.14L676.26,214.33L677.65,199.83L678.11,198.71L678.27,200.94L678.42,192.02L678.57,180.86L679.65,192.02L679.81,183.09L680.27,184.21L681.35,163.01L681.66,170.82L681.82,174.17L683.05,197.6L683.67,207.64L685.21,178.63L685.67,187.56L686.14,189.79L686.29,205.41L687.06,203.18L687.83,209.87L687.99,206.52L689.07,171.94L689.38,183.09L689.53,180.86L689.99,185.32L690.15,179.75L690.3,167.47L690.61,161.9L691.69,175.28L692.16,175.28L692.77,157.43L693.39,166.36L693.54,173.05L694.32,163.01L694.62,175.28L694.78,171.94L694.93,179.75L696.79,205.41L696.94,199.83L697.09,194.25L697.71,206.52L698.17,197.6L698.79,195.37L701.11,229.95L701.26,222.14L701.41,221.03L702.5,204.29L702.96,212.1L703.58,223.26L704.04,210.99L704.35,219.91L704.5,214.33L705.43,203.18L705.58,212.1L705.74,221.03L706.2,224.37L706.51,217.68L706.66,217.68L707.28,222.14L707.74,214.33L707.9,216.56L708.36,215.45L708.67,217.68L708.98,210.99L709.44,210.99L709.75,224.37L710.83,217.68L710.98,223.26L711.75,228.84L711.91,221.03L712.68,217.68L712.84,225.49L712.99,232.18L713.76,224.37L714.22,231.07L714.38,228.84L715,234.41L715.46,227.72L715.92,228.84L716.23,241.11L716.54,224.37L717.16,229.95L717.31,231.07L718.08,238.88L718.39,232.18L718.55,225.49L718.7,216.56L719.78,224.37L720.4,219.91L720.55,215.45L721.32,225.49L721.48,226.6L722.56,223.26L722.71,229.95L724.1,243.34L724.56,244.46L725.03,246.69L725.64,244.46L725.8,239.99L727.96,224.37L728.11,228.84L728.27,239.99L729.35,241.11L729.5,234.41L729.97,246.69L730.27,253.38L730.58,241.11L731.05,243.34L731.51,241.11L732.28,247.8L732.43,245.57L733.82,232.18L734.29,239.99L734.6,232.18L735.52,235.53L735.68,236.65L735.83,242.22L736.6,232.18L736.76,228.84L737.84,215.45L738.14,218.79L738.61,217.68L738.76,218.79L738.92,215.45L739.07,209.87L740,218.79L740.31,215.45L740.77,210.99L742.31,193.13L742.47,200.94L744.16,212.1L744.32,199.83L744.63,189.79L745.4,193.13L745.55,197.6L746.17,196.48L746.32,181.98L747.71,173.05L747.87,175.28L748.33,178.63L748.79,186.44L749.72,185.32L749.87,186.44L750.65,189.79L750.8,180.86L751.11,173.05L751.57,181.98L752.03,174.17L752.19,179.75L752.65,179.75L752.81,176.4L753.27,174.17L753.89,176.4L754.04,188.67L754.97,194.25L755.12,192.02L755.27,187.56L756.2,194.25L756.36,189.79L756.51,180.86L756.97,180.86L757.13,176.4L757.59,173.05L758.21,178.63L758.36,174.17L758.52,176.4L759.29,190.9L759.75,176.4L760.21,173.05L761.91,152.97L762.37,160.78L763.76,174.17L763.92,165.24L764.53,168.59L764.84,163.01L765,159.66L765.15,156.32L765.61,165.24L765.77,171.94L766.08,164.13L767,166.36L767.16,170.82L767.93,174.17L768.24,166.36L768.39,170.82L768.86,168.59L769.01,167.47L769.32,169.71L769.47,176.4L771.32,163.01L771.48,169.71L772.25,186.44L772.71,180.86L773.18,181.98L775.34,159.66L775.49,167.47L776.73,176.4L777.03,174.17L777.5,169.71L778.12,167.47L778.58,171.94L778.73,167.47L779.04,174.17L779.81,171.94L779.97,171.94L782.44,208.75L782.9,206.52L783.05,205.41L783.21,208.75L783.52,212.1L783.98,212.1L784.13,208.75L784.29,207.64L784.44,213.22L784.6,214.33L785.37,206.52L785.52,209.87L785.68,216.56L786.14,216.56L786.29,218.79L786.76,242.22L787.53,231.07L787.68,226.6L789.84,206.52L790,210.99L790.46,207.64L791.7,199.83L791.85,206.52L792.62,203.18L792.93,209.87L793.08,207.64L793.24,205.41L793.86,204.29L794.17,207.64L794.32,208.75L795.09,202.06L795.4,204.29L795.86,207.64L796.02,210.99L796.48,205.41L797.1,204.29L797.56,194.25L798.18,197.6L798.33,207.64L799.57,226.6L799.72,223.26L800.18,227.72L801.88,206.52L802.34,205.41L802.81,210.99L803.42,203.18L803.58,204.29L804.04,208.75L804.97,195.37L805.59,202.06L805.74,196.48L806.67,205.41L806.82,208.75L807.28,200.94L807.9,205.41L808.05,210.99L809.13,222.14L809.29,216.56L809.44,214.33L809.91,217.68L810.06,216.56L810.22,208.75L810.52,205.41L810.99,207.64L811.14,210.99L812.68,199.83L813.3,200.94L813.46,204.29L815.31,217.68L815.62,215.45L815.77,210.99L816.39,207.64L816.54,215.45L816.7,214.33L816.85,221.03L817.01,224.37L817.93,227.72L818.09,233.3L818.55,233.3L818.7,228.84L820.25,213.22L820.71,213.22L820.86,217.68L821.33,212.1L821.79,213.22L821.94,212.1L822.1,213.22L822.25,210.99L823.02,210.99L823.18,206.52L823.49,204.29L823.95,209.87L824.1,214.33L825.34,206.52L825.49,208.75L825.65,206.52L826.42,203.18L826.57,199.83L826.73,200.94L827.35,193.13L827.81,187.56L828.89,198.71L829.35,199.83L829.81,208.75L829.97,206.52L830.43,202.06L831.51,216.56L832.13,215.45L832.75,212.1L833.21,207.64L833.67,210.99L833.83,213.22L835.22,223.26L835.37,219.91L835.83,215.45L837.07,208.75L837.38,210.99L837.53,217.68L838.15,216.56L838.3,213.22L838.46,218.79L839.38,213.22L839.69,215.45L840.15,214.33L840.31,215.45L840.46,218.79L840.62,222.14L841.23,215.45L841.39,215.45L841.54,212.1L842.47,216.56L842.78,213.22L842.93,212.1L843.7,223.26L844.01,219.91L844.63,218.79L845.09,208.75L846.02,209.87L846.17,210.99L846.64,212.1L846.79,217.68L847.87,216.56L848.8,226.6L848.95,223.26L849.26,222.14L851.42,244.46L851.57,246.69L852.04,247.8L852.19,246.69L852.35,251.15L853.74,244.46L854.2,241.11L854.35,245.57L854.66,238.88L855.43,244.46L855.59,244.46L855.9,246.69L856.82,242.22L856.98,245.57L857.44,245.57L857.59,250.03L859.6,235.53L859.75,238.88L859.91,238.88L860.06,243.34L860.99,235.53L861.14,237.76L861.76,238.88L861.91,235.53L862.07,238.88L862.22,243.34L863.15,255.61L863.46,247.8L863.92,246.69L865.31,251.15L865.46,248.92L866.54,265.65L867.32,261.19L867.47,256.73L868.4,241.11L868.7,244.46L868.86,248.92L869.48,247.8L870.71,255.61L870.87,251.15L872.87,239.99L873.18,242.22L873.64,241.11L874.26,237.76L874.72,241.11L874.88,242.22L875.34,239.99L875.96,245.57L876.11,247.8L876.27,243.34L876.88,254.5L877.19,250.03L877.35,256.73L878.58,252.26L879.04,252.26L879.35,254.5L879.66,246.69L880.13,246.69L880.28,248.92L880.74,247.8L881.21,243.34L881.67,241.11L882.59,245.57L882.75,244.46L884.6,255.61L884.75,254.5L885.84,263.42L886.14,262.31L886.61,262.31L887.07,261.19L888.3,279.04L888.92,275.69L889.23,273.46L890.47,281.27L890.93,281.27L892.01,273.46L892.16,279.04L893.55,290.2L893.71,287.97L894.32,284.62L894.63,283.5L894.79,277.93L896.33,283.5L896.48,287.97L898.03,266.77L898.49,270.12L898.95,280.16L899.72,272.35L899.88,267.88L900.96,275.69L901.11,274.58L901.27,270.12L902.04,266.77L902.19,257.84L903.27,263.42L903.43,257.84L903.89,260.07L905.59,267.88L906.05,267.88L906.52,246.69L907.6,250.03L907.75,250.03L908.52,254.5L908.68,250.03L908.83,248.92L910.53,239.99L910.68,244.46L910.99,248.92L911.76,246.69L911.92,242.22L914.23,219.91L914.69,221.03L915.16,222.14L915.31,218.79L916.85,227.72L917.01,226.6L917.16,219.91L918.24,232.18L918.4,228.84L919.02,231.07L919.63,219.91L920.4,225.49L920.56,233.3L922.26,221.03L922.41,222.14L922.57,219.91L923.34,226.6L923.49,226.6L924.88,213.22L925.03,204.29L925.5,197.6L926.11,198.71L926.58,206.52L927.66,213.22L927.81,206.52L927.97,199.83L928.12,189.79L929.2,196.48L929.36,194.25L931.05,199.83L931.21,196.48L931.36,199.83L932.29,194.25L932.44,187.56L933.52,190.9L933.68,193.13L934.45,188.67L934.6,181.98L936.76,157.43L936.92,160.78L937.38,164.13L937.84,167.47L938.92,149.62L939.08,154.09L939.7,156.32L939.85,155.2L940,160.78L940.16,160.78L940.62,166.36L941.24,185.32L942.16,179.75L942.32,174.17L942.94,166.36L943.09,174.17L943.4,177.52L944.02,174.17L944.17,170.82L944.48,161.9L945.25,170.82L945.41,176.4L946.18,183.09L946.64,177.52L947.1,180.86L947.72,176.4L948.18,183.09L948.34,185.32L948.8,175.28L949.57,176.4L949.73,185.32L950.81,181.98L950.96,183.09L951.42,179.75L952.66,173.05L952.81,175.28L953.12,178.63L953.58,179.75L953.74,169.71L955.13,179.75L955.28,173.05L956.83,179.75L956.98,176.4L957.29,177.52L958.06,176.4L958.37,168.59L958.52,163.01L959.29,173.05L959.6,167.47L960.07,168.59L960.68,169.71L961.3,164.13L961.46,165.24L961.61,164.13L962.84,144.05L963.31,149.62L963.46,156.32L963.62,159.66L963.92,151.85L964.39,148.51L964.7,155.2L965.62,148.51L965.78,149.62L968.09,106.11L968.25,96.07L969.17,155.2L969.33,164.13L969.79,159.66L969.94,203.18L970.25,228.84L970.41,178.63L970.87,155.2L972.57,108.34L973.03,107.23L973.34,112.81L973.49,103.88L974.11,103.88L974.26,100.53L974.42,97.19L974.57,112.81L974.73,119.5L975.19,125.08L975.34,117.27L975.5,111.69L976.43,101.65L976.58,102.77L976.73,111.69L977.51,110.58L977.66,117.27L977.81,109.46L978.59,115.04L979.05,109.46L979.51,110.58L979.82,106.11L980.13,108.34L980.75,110.58L981.67,101.65L981.98,110.58L982.14,115.04L982.29,119.5L982.91,112.81L983.06,101.65L983.37,103.88L984.45,92.72L984.91,89.38L986.46,78.22L987.07,74.87L987.38,75.99L988.31,72.64L988.46,73.76L991.86,39.17L992.01,43.64L993.09,54.79L993.56,51.44L993.71,46.98L994.02,51.44L994.64,45.87L994.79,46.98L994.94,44.75L995.72,39.17L996.33,50.33L996.95,49.21L997.26,46.98L997.88,51.44L998.19,49.21L998.34,51.44L999.42,58.14L1000.04,54.79L1000.19,50.33L1001.43,59.25L1001.58,54.79L1001.73,54.79L1002.51,52.56L1002.81,53.68L1003.28,55.91L1004.98,68.18L1005.44,65.95L1005.9,62.6L1006.52,73.76L1006.67,72.64L1006.98,67.06L1007.6,69.3L1007.91,68.18L1008.06,65.95L1009.76,55.91L1009.91,60.37L1012.38,48.1L1012.54,48.1L1013.31,46.98L1013.46,44.75L1014.39,44.75L1014.54,41.4L1015.16,39.17L1015.32,40.29L1015.47,45.87L1016.24,58.14L1016.7,54.79L1016.86,49.21L1017.63,45.87L1017.78,50.33L1018.86,41.4L1019.79,43.64L1019.95,45.87L1020.72,43.64L1020.87,41.4L1023.03,71.53L1023.19,92.72L1023.96,72.64L1024.42,86.03L1024.88,90.49L1025.35,77.11L1026.12,83.8L1026.27,84.91L1026.43,97.19L1027.35,82.68L1027.51,82.68L1029.2,90.49L1029.36,87.15L1029.67,82.68L1029.82,88.26L1030.29,88.26L1030.9,73.76L1031.83,74.87L1031.98,74.87L1033.68,69.3L1033.83,61.49L1034.61,58.14L1035.07,64.83L1035.22,61.49L1035.69,59.25L1035.84,61.49L1036,70.41L1036.15,72.64L1036.77,67.06L1036.92,63.72L1038.31,71.53L1038.46,65.95L1039.24,68.18L1039.39,59.25L1041.09,75.99L1041.24,67.06L1041.71,70.41L1043.56,53.68L1043.71,57.02L1043.87,58.14L1045.41,42.52L1045.56,44.75L1045.72,50.33L1047.72,26.9L1047.88,30.25L1048.8,43.64L1049.27,39.17L1049.73,36.94L1051.27,49.21L1051.43,39.17L1051.89,39.17L1052.05,44.75L1052.35,44.75L1052.51,46.98L1053.13,50.33L1053.28,44.75L1053.43,39.17L1055.29,52.56L1055.44,52.56L1056.52,68.18L1056.83,59.25L1057.29,60.37L1057.76,61.49L1058.84,48.1L1058.99,51.44L1059.45,53.68L1059.61,60.37L1060.07,50.33L1060.53,45.87L1060.84,35.83L1061.15,52.56L1061.61,57.02L1062.85,29.13L1063.31,31.36L1063.77,33.59L1064.24,32.48L1065.01,53.68L1065.16,51.44L1065.47,40.29L1066.55,39.17L1067.63,52.56L1068.1,50.33L1068.4,57.02L1069.33,52.56L1069.48,46.98L1069.64,51.44L1070.26,45.87L1070.56,50.33L1070.72,41.4L1071.64,68.18L1071.8,78.22L1072.42,81.57L1072.57,71.53L1073.96,103.88L1074.11,93.84L1074.58,89.38L1074.89,100.53L1075.19,86.03L1075.81,90.49L1075.97,89.38L1077.2,112.81L1077.35,102.77L1077.82,103.88L1078.13,111.69L1078.43,105L1079.05,102.77L1081.21,43.64L1081.37,59.25L1081.52,61.49L1081.68,54.79L1082.14,71.53L1082.29,82.68L1082.76,79.34L1083.84,107.23L1084.3,105L1084.76,101.65L1086.92,152.97L1087.54,151.85L1087.69,159.66L1088,146.28L1088.62,148.51L1088.77,150.74L1089.08,146.28L1089.24,160.78L1089.7,179.75L1090.01,167.47L1090.32,188.67L1090.78,193.13L1090.94,197.6L1091.09,183.09L1091.4,186.44L1091.86,181.98L1092.02,189.79L1092.17,178.63L1093.1,183.09L1093.25,180.86L1093.56,171.94L1094.18,183.09L1094.33,192.02L1094.64,184.21L1095.41,190.9L1095.57,192.02L1096.34,258.96L1096.8,234.41L1097.42,237.76L1097.88,223.26L1098.5,239.99L1098.65,242.22L1099.58,217.68L1099.89,235.53L1100.04,239.99L1101.12,223.26L1101.74,228.84L1101.89,233.3L1103.74,169.71L1103.9,189.79L1104.21,184.21L1104.36,200.94L1104.82,192.02L1104.98,196.48L1106.21,207.64L1106.37,199.83L1107.29,214.33L1107.6,212.1L1108.07,219.91L1108.37,234.41L1108.53,250.03L1108.68,241.11L1109.61,257.84L1109.76,261.19L1110.84,279.04L1111.31,287.97L1111.62,285.74L1111.92,306.93L1112.39,333.71L1112.7,314.74L1113,347.1L1113.47,319.21L1113.62,313.63L1114.08,340.4L1114.7,340.4L1115.01,341.52L1115.16,337.06L1115.63,334.82L1115.78,338.17L1115.94,351.56L1116.09,352.68L1116.25,348.21L1116.71,344.87L1117.33,328.13L1118.1,334.82L1118.25,353.79L1120.26,313.63L1120.41,325.9L1120.57,334.82L1121.34,314.74L1121.65,311.4L1122.26,327.01L1122.42,309.16L1122.57,290.2L1122.73,280.16L1123.19,294.66L1123.65,293.54L1123.81,305.82L1124.27,308.05L1124.42,301.35L1126.74,338.17L1127.05,335.94L1127.67,330.36L1129.05,295.78L1129.21,305.82L1129.83,311.4L1131.21,289.08L1131.37,292.43L1132.14,286.85L1134.46,325.9L1134.61,322.55L1135.69,334.82L1136.15,333.71L1136.31,325.9L1136.77,321.44L1137.54,344.87L1137.7,341.52L1137.85,320.32L1138.62,295.78L1139.39,308.05L1139.55,311.4L1140.01,289.08L1140.94,294.66L1141.09,289.08L1141.71,282.39L1141.86,279.04L1142.02,277.93L1142.17,286.85L1142.94,286.85L1143.1,289.08L1144.02,306.93L1144.33,303.59L1144.8,298.01L1144.95,287.97L1145.26,300.24L1145.41,300.24L1145.88,311.4L1146.34,291.31L1147.11,304.7L1147.26,300.24L1147.42,296.89L1148.04,305.82L1148.19,310.28L1149.58,335.94L1149.73,334.82L1150.35,323.67L1150.66,321.44L1150.81,328.13L1151.28,327.01L1152.51,342.63L1152.67,340.4L1152.82,328.13L1153.9,333.71L1154.06,330.36L1154.52,331.48L1154.83,330.36L1156.22,359.37L1156.68,356.02L1156.83,354.91L1158.22,327.01L1158.38,325.9L1158.84,324.78L1158.99,329.25L1159.15,327.01L1159.3,342.63L1159.46,335.94L1160.23,351.56L1160.38,363.83L1161.31,344.87L1161.62,360.48L1162.08,363.83L1163.16,382.8L1163.31,381.68L1163.47,364.95L1164.39,363.83L1164.86,373.87L1165.48,380.57L1165.63,382.8L1165.94,374.99L1166.4,376.1L1166.56,374.99L1166.71,371.64L1167.02,380.57L1167.48,378.34L1167.64,382.8L1169.8,433L1169.95,427.42L1170.11,428.54L1170.26,435.23L1170.88,420.73L1171.03,411.81L1172.27,437.47L1172.42,434.12L1172.88,433L1173.19,440.81L1173.5,429.66L1173.96,431.89L1174.12,434.12L1175.35,399.53L1175.51,415.15L1175.66,415.15L1176.12,418.5L1176.28,400.65L1176.43,407.34L1177.2,396.19L1177.51,400.65L1177.82,406.23L1178.44,396.19L1178.59,389.49L1178.75,398.42L1179.67,380.57L1179.83,379.45L1180.6,387.26L1180.75,369.41L1180.91,349.33L1181.06,348.21L1181.53,353.79L1181.68,353.79L1182.91,342.63L1183.07,347.1L1184.3,363.83L1184.77,359.37L1185.07,362.72L1185.23,356.02L1185.38,348.21L1187.24,369.41L1187.54,366.06L1188.01,358.25L1188.47,347.1L1190.32,385.03L1190.48,379.45L1190.63,376.1L1191.71,385.03L1191.87,378.34L1192.33,379.45L1192.48,381.68L1192.79,373.87L1192.95,368.29L1193.41,369.41L1193.56,361.6L1194.03,361.6L1194.49,363.83L1195.57,386.15L1195.88,378.34L1196.03,374.99L1196.19,368.29L1197.11,369.41L1197.73,380.57L1198.19,379.45L1200.35,409.57L1200.51,406.23L1200.97,406.23L1201.12,405.11L1201.28,409.57L1201.43,414.04L1203.13,398.42L1203.29,399.53L1203.44,401.76L1203.59,397.3L1204.21,399.53L1204.37,396.19L1204.52,388.38L1205.6,393.95L1205.75,401.76L1205.91,398.42L1206.53,405.11L1206.68,410.69L1207.76,381.68L1208.07,397.3L1208.53,400.65L1210.08,382.8L1210.23,385.03L1210.69,386.15L1210.85,383.91L1211.31,391.72L1211.77,400.65L1213.47,376.1L1213.93,378.34L1214.4,370.53L1215.17,378.34L1215.32,382.8L1216.25,371.64L1216.4,366.06L1217.17,350.44L1217.48,366.06L1217.64,368.29L1218.41,356.02L1218.87,361.6L1219.34,359.37L1220.42,345.98L1220.88,350.44L1221.03,356.02L1222.88,339.29L1223.04,341.52L1223.19,335.94L1223.81,330.36L1224.27,335.94L1224.74,335.94L1224.89,332.59L1225.2,341.52L1225.35,338.17L1225.82,341.52L1225.97,332.59L1226.43,354.91L1226.9,356.02L1227.21,357.14L1227.51,354.91L1228.13,354.91L1230.76,387.26L1231.22,386.15L1231.37,381.68L1231.84,377.22L1232.92,393.95L1233.38,391.72L1233.84,392.84L1235.08,373.87L1235.54,374.99L1235.85,371.64L1238.16,414.04L1238.93,409.57L1239.24,408.46L1239.4,414.04L1240.48,411.81L1240.94,414.04L1241.25,412.92L1242.18,420.73L1242.33,409.57L1243.26,404L1243.56,408.46L1243.72,405.11L1245.57,383.91L1245.73,386.15L1245.88,390.61L1246.5,391.72L1246.65,400.65L1248.04,382.8L1248.5,380.57L1249.58,360.48L1249.74,368.29L1249.89,376.1L1250.2,381.68L1250.66,372.76L1251.74,385.03L1251.9,381.68L1252.05,376.1L1252.36,373.87L1252.82,380.57L1253.29,381.68L1254.37,358.25L1254.52,363.83L1254.98,378.34L1255.6,414.04L1256.37,396.19L1256.53,395.07L1257.15,405.11L1257.45,395.07L1257.61,385.03L1258.53,376.1L1258.69,382.8L1258.84,389.49L1259.31,391.72L1259.46,387.26L1259.61,383.91L1260.54,401.76L1261,392.84L1261.47,393.95L1261.78,408.46L1262.08,402.88L1262.7,395.07L1262.86,399.53L1263.16,390.61L1263.78,398.42L1263.94,389.49L1264.24,405.11L1265.17,395.07L1265.32,397.3L1265.79,400.65L1265.94,391.72L1267.95,377.22L1268.26,382.8L1268.41,385.03L1269.18,390.61L1269.34,383.91L1270.26,392.84L1270.57,387.26L1270.73,386.15L1272.42,372.76L1272.58,378.34L1272.73,380.57L1273.35,366.06L1273.97,369.41L1274.43,368.29L1275.51,378.34L1275.82,376.1L1275.97,376.1L1277.05,361.6L1277.21,362.72L1277.83,368.29L1279.21,345.98L1279.37,349.33L1279.83,347.1L1279.99,345.98L1280.29,352.68L1280.45,354.91L1281.53,362.72L1282.15,360.48L1282.3,357.14L1282.45,356.02L1282.61,360.48L1283.07,364.95L1284.62,350.44L1284.77,354.91L1285.23,353.79L1285.39,349.33L1285.54,347.1L1285.85,352.68L1286.47,350.44L1286.62,358.25L1287.7,368.29L1288.01,363.83L1288.47,364.95L1288.78,361.6L1289.09,367.18L1289.55,366.06L1289.71,366.06L1290.02,367.18L1290.17,362.72L1290.63,361.6L1290.94,357.14L1291.25,359.37L1291.71,366.06L1292.02,362.72L1292.33,369.41L1292.79,372.76L1293.1,369.41L1293.88,374.99L1294.18,373.87L1294.34,369.41L1295.11,376.1L1295.57,372.76L1296.04,371.64L1296.65,376.1L1297.27,372.76L1297.42,369.41L1297.58,373.87L1298.5,367.18L1298.66,369.41L1298.81,372.76L1299.43,379.45L1299.89,373.87L1300.36,371.64L1300.97,371.64L1301.44,376.1L1303.13,357.14L1303.75,359.37L1303.91,360.48L1305.3,351.56L1305.76,356.02L1305.91,357.14L1307.46,373.87L1307.92,368.29L1308.07,363.83L1308.54,383.91L1309,383.91L1309.62,397.3L1310.08,387.26L1310.23,382.8L1310.39,385.03L1310.54,379.45L1311.16,380.57L1311.31,378.34L1312.39,370.53L1312.55,371.64L1312.7,374.99L1313.94,370.53L1314.4,372.76L1315.64,378.34L1315.79,376.1L1316.1,374.99L1318.1,402.88L1318.26,400.65L1318.88,393.95L1319.18,389.49L1319.96,390.61L1320.11,395.07L1321.19,406.23L1321.5,401.76L1321.96,399.53L1322.12,398.42L1322.27,408.46L1322.43,406.23L1323.04,414.04L1323.2,415.15L1324.12,400.65L1324.43,410.69L1324.59,411.81L1325.2,409.57L1325.36,416.27L1326.28,422.96L1326.75,421.85L1326.9,417.38L1328.44,431.89L1328.75,428.54L1328.91,428.54L1329.06,435.23L1329.68,427.42L1329.99,430.77L1330.14,427.42L1331.07,426.31L1331.69,431.89L1331.84,428.54L1332.92,418.5L1333.23,420.73L1333.38,429.66L1334,431.89" style="vector-effect: none; fill: none; stroke: rgb(255, 0, 0); stroke-opacity: 1; stroke-width: 5px; opacity: 1;"/></g><g class="points"/><g class="text"/></g></g></g></g><path class="xlines-above crisp" d="M0,0" style="fill: none;"/><path class="ylines-above crisp" d="M111.5,86V624" style="fill: none; stroke-width: 1px; stroke: rgb(170, 178, 187); stroke-opacity: 1;"/><g class="overlines-above"><path class="xy2-x crisp" d="M0,0" style="fill: none;"/><path class="xy2-y crisp" d="M1446.5,86V624" style="fill: none; stroke-width: 1px; stroke: rgb(170, 178, 187); stroke-opacity: 1;"/></g><g class="xaxislayer-above"><g class="xtick"><text text-anchor="middle" x="0" y="648" transform="translate(168.32999999999998,0)" style="font-family: 'Open Sans', verdana, arial, sans-serif; font-size: 23px; fill: rgb(68, 68, 68); fill-opacity: 1; white-space: pre; opacity: 1;">2004</text></g><g class="xtick"><text text-anchor="middle" x="0" y="648" transform="translate(281.14,0)" style="font-family: 'Open Sans', verdana, arial, sans-serif; font-size: 23px; fill: rgb(68, 68, 68); fill-opacity: 1; white-space: pre; opacity: 1;">2006</text></g><g class="xtick"><text text-anchor="middle" x="0" y="648" transform="translate(393.8,0)" style="font-family: 'Open Sans', verdana, arial, sans-serif; font-size: 23px; fill: rgb(68, 68, 68); fill-opacity: 1; white-space: pre; opacity: 1;">2008</text></g><g class="xtick"><text text-anchor="middle" x="0" y="648" transform="translate(506.61,0)" style="font-family: 'Open Sans', verdana, arial, sans-serif; font-size: 23px; fill: rgb(68, 68, 68); fill-opacity: 1; white-space: pre; opacity: 1;">2010</text></g><g class="xtick"><text text-anchor="middle" x="0" y="648" transform="translate(619.27,0)" style="font-family: 'Open Sans', verdana, arial, sans-serif; font-size: 23px; fill: rgb(68, 68, 68); fill-opacity: 1; white-space: pre; opacity: 1;">2012</text></g><g class="xtick"><text text-anchor="middle" x="0" y="648" transform="translate(732.08,0)" style="font-family: 'Open Sans', verdana, arial, sans-serif; font-size: 23px; fill: rgb(68, 68, 68); fill-opacity: 1; white-space: pre; opacity: 1;">2014</text></g><g class="xtick"><text text-anchor="middle" x="0" y="648" transform="translate(844.74,0)" style="font-family: 'Open Sans', verdana, arial, sans-serif; font-size: 23px; fill: rgb(68, 68, 68); fill-opacity: 1; white-space: pre; opacity: 1;">2016</text></g><g class="xtick"><text text-anchor="middle" x="0" y="648" transform="translate(957.56,0)" style="font-family: 'Open Sans', verdana, arial, sans-serif; font-size: 23px; fill: rgb(68, 68, 68); fill-opacity: 1; white-space: pre; opacity: 1;">2018</text></g><g class="xtick"><text text-anchor="middle" x="0" y="648" transform="translate(1070.21,0)" style="font-family: 'Open Sans', verdana, arial, sans-serif; font-size: 23px; fill: rgb(68, 68, 68); fill-opacity: 1; white-space: pre; opacity: 1;">2020</text></g><g class="xtick"><text text-anchor="middle" x="0" y="648" transform="translate(1183.03,0)" style="font-family: 'Open Sans', verdana, arial, sans-serif; font-size: 23px; fill: rgb(68, 68, 68); fill-opacity: 1; white-space: pre; opacity: 1;">2022</text></g><g class="xtick"><text text-anchor="middle" x="0" y="648" transform="translate(1295.69,0)" style="font-family: 'Open Sans', verdana, arial, sans-serif; font-size: 23px; fill: rgb(68, 68, 68); fill-opacity: 1; white-space: pre; opacity: 1;">2024</text></g><g class="xtick"><text text-anchor="middle" x="0" y="648" transform="translate(1408.5,0)" style="font-family: 'Open Sans', verdana, arial, sans-serif; font-size: 23px; fill: rgb(68, 68, 68); fill-opacity: 1; white-space: pre; opacity: 1;">2026</text></g></g><g class="yaxislayer-above"><path class="ytick ticks crisp" d="M111,0h-5" transform="translate(0,598.06)" style="stroke: rgb(170, 178, 187); stroke-opacity: 1; stroke-width: 1px;"/><path class="ytick ticks crisp" d="M111,0h-5" transform="translate(0,539.89)" style="stroke: rgb(170, 178, 187); stroke-opacity: 1; stroke-width: 1px;"/><path class="ytick ticks crisp" d="M111,0h-5" transform="translate(0,481.73)" style="stroke: rgb(170, 178, 187); stroke-opacity: 1; stroke-width: 1px;"/><path class="ytick ticks crisp" d="M111,0h-5" transform="translate(0,423.57)" style="stroke: rgb(170, 178, 187); stroke-opacity: 1; stroke-width: 1px;"/><path class="ytick ticks crisp" d="M111,0h-5" transform="translate(0,365.41)" style="stroke: rgb(170, 178, 187); stroke-opacity: 1; stroke-width: 1px;"/><path class="ytick ticks crisp" d="M111,0h-5" transform="translate(0,307.25)" style="stroke: rgb(170, 178, 187); stroke-opacity: 1; stroke-width: 1px;"/><path class="ytick ticks crisp" d="M111,0h-5" transform="translate(0,249.08)" style="stroke: rgb(170, 178, 187); stroke-opacity: 1; stroke-width: 1px;"/><path class="ytick ticks crisp" d="M111,0h-5" transform="translate(0,190.92000000000002)" style="stroke: rgb(170, 178, 187); stroke-opacity: 1; stroke-width: 1px;"/><path class="ytick ticks crisp" d="M111,0h-5" transform="translate(0,132.76)" style="stroke: rgb(170, 178, 187); stroke-opacity: 1; stroke-width: 1px;"/><g class="ytick"><text text-anchor="end" x="101.4" y="8.049999999999999" transform="translate(0,598.06)" style="font-family: 'Open Sans', verdana, arial, sans-serif; font-size: 23px; fill: rgb(0, 0, 255); fill-opacity: 1; white-space: pre; opacity: 1;">0</text></g><g class="ytick"><text text-anchor="end" x="101.4" y="8.049999999999999" style="font-family: 'Open Sans', verdana, arial, sans-serif; font-size: 23px; fill: rgb(0, 0, 255); fill-opacity: 1; white-space: pre; opacity: 1;" transform="translate(0,539.89)">500</text></g><g class="ytick"><text text-anchor="end" x="101.4" y="8.049999999999999" style="font-family: 'Open Sans', verdana, arial, sans-serif; font-size: 23px; fill: rgb(0, 0, 255); fill-opacity: 1; white-space: pre; opacity: 1;" transform="translate(0,481.73)">1,000</text></g><g class="ytick"><text text-anchor="end" x="101.4" y="8.049999999999999" style="font-family: 'Open Sans', verdana, arial, sans-serif; font-size: 23px; fill: rgb(0, 0, 255); fill-opacity: 1; white-space: pre; opacity: 1;" transform="translate(0,423.57)">1,500</text></g><g class="ytick"><text text-anchor="end" x="101.4" y="8.049999999999999" style="font-family: 'Open Sans', verdana, arial, sans-serif; font-size: 23px; fill: rgb(0, 0, 255); fill-opacity: 1; white-space: pre; opacity: 1;" transform="translate(0,365.41)">2,000</text></g><g class="ytick"><text text-anchor="end" x="101.4" y="8.049999999999999" style="font-family: 'Open Sans', verdana, arial, sans-serif; font-size: 23px; fill: rgb(0, 0, 255); fill-opacity: 1; white-space: pre; opacity: 1;" transform="translate(0,307.25)">2,500</text></g><g class="ytick"><text text-anchor="end" x="101.4" y="8.049999999999999" style="font-family: 'Open Sans', verdana, arial, sans-serif; font-size: 23px; fill: rgb(0, 0, 255); fill-opacity: 1; white-space: pre; opacity: 1;" transform="translate(0,249.08)">3,000</text></g><g class="ytick"><text text-anchor="end" x="101.4" y="8.049999999999999" style="font-family: 'Open Sans', verdana, arial, sans-serif; font-size: 23px; fill: rgb(0, 0, 255); fill-opacity: 1; white-space: pre; opacity: 1;" transform="translate(0,190.92000000000002)">3,500</text></g><g class="ytick"><text text-anchor="end" x="101.4" y="8.049999999999999" style="font-family: 'Open Sans', verdana, arial, sans-serif; font-size: 23px; fill: rgb(0, 0, 255); fill-opacity: 1; white-space: pre; opacity: 1;" transform="translate(0,132.76)">4,000</text></g></g><g class="overaxes-above"><g class="xy2-x"/><g class="xy2-y"><path class="y2tick ticks crisp" d="M1447,0h5" transform="translate(0,580.36)" style="stroke: rgb(170, 178, 187); stroke-opacity: 1; stroke-width: 1px;"/><path class="y2tick ticks crisp" d="M1447,0h5" transform="translate(0,524.5799999999999)" style="stroke: rgb(170, 178, 187); stroke-opacity: 1; stroke-width: 1px;"/><path class="y2tick ticks crisp" d="M1447,0h5" transform="translate(0,468.8)" style="stroke: rgb(170, 178, 187); stroke-opacity: 1; stroke-width: 1px;"/><path class="y2tick ticks crisp" d="M1447,0h5" transform="translate(0,413.01)" style="stroke: rgb(170, 178, 187); stroke-opacity: 1; stroke-width: 1px;"/><path class="y2tick ticks crisp" d="M1447,0h5" transform="translate(0,357.23)" style="stroke: rgb(170, 178, 187); stroke-opacity: 1; stroke-width: 1px;"/><path class="y2tick ticks crisp" d="M1447,0h5" transform="translate(0,301.45)" style="stroke: rgb(170, 178, 187); stroke-opacity: 1; stroke-width: 1px;"/><path class="y2tick ticks crisp" d="M1447,0h5" transform="translate(0,245.66)" style="stroke: rgb(170, 178, 187); stroke-opacity: 1; stroke-width: 1px;"/><path class="y2tick ticks crisp" d="M1447,0h5" transform="translate(0,189.88)" style="stroke: rgb(170, 178, 187); stroke-opacity: 1; stroke-width: 1px;"/><path class="y2tick ticks crisp" d="M1447,0h5" transform="translate(0,134.1)" style="stroke: rgb(170, 178, 187); stroke-opacity: 1; stroke-width: 1px;"/><g class="y2tick"><text text-anchor="start" x="1456.6" y="8.049999999999999" transform="translate(0,580.36)" style="font-family: 'Open Sans', verdana, arial, sans-serif; font-size: 23px; fill: rgb(255, 0, 0); fill-opacity: 1; white-space: pre; opacity: 1;">3</text></g><g class="y2tick"><text text-anchor="start" x="1456.6" y="8.049999999999999" style="font-family: 'Open Sans', verdana, arial, sans-serif; font-size: 23px; fill: rgb(255, 0, 0); fill-opacity: 1; white-space: pre; opacity: 1;" transform="translate(0,524.5799999999999)">2.5</text></g><g class="y2tick"><text text-anchor="start" x="1456.6" y="8.049999999999999" style="font-family: 'Open Sans', verdana, arial, sans-serif; font-size: 23px; fill: rgb(255, 0, 0); fill-opacity: 1; white-space: pre; opacity: 1;" transform="translate(0,468.8)">2</text></g><g class="y2tick"><text text-anchor="start" x="1456.6" y="8.049999999999999" style="font-family: 'Open Sans', verdana, arial, sans-serif; font-size: 23px; fill: rgb(255, 0, 0); fill-opacity: 1; white-space: pre; opacity: 1;" transform="translate(0,413.01)">1.5</text></g><g class="y2tick"><text text-anchor="start" x="1456.6" y="8.049999999999999" style="font-family: 'Open Sans', verdana, arial, sans-serif; font-size: 23px; fill: rgb(255, 0, 0); fill-opacity: 1; white-space: pre; opacity: 1;" transform="translate(0,357.23)">1</text></g><g class="y2tick"><text text-anchor="start" x="1456.6" y="8.049999999999999" style="font-family: 'Open Sans', verdana, arial, sans-serif; font-size: 23px; fill: rgb(255, 0, 0); fill-opacity: 1; white-space: pre; opacity: 1;" transform="translate(0,301.45)">0.5</text></g><g class="y2tick"><text text-anchor="start" x="1456.6" y="8.049999999999999" style="font-family: 'Open Sans', verdana, arial, sans-serif; font-size: 23px; fill: rgb(255, 0, 0); fill-opacity: 1; white-space: pre; opacity: 1;" transform="translate(0,245.66)">0</text></g><g class="y2tick"><text text-anchor="start" x="1456.6" y="8.049999999999999" style="font-family: 'Open Sans', verdana, arial, sans-serif; font-size: 23px; fill: rgb(255, 0, 0); fill-opacity: 1; white-space: pre; opacity: 1;" transform="translate(0,189.88)">−0.5</text></g><g class="y2tick"><text text-anchor="start" x="1456.6" y="8.049999999999999" style="font-family: 'Open Sans', verdana, arial, sans-serif; font-size: 23px; fill: rgb(255, 0, 0); fill-opacity: 1; white-space: pre; opacity: 1;" transform="translate(0,134.1)">−1</text></g></g></g></g><g class="subplot xy2"/></g><g class="polarlayer"/><g class="smithlayer"/><g class="ternarylayer"/><g class="geolayer"/><g class="funnelarealayer"/><g class="pielayer"/><g class="iciclelayer"/><g class="treemaplayer"/><g class="sunburstlayer"/><g class="glimages"/><defs id="topdefs-4201ce"><g class="clips"/><clipPath id="legend4201ce"><rect width="914" height="47" x="0" y="0"/></clipPath></defs><g class="layer-above"><g class="imagelayer"/><g class="shapelayer"/></g><g class="infolayer"><g class="legend" pointer-events="all" transform="translate(322,28.239999999999995)"><rect class="bg" shape-rendering="crispEdges" width="914" height="47" x="0" y="0" style="stroke: rgb(68, 68, 68); stroke-opacity: 1; fill: rgb(255, 255, 255); fill-opacity: 1; stroke-width: 0px;"/><g class="scrollbox" transform="" clip-path="url(#legend4201ce)"><g class="groups"><g class="traces" transform="translate(0,23.400000000000002)" style="opacity: 1;"><text class="legendtext" text-anchor="start" x="40" y="10.14" style="font-family: 'Open Sans', verdana, arial, sans-serif; font-size: 26px; fill: rgb(68, 68, 68); fill-opacity: 1; white-space: pre;">黄金:ETF:持仓量:以吨计:全球:合计</text><g class="layers" style="opacity: 1;"><g class="legendfill"/><g class="legendlines"><path class="js-line" d="M5,0h30" style="fill: none; stroke: rgb(0, 0, 255); stroke-opacity: 1; stroke-width: 5px;"/></g><g class="legendsymbols"><g class="legendpoints"/></g></g><rect class="legendtoggle" x="0" y="-18.400000000000002" width="464.234375" height="36.800000000000004" style="fill: rgb(0, 0, 0); fill-opacity: 0;"/></g><g class="traces" transform="translate(466.734375,23.400000000000002)" style="opacity: 1;"><text class="legendtext" text-anchor="start" x="40" y="10.14" style="font-family: 'Open Sans', verdana, arial, sans-serif; font-size: 26px; fill: rgb(68, 68, 68); fill-opacity: 1; white-space: pre;">美国10年期实际利率计算（逆序）</text><g class="layers" style="opacity: 1;"><g class="legendfill"/><g class="legendlines"><path class="js-line" d="M5,0h30" style="fill: none; stroke: rgb(255, 0, 0); stroke-opacity: 1; stroke-width: 5px;"/></g><g class="legendsymbols"><g class="legendpoints"/></g></g><rect class="legendtoggle" x="0" y="-18.400000000000002" width="444.296875" height="36.800000000000004" style="fill: rgb(0, 0, 0); fill-opacity: 0;"/></g></g></g><rect class="scrollbar" rx="20" ry="3" width="0" height="0" x="0" y="0" style="fill: rgb(128, 139, 164); fill-opacity: 1;"/></g><g class="g-gtitle"/><g class="g-xtitle"/><g class="g-ytitle" transform="translate(1.30859375,0)"><text class="ytitle" transform="rotate(-90,19.691015625000006,355)" x="19.691015625000006" y="355" text-anchor="middle" style="opacity: 1; font-family: 'Open Sans', verdana, arial, sans-serif; font-size: 21px; fill: rgb(0, 0, 255); fill-opacity: 1; white-space: pre;">吨</text></g><g class="g-y2title"><text class="y2title" transform="rotate(-90,1535.237109375,355)" x="1535.237109375" y="355" text-anchor="middle" style="opacity: 1; font-family: 'Open Sans', verdana, arial, sans-serif; font-size: 21px; fill: rgb(255, 0, 0); fill-opacity: 1; white-space: pre;">（逆序）</text></g></g></svg>